<svg xmlns="http://www.w3.org/2000/svg" version="1.1" viewBox="0 0 1200 800" width="1200" height="800">
<rect fill="rgb(255,255,255)" x="0" y="0" width="1200" height="800"/><defs/><!--ITEM: Illustration component 1--><g transform="translate(276.0 154.0) rotate(0.0 280.0 241.0)  scale(0.6152493957372006 0.6150312619624856)"><svg width="910.2" height="783.7" viewBox="0.0 0.0 910.2 783.7"><path d="m470.6 406.4c-100.4 0-133.9 165.2-251.2 165.2-17.5 0-38-7.2-53.8-14.2-3.1-12.7-13.9-24.1-34-28.2-27.2-5.5-35.3-8.1-60.4-23.9s-28.2 9.3-23.1 20.1 17.6 21.9 30.8 22.5 19.1-.8 21.3 5.1-26.4-2.8-51.1 22.7c-20.3 6.3-37.3 19.9-44.6 32.4s-2 21.9 7.3 22.7c-7.1 10.5-10.9 34.1.4 37.5s24.5-7.1 35.3-18c-8.3 13.2-4.3 31.2 9.5 31.8s38.7-42.4 64.7-45.8c15.4-2 33.6-4.5 45.8-12.4 231.1-14.6 202.5-206.7 299.7-206.7 4.2 0 3.4-10.8 3.4-10.8z" fill="#fff"/><path d="m471 405.8c-19.8 0-38.4 6.8-54.8 17.7-17.5 11.7-32.2 27.1-46.1 42.7-15 16.9-29.2 34.4-44.9 50.7-15.3 15.9-32.2 30.9-52 41-22.7 11.6-49 16.2-74 10.4-9.2-2.2-18.2-5.2-26.9-8.9-1.6-.7-4.4-1.3-5.6-2.5-.9-1-1.2-3.1-1.7-4.4-1.1-2.6-2.4-5-4.1-7.3-4-5.3-9.3-9.5-15.4-12.3-7.5-3.5-15.6-4.7-23.6-6.5-6.5-1.4-13-3.2-19.3-5.4-6.3-2.4-12.4-5.4-18.3-8.8-6.8-3.9-13.4-9.2-20.9-11.7-4.1-1.4-8.8-1.7-12.5.7-6.7 4.3-7 14.6-5 21.5 1.8 6.2 6.4 11.8 11.2 16.1 5.7 5.1 12.8 8.9 20.5 9.5 3.9.3 7.9.2 11.8.3 2.4.1 5.3.1 7.3 1.5.8.5 2.9 2.6 2.3 3.8-.3.7-1.9.7-2.6.8-4.3.7-8.7.9-13 1.7-6.4 1.2-12.6 3.2-18.4 6.2-3.5 1.8-6.8 3.9-9.9 6.3-1.5 1.2-3 2.4-4.4 3.8-.8.8-1.6 1.6-2.5 2.3-1 .5-2.1 1-3.3 1.2-8 2.9-15.6 6.8-22.5 11.8-6.1 4.2-11.4 9.3-16 15.1-4 5.3-7.9 12.3-6.4 19.1 1.2 5.4 5.8 8.5 11 9l-.5-.6c-5.3 8-8.3 19.6-6.4 29.1.8 3.9 2.8 7.6 6.7 8.9 5.6 2 11.9.2 17-2.4 7.6-3.9 14.1-9.9 20.1-15.9l-1.7-.2c-5.4 8.8-7.2 24.1 3.1 30.4 8.1 5 15.5-.5 21.6-5.8 9.1-8.1 17.1-17.3 26.4-25.2 4.6-4.1 9.8-7.5 15.3-10.2 6.2-2.8 13.1-3.1 19.7-4.1 8-1.1 15.9-2.9 23.5-5.5 3.4-1.2 6.7-2.6 9.8-4.4 3.2-1.8 7.6-1.4 11.2-1.7 13.7-1.2 27.3-3.2 40.8-6 22.7-4.8 44.9-12.2 65.4-23 17-9 32.7-20.3 46.7-33.5 12.3-11.8 23.5-24.8 33.3-38.8 9-12.7 17.2-25.9 25.3-39.1 7.2-11.6 14.3-23.3 22.7-34.1 7.2-9.2 15.5-17.8 25.7-23.7 4.9-2.8 10.2-4.9 15.7-6.1 2.9-.7 5.8-1.1 8.8-1.3 2.8-.2 7 .7 8.7-2.2 1.7-2.7 1.5-6.7 1.3-9.8-.1-.7-2-.3-1.9.5.2 2.4.6 9.5-2.5 10-2.9.5-6.1.2-9 .6-5.6.8-11 2.3-16.2 4.5-10.3 4.5-19 11.8-26.4 20.2-8.5 9.5-15.5 20.3-22.3 31-7.8 12.4-15.3 25.1-23.4 37.3-8.9 13.7-18.8 26.7-29.8 38.8-12.3 13.5-26.2 25.3-41.4 35.3-18.1 11.6-37.7 20.5-58.3 26.5-12.2 3.6-24.6 6.4-37.2 8.4-6.9 1.1-13.8 2-20.7 2.7-3.6.4-7.2.7-10.8.9-1.5.1-3.4-.1-4.8.4-1.7.6-3.3 1.9-4.9 2.7-7.4 3.6-15.5 5.6-23.6 7-3.9.7-7.8 1.3-11.8 1.8-3.1.3-6.2.8-9.2 1.5-11 3-20.1 11-28.2 18.6s-15.4 16.5-24.4 23c-3.5 2.5-6.9 4.1-11.2 2.8-5.5-1.7-8.6-7-9.5-12.3-.9-6.4.5-12.8 3.9-18.2.5-.9-1.4-.6-1.7-.2-5 5-10.2 9.9-16.3 13.7-5.1 3.2-11.8 6-17.8 3.9-8.4-2.9-7-15.7-5.6-22.4 1-5.1 2.9-10 5.7-14.4.3-.4-.2-.6-.5-.6-7.1-.7-11-6.8-9.9-13.6 1.1-7.4 6.4-13.9 11.5-19.1 6-6 12.9-11.1 20.4-15 3.9-2.1 8-3.9 12.2-5.3 1.8-.6 3.1-.9 4.5-2.2 1.6-1.6 3.3-3.2 5.1-4.6 10.6-8.6 23.2-12.4 36.6-13.9 2.3-.3 6-.1 8-1.7 2.2-1.8-.9-5-2.6-5.8-2-.8-4.1-1.3-6.2-1.3-3.6-.2-7.2-.1-10.7-.3-8.8-.3-16.6-4.2-22.9-10.2-7.8-7.4-13.3-17.7-10.2-28.5 1.2-3.9 3.8-7.4 8.2-7.8 7.1-.6 13.7 4.6 19.3 8 11.4 7 23 13 36 16.5 14.7 4 31.1 4.7 42.9 15.3 4.5 4 7.9 9.2 9.8 15 .5 1.7.4 2.1 2.1 2.8 2.1.9 4.3 1.8 6.4 2.7 3.9 1.6 7.9 3.1 12 4.4 8.3 2.9 16.9 4.9 25.6 6 6.7.7 13.5.7 20.2 0 10.7-1 21.3-3.5 31.4-7.3 20-7.6 37.4-20.4 52.9-34.9 16.2-15.1 30.5-32.2 45-48.9 13.9-16.1 27.9-32.3 44.2-46 14.9-12.5 32.2-22.8 51.7-26.2 4.9-.8 9.8-1.2 14.7-1.3 1.4.2 2.7-1 1.4-1z" fill="#000000"/><path d="m12.6 630.7c4.1-6 8.9-11.5 14.3-16.3 6.2-5.8 13-10.8 20.3-15 3.9-2.2 8-4 12.2-5.3 1.1-.3.9-1.1-.2-.8-7.9 2.3-15.2 6.5-21.9 11.2-7 4.9-13.4 10.6-19.1 16.9-2.7 2.9-5.2 6.1-7.4 9.4-.4.6 1.5.4 1.8-.1z" fill="#000000"/><path d="m48.3 650.3c3.8-6.1 8.2-11.8 13.1-17 5.1-5.6 10.6-10.9 16.5-15.7 2.9-2.4 5.9-4.5 9-6.5 1.1-.7-.6-1-1.2-.6-5.9 3.8-11.4 8.1-16.4 12.9-5.7 5.3-11.1 11-16 17.1-2.5 3.1-4.8 6.3-6.9 9.7-.4.8 1.6.6 1.9.1z" fill="#000000"/><path d="m167.8 624.2c10.5-5.5 14.2-18.8 11.1-29.7-1-3.5-2.7-6.7-4.9-9.6-.4-.5-2.3.1-1.8.8 7 8.9 8 22.3 1.4 31.7-1.7 2.5-4 4.5-6.6 5.9-1.1.7 0 1.4.8.9z" fill="#000000"/><path d="m121 575.7c9.4-9.5 24.9-5.3 35.1.4.5.3 2.1-.5 1.8-.7-11.4-6.4-28.4-10.1-38.7.4-.3.3.3.4.5.4.5 0 1-.2 1.3-.5z" fill="#000000"/><path d="m130.2 570.8c2.5-1.3 4.8-3.5 4.8-6.5s-2.2-5.3-4.6-6.8c-.6-.4-2.3.5-1.5 1 2.1 1.3 4 3.3 4.2 5.9 0 2.4-1.4 4.6-3.6 5.5-.3.1-.8.5-.5.8.2.4.9.2 1.2.1z" fill="#000000"/><path d="m902.3 414.5c-7.4-7.3-44.8-22.4-76.3-13.9-8.1-4 3.9-15.5 7.2-24.3 4.4-11.7-.2-32.3-13.3-35.2-10.1-2.2-16.4 9.7-13.9 26.2 1.1 7.1.5 22.4-16.9 31.4-16.1 8.3-23.8 12.1-25.1 33.9-55.2 24.8-50 59.4-101.4 59.4-55.8 0-79.8-88.5-146.9-88.5 0 0 8.6 5.7 8.6 9.2 67.4 27.5 63.9 108 153.5 108 38.6 0 61.3-28.6 91.5-28.6 17.6 16.5 45.6-7.9 59.9-10.4 14.7-2.6 29.4 3.5 45.1 9.4 16.1 6.1 22-10.3 10-26.2 23.9 14.4 34.8-8.9 14.5-29.4 10.1 2.3 15.2-9.4 3.5-21z" fill="#fff"/><path d="m903.2 414.2c-2.3-2-4.8-3.7-7.6-5-4.1-2.1-8.4-3.9-12.8-5.4-11.4-4-23.4-6.1-35.5-6.3-7.2-.1-14.4.8-21.4 2.5h.9c-6.3-3.3.9-12.3 3.2-16 1.9-2.8 3.4-5.8 4.6-9 .9-2.9 1.3-6 1.2-9 .1-6.4-1.7-12.7-5.1-18.1-3.1-4.6-8.3-8.2-14.1-7.6-5.7.6-9.2 5.5-10.8 10.6-1 3.6-1.5 7.3-1.3 11 .1 3.2.8 6.3.8 9.4.2 5.6-1.3 11.1-4.2 15.8-4.3 7-11.2 10.3-18.2 14.1-5.2 2.8-10.5 6-14.1 10.8-4.3 5.9-5.4 13.5-5.9 20.7l.6-.6c-11.8 5.3-22.9 12.1-32.8 20.4-7.4 6.3-14 13.4-21 20.1-6.3 6.1-13.2 11.5-21.5 14.7-10 3.7-20.8 5-31.4 3.7-17.3-2-31.6-13.1-43.9-24.7-13.7-12.9-25.8-27.4-40.2-39.7-14.1-12-30.5-21.5-49.3-23.4-2.5-.3-5-.4-7.5-.4-.4 0-2 .6-1.1 1.1 1.5 1 2.9 2 4.2 3.2 1.6 1.4 4.1 3.4 4.2 5.8 0 .1.1.2.2.2 12.6 5.2 24.1 12.8 33.8 22.4 8.9 8.6 16.6 18.4 24.1 28.3 14.8 19.5 30 39.3 53.1 49.3 13.8 6 29.1 8.3 44.1 8.1 17.4-.3 33.1-6.8 48.4-14.5 7-3.5 14-7.2 21.3-10 3.5-1.3 7-2.4 10.6-3.2 1.9-.4 3.9-.7 5.8-.9.8-.1 1.6-.1 2.4-.2 1.4-.1 1.7.3 2.8 1.1 12.1 9.4 28.3 2.1 40.3-3.6 5.8-2.8 11.8-6.4 18.1-7.8 10.7-2.4 22.2.9 32.3 4.4 5.2 1.8 10.3 4.4 15.6 5.6 3.1.9 6.4.7 9.3-.6 5.9-2.8 6.7-10 5.3-15.7-1.1-4.3-3.1-8.2-5.8-11.7l-1.7.9c6.3 3.7 15.2 7 21.9 2.2 5.8-4.1 5.7-12.1 3.6-18.2-2.1-5.4-5.3-10.3-9.4-14.3l-1.5 1c4.4.9 9.5-.3 11.3-4.9 2.7-5.8-1.8-12.5-5.9-16.6-.5-.5-2.4.2-1.8.8 3.6 3.7 7.3 8.8 6.6 14.2-.6 4.6-4.4 6.6-8.8 5.7-.4-.1-2.1.3-1.5 1 6.3 6.4 13.2 16.9 9.7 26.4-3.7 10-15.8 6.1-22.5 2.1-.5-.3-2.2.2-1.7.9 4.4 5.9 9.4 16.2 4.4 23.2-2.3 3.2-6.1 3.7-9.7 3-2.3-.6-4.5-1.4-6.7-2.3-3-1.1-6-2.3-9.1-3.4-10.1-3.5-20.8-6.4-31.6-4.9-6.4.9-12.3 4.1-18.1 7-7 3.4-14.2 7-21.8 8.6-3.7.9-7.5.9-11.3.2-1.7-.4-3.3-1-4.8-1.7-.8-.4-1.6-.9-2.3-1.5-.7-.7-1.6-1.4-2.4-1.9-1.2-.5-3.6.1-4.8.2-2 .2-3.9.5-5.9.9-3.6.8-7.2 1.8-10.7 3.1-7.4 2.7-14.5 6.4-21.5 10-7.5 4-15.4 7.4-23.4 10.2-8.9 3-18.3 4.4-27.7 4.3-15.3-.2-30.6-3-44.3-10-22.7-11.5-37.2-32.7-52.4-52.3-7.8-10.1-16-19.9-25.7-28.2-5-4.3-10.5-8.2-16.2-11.5-3.1-1.8-6.3-3.4-9.6-4.8-.6-.3-1.9-.6-2.4-1.1-.2-.5-.4-1-.6-1.5-.8-1.3-1.8-2.5-3-3.6-1.6-1.5-3.4-2.9-5.2-4.1l-1.1 1.1c19.9.1 37.6 8.6 52.8 20.9 14.8 12 27.1 26.6 40.7 39.8 12 11.7 25.8 23.2 42.7 26.6 9.8 2 20.6 1.4 30.3-1 8.6-2.1 16.6-6.2 23.4-11.9 7.1-5.8 13.2-12.7 19.8-19 8.7-8.4 18.6-15.6 29.2-21.5 3.3-1.8 6.8-3.5 10.2-5.1.2-.1.6-.3.6-.6.5-8.3 2-17.1 8.2-23.1 6.2-6.1 14.9-8.5 21.8-13.6 6.7-4.8 11.1-12.2 12.2-20.4.3-2.9.3-5.8-.2-8.7-.7-5.4-.8-11 .9-16.3 1.2-3.7 3.6-7.9 7.7-8.8 4-.9 8.2 1.3 10.9 4.1 6.1 6.1 8.1 16 7.2 24.3-.5 4.2-2 8.3-4.3 11.9-2.3 3.8-5.1 7.5-6.5 11.7-.6 1.4-.7 3-.3 4.5.5 1.4 1.5 2.4 2.9 2.9.9.2 2.2-.4 3.1-.6 1.5-.4 3.1-.6 4.6-.9 2.9-.4 5.8-.7 8.7-.9 11.5-.4 23 1.1 34 4.3 7.9 2.2 16 5.1 22.8 9.7 1 .6 1.9 1.4 2.8 2.2.4.7 2.2-.1 1.7-.6z" fill="#000000"/><path d="m885.1 464.5c-3.2-4.8-8.6-8.1-13.6-10.7-6.1-3.3-12.8-5.6-19.6-6.9-3.3-.7-6.6-.8-9.9-.5-.5.1-2.1.8-.9.7 6.1-.7 12.5 1 18.2 2.9 6.3 2.1 12.2 5.1 17.6 8.9 2.4 1.7 4.5 3.7 6.2 6.1.4.5 2.2-.3 2-.5z" fill="#000000"/><path d="m899.4 434.9c-10.8-9.8-26.1-14.5-40.5-15.1-3.7-.2-7.5 0-11.2.5-1.1.2-1.5 1.6-.2 1.4 13.6-2 28.6.9 40.7 7.5 3.5 1.9 6.8 4.2 9.7 6.8.6.6 2.3-.4 1.5-1.1z" fill="#000000"/><path d="m787.7 272.1c-.6 11.4-3.3 22.7-10.3 29.9-3.2 36.4-41.3 135.4-124.1 135.4-61.4 0-103.3-34.6-143.2-34.6-4.3-4.1-8.1-8.1-8.1-8.1 50.1 0 96.5 23.4 138.4 23.4 40.2 0 81-36.9 82.8-102-16.7 4.7-42.2 2.9-61.6-28-16.9-27 9.2-36.5 19.9-18.6 7.5 12.5 27.2 10.5 27.2-17.3s-26.7-33.2-35.6-17.8-22.5 11.5-21.1-6.7 16.1-34 33.8-32.9c-8.2-5.2-9.2-23.3 19.8-23.6 18-.2 30.3 14.3 37.4 26.5 3 5.1 5.5 10.4 7.4 15.9-.3-7-1.3-13.9-3-20.6-3.3-11.7 12.4-20.5 24.4-5.6s17.1 61.7 15.9 84.7z" fill="#fff"/><path d="m786.8 272.2c-.5 8.6-1.9 17.6-6.6 25.1-.5.8-1 1.6-1.6 2.3-.8.7-1.5 1.6-2.1 2.4-.2.8-.3 1.5-.3 2.3-.2 1.7-.4 3.3-.7 5-1.5 8.5-3.7 16.8-6.6 24.9-3.5 10.1-7.7 20-12.7 29.5-5.4 10.3-11.7 20.1-19 29.2-7.4 9.4-16.1 17.7-25.7 24.8-9.8 7.2-20.9 12.6-32.6 15.8-14.4 3.9-29.3 3.9-44 2.2-16.4-1.9-32.3-6.2-47.8-11.5-13.7-4.7-27.1-10.3-40.9-14.9-6.2-2.1-12.5-3.9-18.9-5.2-3-.6-6-1.1-9.1-1.4-1.5-.2-3-.3-4.6-.3-.7 0-1.4-.1-2.1-.1-.3 0-.7 0-1-.2-.6-.4-1.1-.9-1.6-1.5-2.1-2-4.1-4.1-6.1-6.2l-1.3 1c23.3 0 46 5.1 68.5 10.8 20.6 5.2 41.3 11.1 62.5 12.4 7.6.6 15.2.1 22.6-1.5 6.8-1.6 13.4-4.1 19.6-7.5 13.5-7.4 24.6-18.8 32.6-32 9.7-16.1 14.8-34.8 16.3-53.5.2-2.7.4-5.4.4-8.1 0-.6-.7-.5-1.1-.4-9.3 2.7-19.2 2.5-28.5-.4-13-4.2-23.2-14-30.7-25.2-3.5-5.3-7-11.6-6.9-18.1.1-3.8 1.6-7.7 5.1-9.6 3.3-1.8 7.3-1.4 10.6.2 2 1 3.8 2.3 5.3 4 1.6 1.7 2.6 3.8 4 5.6 4.7 5.8 13 7.5 19.2 3 3.8-2.8 6-7.1 7.2-11.5 1.7-6.3 1.8-12.9.5-19.3-2-9.1-8.5-17.2-18.1-18.6-3.9-.6-7.9.1-11.5 1.9-1.8.9-3.4 2.2-4.7 3.6-1.8 2-3 4.4-4.6 6.5-2.7 3.5-7.6 7.5-12.2 4.7-4.9-3-5.2-10.5-4.7-15.6 1.3-13.1 9.9-26.2 22.8-30.2 3.1-1 6.3-1.3 9.6-1.1.4 0 1.9-.6 1.1-1.1-3.1-2.1-4.9-5.6-4.8-9.3.2-5 4-8.6 8.4-10.5 8.2-3.1 17.3-3.4 25.7-.9 8.3 2.9 15 9 20.3 15.9 5.7 7.4 10.2 15.6 13.2 24.5.2.7 2 .3 1.9-.4-.2-5.4-.8-10.7-1.9-16-.8-4.1-2.5-8.2-.5-12.3 1.8-3.4 5.4-5.4 9.3-5.1 5.3.3 9.8 4 12.9 8 4.9 6.4 7.3 14.8 9.3 22.5 2.5 10 4.2 20.1 5.2 30.4 1.3 10.2 1.8 20.6 1.4 31 0 .9 1.9.5 1.9-.2.4-9.6 0-19.1-1-28.6-1-10.9-2.7-21.7-5.3-32.4-2-8-4.5-16.8-9.6-23.5-3.2-4.1-7.6-7.6-12.8-8.3-4-.6-8 .6-10.9 3.4-1.5 1.5-2.5 3.4-3 5.4-.3 2.2-.2 4.5.5 6.6 1.6 6.3 2.5 12.8 2.7 19.3l1.9-.4c-2.9-8.4-7-16.3-12.3-23.4-5.4-7.3-12.3-13.9-20.9-17.2-4.5-1.7-9.3-2.4-14.2-2.2-4.5.1-8.9.8-13.1 2.3-4.9 1.8-9.8 5.3-10.9 10.7-.8 4.5 1.2 9.1 5 11.6l1.1-1.1c-13.4-.8-25.3 7.7-31.2 19.4-3.1 6.1-4.5 12.9-3.9 19.8.5 4.5 2.6 9.8 7.5 10.9s9.6-2.1 12.5-5.7c1.8-2.2 3-4.8 4.9-7 1.4-1.6 3.1-2.8 5-3.7 8.3-3.8 17.7.5 22.4 7.7 3.3 5.1 4.5 11.4 4.4 17.4s-1 12.6-4.5 17.7c-2.2 3.2-5.5 5.6-9.5 5.6-3.7-.1-7.2-1.9-9.6-4.8-1.5-1.8-2.6-3.9-4.1-5.7-1.5-1.7-3.3-3.2-5.3-4.2-3.4-1.9-7.5-2.3-11.2-1.3-3.5 1-6.4 3.7-7.6 7.2-1.8 4.9-.4 10.4 1.6 15 3.4 7.2 8 13.7 13.6 19.4 4.5 4.7 9.8 8.6 15.6 11.6 9.4 4.6 19.9 6.2 30.2 4.5 2.2-.3 4.3-.8 6.4-1.4l-1.1-.4c-.6 19.2-4.5 38.4-13.4 55.5-7.2 13.8-17.5 26-30.7 34.5-11.9 7.7-25.8 11.6-40 11.3-20.8-.5-41.1-6-61.2-11.1-21.7-5.5-43.7-10.9-66.1-12-2.8-.1-5.7-.2-8.5-.2-.3 0-1.8.4-1.3 1 2.2 2.3 4.4 4.6 6.7 6.8.6.5 1.1 1.4 1.9 1.5s1.6.1 2.4 0c1.6.1 3.1.2 4.7.3 6.4.7 12.7 1.9 18.8 3.7 13.8 3.9 27 9.4 40.4 14.3 15.2 5.6 30.7 10.6 46.7 13.5 15.5 2.8 31.8 4 47.4 1.3 12.2-2.1 23.9-6.5 34.5-12.9 10.3-6.3 19.7-14.1 27.8-23.1 8-8.8 15-18.5 21-28.8 5.6-9.6 10.5-19.7 14.5-30.1 3.5-8.8 6.2-17.8 8.3-27 .8-3.6 1.4-7.2 1.9-10.8 0-.4.1-.8.1-1.2 0-.6.3-1.1.8-1.5 1.3-1.4 2.4-3 3.4-4.7 2-3.6 3.5-7.4 4.4-11.4 1-4.3 1.6-8.8 1.8-13.2.5-.8-1.5-.4-1.5.3z" fill="#000000"/><path d="m685 195.4c5.2 2.5 10.5 4.7 15.4 7.8 6.1 3.9 11.1 9.4 14.5 15.8 2.4 4.8 4.2 9.9 5.2 15.2.1.7 2.1.2 1.9-.5-1.8-8.7-5.2-17.1-11.1-23.8-4.5-4.8-9.9-8.7-15.8-11.5-2.8-1.4-5.7-2.6-8.6-4-.6-.3-2.4.6-1.5 1z" fill="#000000"/><path d="m749.3 214c.7 11.4 1.5 22.8 1.3 34.3l1.1-.8c-12.8.9-23.9 12.8-25.6 25.3-.5 3.9-.1 7.9 1.2 11.6.2.6 2.1.1 1.9-.5-4.3-12.2 2.2-26 13.1-32.4 2.8-1.7 5.9-2.7 9.1-3 .4 0 1.1-.3 1.1-.8.2-11.4-.5-22.9-1.3-34.3 0-.5-1.9-.1-1.9.6z" fill="#000000"/><path d="m730.5 264c-3.5-4.4-10.3-5.3-14.9-2.3-.3.2-.6.4-.2.7.3.2 1.1 0 1.4-.2 3.9-2.5 9.2-.9 12 2.6.3.4 2.1-.3 1.7-.8z" fill="#000000"/><path d="m568.8 515.6c-2.7-16.9-7-33.6-12.8-49.7-5.5-15.4-12.4-30.5-21.8-43.9-7.5-10.6-17.1-20.9-29.5-25.6-6.6-2.5-13.5-2.8-20.5-2.2-8.2.7-16.4 2.6-23.4 7.1-13.6 8.7-17.8 25.2-20.2 40.1-3.2 20.1-4 40.5-8.9 60.4-1.3 5.3-2.9 10.6-4.8 15.7-11.6.3-23.3 5.3-32.6 11.9-12.6 8.8-21.2 22.1-24.1 37.1-2.6 14 1 28.2 8.7 40.1 8.4 12.9 21.2 22.7 35.2 29 16.4 7.1 34.3 9.8 52 7.8 2.4-.3 4.8-.6 7.1-1 15.9-2.8 31.6-7.7 45.7-15.6 12.6-6.9 23.6-16.2 32.4-27.5 8.5-11.1 14.4-24 17.3-37.6 3.2-15.4 2.7-30.9.2-46.1z" fill="#000000"/><path d="m580.6 589.3c5.4-2.1 10.4-5.1 14.9-8.8 15.3-13.5 43.3-17.5 55.3 16.2 10.9 30.4-9.8 60.8 8.9 84.4-26.8 6.7-60.8 2.1-76.8-9.3 4.9-9.7 20.4-64.9-2.3-82.5z" fill="#fff"/><path d="m581 589.6c4.2-1.6 8.2-3.7 11.8-6.3 2.2-1.6 4.2-3.5 6.4-5.1 1.7-1.2 3.4-2.3 5.3-3.3 7.5-3.9 16.4-5.2 24.5-2.3 10.5 3.8 17 13.7 20.6 23.7 5.1 13.9 3.5 28.5 2 42.9-1.4 12.9-2.5 26.6 4.4 38.2.8 1.4 1.8 2.7 2.8 4l.8-.7c-14.5 3.4-29.5 4-44.2 1.7-6.7-.9-13.2-2.5-19.6-4.8-2.8-1-5.5-2.3-8.1-3.7-1.2-.6-2.3-1.3-3.4-2.1-.4-.3-.3-.2-.2-.6.1-.3.2-.5.3-.8 3-6.9 4.8-14.5 6.3-21.8 2.1-10.2 3.3-20.7 2.7-31.2-.6-9.3-2.8-19.4-9.5-26.3-.8-.8-1.6-1.5-2.5-2.2-.5-.4-2.2.4-1.8.7 9.7 7.6 11.9 21.2 12 32.9-.1 12.7-1.9 25.3-5.5 37.4-1 4.1-2.4 8.2-4.2 12 0 .1 0 .2.1.2 7.6 5.4 16.8 8.2 25.8 10.1 10.9 2.2 22.1 2.9 33.2 2.1 6.3-.4 12.6-1.4 18.7-2.9.2-.1 1.1-.4.8-.7-4.2-5.4-6.8-11.9-7.7-18.7s-.4-13.6.3-20.4c1.5-14.4 3.6-29.1-.8-43.2-3.3-10.6-9.6-21.2-20.1-25.9-8-3.6-17.2-2.9-25.2.2-4 1.6-7.7 3.7-11.1 6.4-2.4 2.1-5 4-7.7 5.8-2.3 1.4-4.6 2.6-7.1 3.6-.4.2-.7.3-1.1.4-1 .6.2 1 1 .7z" fill="#000000"/><path d="m705.7 665.5c0 44.2-76.1 63-118.4 50.7-15.8-4.6-29.4-8.7-41.3-12.2-18.7-5.6-33-9.8-44.4-12.8-23.3-6-34.9-6.7-48.9-2.6-22.8 6.8-37.9-18.2-47-42.4-1.2-3.3-2.3-6.5-3.4-9.7-3.2-10-5.7-20.2-7.6-30.6 27-6.7 49.6-8.3 69-6.6 15.8 1.3 31.2 5.3 45.7 11.7 20.6 9.1 37.1 21.9 52.9 34 8.1 6.2 16 12.2 24.2 17.3 4.2 2.7 8.6 5.1 13.2 7.3 11.4 5.6 24 8.5 36.7 8.5 6.7.1 13.3-.7 19.8-2.5 29.3-8.5 25.5-36.2-3-41.3.5-4.6.9-9.3 1-14 19 2.5 51.5 11.8 51.5 45.2z" fill="rgb(0,63,90)"/><path d="m704.7 665.6c-.1 21.5-18.4 35.8-36.6 43.6-21.6 8.8-45 11.9-68.1 9-5.9-.9-11.7-2.3-17.4-4.1-8.5-2.5-16.9-5-25.4-7.5-15.3-4.6-30.5-9.2-45.8-13.5-13.6-3.8-27.8-7.9-42-7.7-5.6.1-11.2 1-16.6 2.6-6.1 1.9-12.7 1.3-18.4-1.7-5.8-3.1-10.4-8.1-14.2-13.4-4.2-6.1-7.8-12.6-10.6-19.5-6.1-14.4-10.6-29.5-13.5-44.9-.2-1-.4-1.9-.5-2.9l-.8.8c24.2-5.9 49.4-9.1 74.2-5.9 12.7 1.6 25.1 4.9 36.9 9.8 11.8 5.1 23.1 11.4 33.6 18.8 10.7 7.4 20.8 15.5 31.2 23.2 10.8 8 22.2 15.6 34.8 20.5 11.9 4.6 24.8 6.5 37.5 5.5 9.7-.7 20.4-3.2 27.8-10 5-4.6 7.9-11.4 5.8-18.1-2.2-7.3-8.9-12.1-15.7-14.7-2.4-.9-4.8-1.5-7.2-1.9l.4.5c.5-4.7.9-9.3 1-14l-1.3.7c17.7 2.4 38 9.2 46.7 26.2 2.9 5.8 4.3 12.1 4.2 18.6 0 .9 1.9.5 1.9-.2 0-11.2-4-21.7-12.3-29.4-7.1-6.6-16.2-10.8-25.5-13.4-4.7-1.3-9.5-2.3-14.4-2.9-.3 0-1.3.2-1.3.7-.1 4.7-.5 9.4-1 14 0 .2.2.4.4.5 8 1.5 16.5 5.2 20.7 12.6 3.3 6 2.5 13.4-2 18.5-6.4 7.6-17.2 10.3-26.6 11.1-12.9 1.2-26-.6-38.1-5.4-12.4-4.9-23.6-12.4-34.3-20.3-10.1-7.5-20-15.4-30.3-22.6-10.3-7.3-21.3-13.6-32.9-18.8-10.9-4.7-22.3-8.1-34-10-23.4-3.8-47.4-1.8-70.5 3-3.3.7-6.7 1.5-10 2.3-.3.1-.9.4-.8.8 2.2 12.9 5.6 25.6 10.1 38 2.6 7.4 5.8 14.6 9.6 21.5 3.4 6.1 7.4 12 12.6 16.7 4.3 4.1 9.7 6.8 15.6 7.8 6.4.9 12.1-1.6 18.3-2.7 14.2-2.5 28.8 1.1 42.5 4.7 15.2 4 30.2 8.6 45.2 13.1 8.1 2.4 16.2 4.8 24.3 7.2 7.1 2.1 14.3 4.5 21.6 6 11.2 2.1 22.6 2.7 34 1.6 12-1 23.8-3.5 35.1-7.4 18.5-6.6 39.2-19.1 43.4-39.9.5-2.4.7-4.8.7-7.3-0-.9-2-.5-2 .2z" fill="#000000"/><path d="m489.9 608.4c-.7 0-1.2.6-1.2 1.2s.5 1.1 1.1 1.2c.7.1 1.2-.4 1.3-1.1s-.4-1.2-1.1-1.3z" fill="#000000"/><path d="m489.9 617.8c.4-.1.6-.4.5-.8 0-.1-.1-.2-.1-.2-.1-.2-.5-.3-.7-.4-.6.2-.7.6-.5 1.1.2.1.5.3.8.3z" fill="#000000"/><path d="m482.9 623.5c-.8-.3-1.2.3-1.3 1 0 .5.3 1 .8 1 .6.1.9-.3 1.1-1-.1-.2-.2-.9-.6-1z" fill="#000000"/><path d="m481 617.3c.1.7.6 1.1 1.3 1.1.7-.1 1.1-.6 1.1-1.3 0 0 0 0 0-.1 0-.8-.7-1-1.3-1s-1.1.5-1.1 1z" fill="#000000"/><path d="m482.8 610.6c.5-.2.8-.7.7-1.2 0-.5-.4-.9-.9-.9 0 0 0 0-.1 0-.5 0-.9.4-.9.8v.1c.1.7.4 1.4 1.2 1.2z" fill="#000000"/><path d="m500 607.2c.1.1.2.1.3.1z" fill="#000000"/><path d="m497.6 608.7c-.7-.4-1.2.1-1.5.6-.4.7 0 1.2.6 1.5.7.3 1.2 0 1.6-.6.2-.5-0-1.2-.7-1.5.1 0 .1 0 0 0z" fill="#000000"/><path d="m467.7 630.6c-.7.3-1.7.6-1.8 1.7-.1.7.2 1.3 1 1.3 1-.1 1.7-.9 1.8-1.9 0-.5-.3-.9-1-1.1z" fill="#000000"/><path d="m463.3 642.3c-.6.1-1.1.6-1 1.3v.1c.1.6.6 1.1 1.2 1h.1c.7-.1 1-.7.9-1.4 0-.6-.5-1-1.1-1 0 0 0 0-.1 0z" fill="#000000"/><path d="m468.6 624.6c0-.5-.2-1-.7-1.1-.6-.2-.9.2-1.1.7s0 1 .4 1.3c.8.3 1.3-.1 1.4-.9z" fill="#000000"/><path d="m468 603.5c.3-.1.5-.7.7-1-.2-.9-.7-1.3-1.3-1.2-.3.1-.6.7-.6 1.1 0 .5.3 1 .9 1 .1.2.2.2.3.1z" fill="#000000"/><path d="m475 603.5c.5.1 1-.3 1.1-.8 0-.1 0-.3 0-.4-.1-.6-.7-1.1-1.3-1-.5.2-.9.4-.8 1-.2.6.4 1.1 1 1.2z" fill="#000000"/><path d="m473.8 610c.2.6.8 1 1.4 1 .8 0 1-.6 1-1.4-.4-.6-.8-1.4-1.8-1.1-.6.1-.9.7-.8 1.3.2.1.2.1.2.2z" fill="#000000"/><path d="m475.6 616.1c-.8-.4-1.8-.4-2.1.4s.4 1.5 1.2 1.9c.7.3 1.2-.1 1.6-.7.3-.5.1-1.2-.4-1.5-.2 0-.2-.1-.3-.1z" fill="#000000"/><path d="m482.1 603.4c.6.1 1.2-.3 1.3-.9v-.1s0 0 0-.1c-.8-.2-1.5-.3-2.3-.5 0 .1-.1.2-.1.2-.1.7.3 1.3 1.1 1.4-.1 0-.1 0 0 0z" fill="#000000"/><path d="m479 621.6c.3-.1.5-.7.6-.9-.1-.8-.5-1.1-1-1.1-.5.1-.9.5-.8 1 0 .7.4 1.3 1.2 1z" fill="#000000"/><path d="m480.6 605.4c-.1-.6-.6-1-1.2-.9-.1 0-.2 0-.2.1-.7.1-1.2.6-1.2 1.3-.1.6.3 1.1.9 1.1h.3c.8 0 1.4-.6 1.4-1.4 0-.1 0-.2 0-.2z" fill="#000000"/><path d="m472.3 606.3c.2-.6 0-1.2-.6-1.5h-.1c-.5-.2-1 0-1.2.4-.4.5-.3 1.1.2 1.5.1 0 .1.1.2.1.4.3 1.1.1 1.5-.5-.1 0 0 0 0 0z" fill="#000000"/><path d="m471.2 614.5c.7 0 1.1-.6 1.2-1.4-.1-.6-.6-1-1.2-1-.1 0-.1 0-.2 0-.5 0-.9.5-.9 1 0 .8.4 1.4 1.1 1.4z" fill="#000000"/><path d="m470.8 627.2c-.5.1-.9.6-.8 1.1.1.7.5 1.3 1.3 1.2s1-.7 1-1.4c-.1-.6-.6-1-1.2-.9-.1-.1-.2-.1-.3-0z" fill="#000000"/><path d="m471.2 619.6c-.7 0-1.2.5-1.3 1.2 0 .6.4 1.1 1 1.2h.2c.6 0 1.2-.4 1.3-1.1 0-.7-.6-1.3-1.2-1.3z" fill="#000000"/><path d="m471 634.6c-.6.1-1.1.7-1 1.3 0 .8.7 1 1.3 1s1.1-.5 1.1-1.1c0-.1 0-.1 0-.2-.2-.6-.7-1-1.4-1z" fill="#000000"/><path d="m500.1 612.8c-.2.8.4 1.2 1.1 1.2.5 0 .9-.3.9-.7 0-.7-.3-1.1-.9-1.1-.3 0-1 .3-1.1.6z" fill="#000000"/><path d="m444.9 645.2c-.7.1-1.2.7-1.1 1.4-.1.7.5 1.4 1.2 1.4h.4c.8-.1 1-.7 1.2-1.4-.3-.9-.6-1.6-1.7-1.4z" fill="#000000"/><path d="m446.3 639.2c.1-.4-.1-.8-.5-.9-.1 0-.2 0-.3 0-.8 0-1.5.7-1.6 1.5-.1.6.3.9.9.9.7 0 1.4-.6 1.5-1.5z" fill="#000000"/><path d="m438.6 639.7c.1-.7-.2-1.3-1-1.3-.6-.1-1.2.3-1.3.9v.1c-.1.6.4 1.2 1 1.3.7 0 1.2-.2 1.3-1z" fill="#000000"/><path d="m441.4 636.8c.6 0 .9-.4 1-.9 0-.5-.2-.9-.7-1.2-.4.1-.9.2-1.3.2-.1.2-.2.3-.2.5 0 .8.5 1.3 1.2 1.4z" fill="#000000"/><path d="m437.7 646.1c-.5-.2-1.1 0-1.4.5 0 .1-.1.1-.1.2-.2.6.2.9.7 1 .7.2 1.2-.1 1.8-1.6-.1.3-.6 0-1-.1z" fill="#000000"/><path d="m441 642.2c-.6 0-1 .5-1 1v.3c.1.6.7 1.1 1.3 1.2.7.1 1.1-.4 1.2-1.1-.1-.9-.5-1.5-1.5-1.4z" fill="#000000"/><path d="m456.3 642.2c-.4-.1-.8.1-.9.5v.3c-.1.8.4 1.6 1.3 1.7.5.1.8-.4.9-.8.1-.8-.4-1.5-1.1-1.6-.1-.1-.2-.1-.2-.1z" fill="#000000"/><path d="m459.8 646.1c-.5.1-.8.5-.8 1 .1.5.5.8.9.8.6 0 1-.5 1-1.1 0-.1 0-.1 0-.2-.1-.6-.6-.6-1.1-.5z" fill="#000000"/><path d="m459.7 640.7c.6.1 1.2-.4 1.4-1 .1-.6-.4-1.2-1-1.3s-1.1.2-1.3.8v.2c-.1.6.2 1.2.8 1.3z" fill="#000000"/><path d="m446.1 654.7c.1-.6-.4-1.2-1-1.3-.7 0-1.2.3-1.3 1 0 .7.2 1.3 1 1.3.6.1 1.2-.4 1.3-1z" fill="#000000"/><path d="m460 632.9c.6 0 1-.5 1-1.1 0-.1 0-.1 0-.2-.1-.5-.7-.6-1.1-.5-.5.1-.8.5-.8 1s.4.8.9.8z" fill="#000000"/><path d="m445.2 663.5c.8-.1 1.4-.8 1.3-1.6 0 0 0 0 0-.1-.2-.7-.7-1.3-1.3-1.2-.8 0-1.3.7-1.3 1.5v.2c.1.6.6 1.2 1.3 1.2z" fill="#000000"/><path d="m451.7 633.6c.8.4 1.6.3 2-.9 0-.5-.2-1-.5-1.3-.9.4-1.8.7-2.8 1.1 0 .6.7.9 1.3 1.1z" fill="#000000"/><path d="m442.3 657.9c-.1-.6-.7-.9-1.2-.8-.1 0-.2.1-.3.1-.5.1-.8.6-.7 1.1 0 .6.6 1.1 1.2 1.1h.1c.7-.3 1.1-.8.9-1.5z" fill="#000000"/><path d="m441 665.5c.2.2.5.4.8.4.4 0 .5-.4.3-.7l-.8-.5c-.2.2-.4.6-.3.8z" fill="#000000"/><path d="m441.4 649.4c-.7.2-1.2.6-1.1 1.3 0 .6.5 1.1 1.1 1.1h.2c.5-.1.9-.5.9-1 .1-.8-.3-1.4-1.1-1.4.1 0 .1 0 0 0z" fill="#000000"/><path d="m493.6 606.9c.4-.2.8-.4.7-1-.3-.8-.7-1-1.4-.8-.5.2-.9.5-.7 1 .1.5.6.9 1.2.8.1.1.2 0 .2 0z" fill="#000000"/><path d="m493.3 614.7c.6.1 1.2-.3 1.3-.9v-.1c-.1-.7-.2-1.3-1-1.3-.6-.1-1.2.3-1.3 1v.1c-.1.6.3 1.2.9 1.3 0-.1.1-.1.1-.1z" fill="#000000"/><path d="m486.3 612.1c-.8 0-1.3.4-1.3 1.1s.5 1.2 1.2 1.2h.1c.6-.1 1.1-.7 1-1.4-.1-.4-.5-.8-1-.9z" fill="#000000"/><path d="m486.1 604.7c-.6 0-1.1.5-1.1 1.1v.2c.1.5.5.9 1 .9.7.1 1.2-.4 1.3-1-.1-.8-.5-1.3-1.2-1.2z" fill="#000000"/><path d="m485.9 619.7c-.4.2-.8.5-.9 1-.1.6.2 1.1.8 1.2h.3c.6 0 1.1-.5 1.1-1.1 0-.1 0-.1 0-.2-.1-.6-.5-1.1-1.3-.9z" fill="#000000"/><path d="m504.6 610.8c.6.1 1.3-.3 1.4-1 0-.1 0-.2 0-.2-.7-.3-1.3-.5-2-.8-.2.2-.3.4-.3.7-.1.6.2 1.2.9 1.3z" fill="#000000"/><path d="m456 636.7c1 .1 1.3-.3 1.3-.8.1-.7-.4-1.3-1.1-1.3 0 0 0 0-.1 0-.5 0-.9.3-1 .8v.1c.1.5.4 1.1.9 1.2z" fill="#000000"/><path d="m451.2 654.5c0 .7.6 1.1 1.2 1.2.7 0 1.2-.6 1.2-1.2s-.4-1.2-1-1.2h-.1c-.7 0-1.3.5-1.3 1.2z" fill="#000000"/><path d="m452.9 647.7c.2-.1.3-.5.4-.7 0-.4-.3-.7-.7-.7-.1 0-.2 0-.3 0-.3.2-.4.4-.4.7 0 .4.3.7.7.7z" fill="#000000"/><path d="m456.3 649.5c-.5-.1-.9.3-1 .8v.1c-.1.6.3 1.3 1 1.4h.1c.5.1.9-.3 1-.8.1-.7-.4-1.4-1.1-1.5z" fill="#000000"/><path d="m452.5 638.3c-.7 0-1.2.5-1.2 1.2s.5 1.2 1.2 1.2c.6.1 1.1-.3 1.2-.9 0-.1 0-.2 0-.3 0-.5-.5-1.1-1.2-1.2z" fill="#000000"/><path d="m448.8 634.5c-.5-.1-.9.3-.9.7v.2c0 .7.3 1.4 1.1 1.2.3-.1.6-.7.8-.9-.2-.7-.5-1.1-1-1.2z" fill="#000000"/><path d="m448.6 642.3c-.6-.1-1.2.4-1.3 1 0 .7.4 1.2 1.1 1.3.6 0 1.2-.4 1.3-1.1-.1-.6-.3-1.2-1.1-1.2z" fill="#000000"/><path d="m478.9 629.5c.5-.1.7-.6.7-1.2 0-.5-.4-.9-.9-.9 0 0 0 0-.1 0-.5 0-.9.3-.9.8v.1c.1.7.3 1.4 1.2 1.2z" fill="#000000"/><path d="m448.5 658.7c.5.2.9-.1 1-.6-.1-.3-.2-.7-.4-.8-.4-.1-.8 0-.9.4 0 .1-.1.2-.1.3 0 .3.1.6.4.7z" fill="#000000"/><path d="m448.9 649.5c-.6-.2-.9.2-1 .7-.1.7.1 1.3.9 1.3.5 0 .8-.4.9-.9 0-.4-.3-.9-.8-1.1z" fill="#000000"/><path d="m478.8 614.5c.5-.1.9-.5.8-1 0-.7-.5-1.3-1.3-1-.3.1-.5.8-.5 1.2 0 .5.3.8.8.9 0 0 .1-.1.2-.1z" fill="#000000"/><path d="m463.7 627.3c-.6-.1-1.2.3-1.3.9v.1c-.1.6.3 1.2.9 1.3h.1c.7 0 1.2-.2 1.3-1 .1-.6-.2-1.2-.8-1.3-.1 0-.2 0-.2 0z" fill="#000000"/><path d="m464.5 635.6c-.1-.5-.5-.9-1-.8-.6 0-.8.4-.8 1.1.2.2.5.8.8.9.8.1 1-.5 1-1.2z" fill="#000000"/><path d="m476.1 624.4c-.1-.6-.6-1.1-1.3-1h-.1c-.5.1-.9.5-.9 1 0 .7.3 1.3 1.1 1.3.7 0 1.2-.6 1.2-1.3z" fill="#000000"/><path d="m474 632.2c.1.3.3.5.6.6.6.2.8-.2 1-.7 0-.5-.3-.9-.8-.8-.6-0-1 .3-.8.9z" fill="#000000"/><path d="m467.3 638.4c-.6 0-1.1.6-1 1.2v.1c.1.6.6 1.1 1.2 1h.1c.8 0 1-.6 1-1.3 0-.6-.5-1.1-1.2-1z" fill="#000000"/><path d="m565 668.5c-.5.2-.7.7-.6 1.3.1.7.6 1.1 1.3.8.4-.2.6-.6.4-1 0-.1-.1-.1-.1-.2-.3-.4-.6-.7-1-.9z" fill="#000000"/><path d="m565 662.9c.6 0 1-.5 1-1 0-.1 0-.2-.1-.3-.2-.4-.5-.8-1-.9-.6-.1-1.2.3-1.2.9v.2c0 .8.6 1.1 1.3 1.1z" fill="#000000"/><path d="m567 672.9c-.1 1.1.8 1.3 1.6 1.2.7 0 1.3-.3 1.3-1.1-.1-.8-.7-1-1.5-1-.7-.2-1.3.2-1.4.9 0-.1 0 0 0 0z" fill="#000000"/><path d="m564.8 675.6c-.6.1-1.1.6-1 1.2v.2c0 .5.5.9 1 .9h.2c.3-.2.6-.4 1-.7.1-.1.1-.3.1-.4-.2-.7-.6-1.2-1.3-1.2z" fill="#000000"/><path d="m576.7 659.5c.3-.1.5-.7.7-1-.2-.9-.7-1.3-1.3-1.2-.3.1-.6.7-.6 1.1 0 .5.3 1 .9 1 .1.2.2.2.3.1z" fill="#000000"/><path d="m576.2 666.7c.9.1 1-.6 1.2-1.2-.1-.6-.3-1-.8-1.1-.9-.2-1.1.6-1.1 1.2-.1.6.2 1 .7 1.1z" fill="#000000"/><path d="m568.7 666.6c.3-.1.5-.7.6-.9 0-.9-.4-1.2-.9-1.2s-.9.4-.9.9v.1c-0 .7.4 1.3 1.2 1.1z" fill="#000000"/><path d="m569.8 658.4c0-.7-.6-1.2-1.2-1.2-.5 0-.9.3-1 .8-.2.6.2 1.2.8 1.4h.1c.5.2 1-.1 1.2-.5.1-.2.1-.3.1-.5z" fill="#000000"/><path d="m543.8 691.6c0-.7-.5-1.2-1.2-1.3-.7-.2-1.4.2-1.5.9v.5c0 .6.6 1.1 1.2 1.1h.2c.6-0 1.2-.5 1.3-1.2z" fill="#000000"/><path d="m542.2 698.3c-.3.2-.4.4-.4.7 0 .4.3.7.7.7.1 0 .2 0 .3-.1.2-.1.3-.5.5-.8-.3-.4-.6-.7-1.1-.5z" fill="#000000"/><path d="m542.1 683.4c-.3.1-.5.8-.6 1.2 0 .5.4.9 1 .9.5-.1.9-.5.9-1-.1-.8-.5-1.4-1.3-1.1z" fill="#000000"/><path d="m543.7 677.2c-.2-.9-.7-1.5-1.6-1.5-.6 0-.8.6-.7 1.1.1.7.7 1.2 1.3 1.2.4.1.9-.2 1-.6 0-.1 0-.1 0-.2z" fill="#000000"/><path d="m542.6 661.3c-.5-.2-.9.2-.9.7-.1.5.3.8.8.8.5-.1.9-.3.8-.9-.3-.3-.5-.5-.7-.6z" fill="#000000"/><path d="m541 669.6c.1.4.5.7.9.8.8 0 1.7-.2 1.7-1.2 0-.7-.6-1.1-1.3-1.1-.8.1-1.4.6-1.3 1.5z" fill="#000000"/><path d="m556 661.9c.1.6.6 1.1 1.3 1h.1c.5 0 .9-.5.8-1 0-.7-.6-1.2-1.2-1.2-.5-.1-1 .3-1 .8z" fill="#000000"/><path d="m552.8 657.8c-.2.5.1.9.6 1 .3-.1.7-.2.7-.4.2-.4 0-.8-.4-1-.1 0-.2-.1-.2-.1-.2.1-.5.2-.7.5z" fill="#000000"/><path d="m557.2 668.3c-.7 0-1.2.6-1.2 1.2 0 .7.6 1.2 1.2 1.2.7 0 1-.5 1.2-1.2-.1-.8-.5-1.3-1.2-1.2z" fill="#000000"/><path d="m546.5 694.4c-.6-.2-.9.3-1 .7-.2.5 0 1.2.6 1.4h.1c.6.1.9-.3 1-.7.2-.5 0-1.1-.5-1.4 0 0-.1 0-.2 0z" fill="#000000"/><path d="m553.5 666.8c.7 0 1.2-.4 1.3-1.1.1-.6-.3-1.2-1-1.3h-.1c-.6-.1-1.1.2-1.2.8v.2c-.2.7.3 1.2 1 1.4-.1 0-.1 0 0 0z" fill="#000000"/><path d="m579.7 668.3c-.5-.1-.9.2-1 .7v.2c-.1 1 .6 1.4 1.4 1.6h.3.2c.3-.2.5-.4.5-.8 0-.9-.6-1.6-1.4-1.7z" fill="#000000"/><path d="m579.6 662.9c.6.2 1.2-.1 1.4-.7 0-.1 0-.1 0-.2 0-.8-.4-1.3-1.1-1.4-.6 0-1.2.5-1.2 1.2v.1c0 .5.4 1 .9 1z" fill="#000000"/><path d="m594.9 668.1c-.7.1-1.1.4-1.1 1 .7 0 1.5 0 2.2.1-.1-.7-.5-1-1.1-1.1z" fill="#000000"/><path d="m583.6 666.7c.7 0 1.2-.6 1.2-1.3-.1-.7-.7-1.1-1.3-1h-.1c-.5.1-.9.5-.9 1-0 .7.3 1.4 1.1 1.3z" fill="#000000"/><path d="m571 669.5c0 .7.5 1.1 1.2 1.2.7 0 1.2-.5 1.2-1.2 0-.6-.4-1.2-1-1.2h-.1c-.8 0-1.3.5-1.3 1.2z" fill="#000000"/><path d="m572.6 662.6c.3-.1.5-.7.6-.9 0-.9-.4-1.2-.9-1.2s-.9.4-.9.9v.1c-0 .8.4 1.4 1.2 1.1z" fill="#000000"/><path d="m590 665.6c.1.8.6 1.1 1.4 1 .5-.1.9-.5.9-1.1-.6-.3-1.2-.7-1.8-1-.4.3-.5.7-.5 1.1z" fill="#000000"/><path d="m585.9 662.3c.1.3.7.6 1.1.6.2 0 .3 0 .5-.1-.3-.2-.7-.4-1-.6-.2-.1-.4-.3-.6-.4z" fill="#000000"/><path d="m587.5 668.4c-.9-.2-1.1.5-1 1.1.6-.1 1.2-.2 1.8-.2 0-.4-.4-.8-.8-.9z" fill="#000000"/><path d="m538.8 681.7c.6-.1 1.1-.6 1-1.3v-.1c-.3-.7-.7-1.2-1.5-.8-.4.2-.7.6-.7 1.1-.1.6.3 1.1.9 1.2 0-.1.1-.1.3-.1z" fill="#000000"/><path d="m539.1 701.5c-.3-.2-.7-.2-1 0l1.7.5c-.2-.2-.5-.4-.7-.5z" fill="#000000"/><path d="m546.2 664.5c-.5.1-.9.5-.8 1.1.1.7.5 1.3 1.3 1 .4-.2.6-.6.6-1-.2-.8-.5-1.2-1.1-1.1z" fill="#000000"/><path d="m546.4 673.7c.4 0 .8-.4.8-.8 0-.6-.6-1.2-1.2-1.1 0 0 0 0-.1 0-.2 0-.4.4-.5.7 0 .6.2 1.2 1 1.2z" fill="#000000"/><path d="m546.5 687.3c-.3 0-.6.1-.8.3-.3.5-.1.9.4 1.1.3-.1.7-.2.8-.4.2-.3.1-.8-.2-1 0 .1-.1 0-.2 0z" fill="#000000"/><path d="m546.6 679.5c-.8-.3-1.2.4-1.2 1.1 0 .5.3.9.7 1 .7 0 1.1-.3 1.1-.9 0-.5-.3-1.1-.6-1.2z" fill="#000000"/><path d="m545.6 702.1c-.5.2-.9.5-.7 1 .1.2.2.4.3.5l.9.3c.2-.6.4-1.1.6-1.7-.4-.2-.8-.2-1.1-.1z" fill="#000000"/><path d="m549 691.5c0 .7.5 1.3 1.1 1.3.5 0 .9-.3 1-.8v-.1c.1-.7-.4-1.3-1.1-1.3-.6-.1-1 .3-1 .9 0-.1 0-.1 0 0z" fill="#000000"/><path d="m534.4 699.1c-.1.5.1 1 .6 1.2.5 0 1-.3 1.1-.9.2-.5-.1-.9-.5-1.1h-.1c-.7-.1-1 .3-1.1.8z" fill="#000000"/><path d="m534.7 685.4c.6.1 1.2-.4 1.3-1 0-.7-.3-1.2-1-1.3-.6-.1-1.2.2-1.3.8v.2c-.1.6.3 1.2.9 1.3z" fill="#000000"/><path d="m535 690.5c-.5-.1-.9.3-1 .8v.1c-.1.6.3 1.2 1 1.4h.1c.5.1.9-.3 1-.8.1-.8-.4-1.4-1.1-1.5z" fill="#000000"/><path d="m535.4 668.3c-.6-.2-.9.2-1 .7-.1.6-.1 1.3.8 1.2.4 0 .7-.5.9-.7 0-.6-.2-1-.7-1.2z" fill="#000000"/><path d="m535 678c.6 0 1.1-.5 1-1.1 0-.1 0-.1 0-.2 0-.6-.6-1.1-1.2-1h-.1c-.6.1-1.1.6-1 1.2v.1c.1.7.7.9 1.3 1z" fill="#000000"/><path d="m538.9 694.3c-.5-.1-1 .2-1.1.7-.2.6.1 1.3.8 1.5h.1c.5.1 1-.2 1.1-.6.2-.6-.1-1.3-.7-1.5-.1-.1-.2-.1-.2-.1z" fill="#000000"/><path d="m539.8 665.7c.1-.7-.4-1.2-1.1-1.3-.7 0-1.1.6-1.1 1.3v.1c0 .5.3 1 .8 1 .6.1 1.2-.2 1.3-.8.1-.2.1-.3.1-.3z" fill="#000000"/><path d="m538.4 687.1c-.4.2-.9.4-.7 1 .1.6.6.9 1.2.8.1 0 .2 0 .2-.1.5-.1.8-.5.7-1-.1-.6-.7-.9-1.2-.8 0 .1-.1.1-.2.1z" fill="#000000"/><path d="m539.3 672.2c-.5-.3-1-.1-1.3.3-.1.1-.1.3-.1.4-.1.5.3.9 1 1.1.3-.2.8-.3 1-.7s0-.9-.4-1.1c-.2 0-.2 0-.2 0z" fill="#000000"/><path d="m560.8 672.1c-.5 0-.9.4-.9.9 0 .8.5 1 1.2 1 .5 0 .9-.4.9-.9 0-.8-.6-1-1.2-1z" fill="#000000"/><path d="m561.3 679.4c-.6-.1-1.2.3-1.3 1v.1c-.1.4.1.9.5 1.1.6-.5 1.1-1 1.7-1.5-.2-.5-.5-.7-.9-.7z" fill="#000000"/><path d="m557.6 675.7c-1.1-.2-1.5.1-1.6.6-.2 1 .4 1.5 1.3 1.5.5 0 .9-.3.9-.8v-.1c0-.5-.2-.9-.6-1.2z" fill="#000000"/><path d="m561.3 658.7c.4 0 .7-.3.7-.7 0-.1 0-.2-.1-.3-.1-.2-.5-.3-.8-.5-.4 0-.7.4-.7.8v.2c.3.4.6.5.9.5z" fill="#000000"/><path d="m557.6 683.3c-.9-.1-1 .6-1.1 1.2 0 .2.1.5.2.7.5-.5.9-1 1.4-1.5-.1-.2-.3-.3-.5-.4z" fill="#000000"/><path d="m561 664.5c-.5-.1-1 .3-1.1.9v.3c.1.6.7 1.1 1.3 1h.1c.5 0 .9-.4.9-.9-.1-.7-.6-1.2-1.2-1.3z" fill="#000000"/><path d="m553.6 681.7c.7 0 1.2-.6 1.2-1.3-.1-.6-.6-1.1-1.3-1h-.1c-.5.1-.9.5-.9 1-0 .7.3 1.3 1.1 1.3z" fill="#000000"/><path d="m553.6 687.1c-.5 0-.9.4-.9.9 0 .2 0 .3.1.4.1.3.5.5.8.5.3-.4.6-.8.9-1.2 0-.5-.5-.7-.9-.6z" fill="#000000"/><path d="m550 683.1c-.7 0-1.3.2-1.3 1-.1.6.3 1.2.9 1.3h.1c.7.1 1.3-.4 1.4-1.1-.1-.7-.4-1.2-1.1-1.2z" fill="#000000"/><path d="m551.1 676.1c-.1-.5-.5-.8-1-.7-.6.2-1.2.6-1.3 1.3-.1.9.6 1.1 1.3.8.6-.2 1.1-.6 1-1.4z" fill="#000000"/><path d="m549.8 668.1c-.8.1-1.2.6-1 1.4.1.4.5.8.9 1 .6.1 1.2-.4 1.3-1 0-.1 0-.1 0-.2.1-.8-.5-1.1-1.2-1.2z" fill="#000000"/><path d="m549.9 663c.6.1 1.1-.4 1.2-1 0-.1 0-.1 0-.2 0-.7-.5-1.2-1.2-1.2-.7 0-1.1.5-1.2 1.2s.5 1.2 1.2 1.2c-.1 0-.1 0 0 0z" fill="#000000"/><path d="m554.6 672.8c0-.8-.6-.9-1.3-.7-.5.1-.7.6-.6 1.1.2.5.6.7 2.1.5-.4 0-.1-.4-.2-.9z" fill="#000000"/><path d="m519.8 692.5c.5 0 .9-.4.9-.9s-.3-.9-.8-1.1c-.4-.1-.9.1-1 .6v.2c-.2.7 0 1.2.9 1.2z" fill="#000000"/><path d="m523.7 686.8c-.3 0-.6.1-.8.3-.3.6-.2 1.3.4 1.6h.1c.4.2.9 0 1.2-.6.2-.6-.1-1.2-.7-1.3-.1 0-.2 0-.2 0z" fill="#000000"/><path d="m523.1 695.4c.2.2.5.4.8.3.4-.1.6-.4.5-.8 0-.1-.1-.2-.1-.3-.1-.2-.5-.3-.8-.4-.4.4-.7.8-.4 1.2z" fill="#000000"/><path d="m530.1 687.7c-.2.4 0 .8.4 1 0 0 .1 0 .1.1.7.3 1.1-.2 1.4-.8.1-.6-.2-.9-.8-.9-.4-0-.8.2-1.1.6z" fill="#000000"/><path d="m523.9 679.5c-.6-.2-.9.2-1.1.7s0 1 .4 1.3c.8.3 1.3-.1 1.4-.8 0-.6-.3-1.1-.7-1.2z" fill="#000000"/><path d="m529.8 680.4c-.1.7.2 1.3 1 1.3.6.1 1.2-.4 1.4-1 .1-.6-.4-1.2-1-1.3-.6-.1-1.1.2-1.3.8-.1 0-.1.1-.1.2z" fill="#000000"/><path d="m531.5 673.7c.1 0 .3-.4.5-.7-.3-.3-.6-.7-1-.8-.5-.1-1 .2-.7.8.4.4.8.6 1.2.7z" fill="#000000"/><path d="m520.2 685.6c.5 0 .9-.4.9-.9.1-.7-.4-1.3-1-1.4-.5-.1-.9.1-1.1.6-.1.2-.1.3 0 .5 0 .6.5 1.1 1.2 1.2z" fill="#000000"/><path d="m531 696.7c.6-.1 1.1-.7 1.1-1.3-.1-.6-.7-1.1-1.3-1-.8 0-1 .7-1 1.3s.5 1.1 1.1 1.1c-0-.1.1-.1.1-.1z" fill="#000000"/><path d="m528.4 676.6c-.3-.7-.7-1.2-1.5-.9-.5.1-.8.7-.6 1.1.2.7.7 1.2 1.5.9.4-.2.7-.7.6-1.1z" fill="#000000"/><path d="m527.3 685.5c.6-.1 1.1-.7 1-1.3 0-.8-.7-1-1.3-1s-1 .5-1 1.1v.2c.1.6.6.9 1.3 1z" fill="#000000"/><path d="m527 698.1c-.1 0-.2 0-.3.1l1.5.5c-.2-.5-.7-.7-1.2-.6z" fill="#000000"/><path d="m527.3 692.9c.7-.1 1-.6 1-1.3-.1-.6-.7-1.1-1.3-1s-1.1.6-1 1.2v.1c0 .8.6 1.1 1.3 1z" fill="#000000"/><path d="m512.3 692.9c.7-.1 1-.6 1-1.3-.1-.6-.7-1.1-1.3-1s-1.1.6-1 1.2v.1c0 .8.7 1.1 1.3 1z" fill="#000000"/><path d="m516.5 688.9c.5-.1.8-.6.7-1.1-.3-.6-.8-1-1.5-.7-.4.2-.8.6-.6 1.1.1.6.7.9 1.3.7 0 .1 0 0 .1 0z" fill="#000000"/><path d="m516.2 694.3c-.4-.1-.9.1-1.1.5l2 .6c0-.5-.4-1-.9-1.1z" fill="#000000"/><path d="m387.8 607.1c-17.8.1-133.8 16.6-133.8 108.7 0 34.9 51.5 62 108.7 62 115.3 0 152.1-119.6 203.6-119.6 14.1 0 26.4 7.7 26.4 7.7 18.7-15.8 17.4-64-10.9-81.5-103.7 0-163 143.6-237.2 143.6s-65-89.2 45.1-113.1c-1.3-2.5-1.9-5.2-1.9-7.8z" fill="rgb(0,63,90)"/><path d="m388.2 606.5c-10.3.1-20.7 2.2-30.7 4.5-16.7 3.7-32.8 9.7-48 17.7-16.6 8.9-31.8 21.1-42.1 37-5.5 8.4-9.5 17.7-11.8 27.5-1.3 5.5-2.1 11.2-2.4 16.9-.3 5.3-.2 10.5 1.2 15.6 2.9 10.5 10.2 19.2 18.6 25.9 10.5 8.4 22.9 14.3 35.6 18.5 27.5 9.1 56.9 10.9 85.4 5.2 22-4.5 42.5-14.2 60.7-27.2 16.6-11.8 31.2-26.1 45.3-40.8 11.8-12.3 23.3-25.5 36.8-36 5.3-4.2 11.1-8 17.5-10.3 8.9-3.2 18.2-2.5 27 .5 3.7 1.2 7.3 2.8 10.7 4.9.5.2 1.1.1 1.5-.3 6.8-5.8 10.2-14.7 11.7-23.2 1.8-10.3 1-20.9-2.1-30.9s-8.9-19.3-17.3-25.7c-1-.9-2.1-1.7-3.3-2.3-1.2-.2-2.4-.2-3.6-.1-2.7.1-5.3.2-8 .5-5 .5-10 1.3-15 2.5-20 4.6-38.5 14.5-55.1 26.3-17.4 12.3-33 26.8-48.3 41.6-14.7 14.2-29 28.8-44.6 42.1-13.1 11.2-27.5 22-44.1 27.3-7.6 2.5-15.6 3.5-23.5 3.1-8-.4-16-1.9-23.2-5.5-11.4-5.6-19.1-16.1-19.7-28.9-.7-14.8 7.3-28.7 17.1-39.2 14.9-16.1 35.3-26.5 56-33.1 6.4-2 12.8-3.7 19.3-5.2.3-.1 1-.4.8-.8-1.1-2.4-1.7-4.9-1.7-7.5 0-.9-1.9-.5-1.9.2 0 2.7.6 5.4 1.8 7.9l.8-.8c-23.3 5.1-46.6 13.9-65.5 28.8-12.4 9.9-23.7 23-27.4 38.8-2.8 12-.3 24.8 8.7 33.6 10.8 10.6 27.5 13.7 42.2 12.9 16.2-.9 31.2-8.4 44.3-17.5 16-11.1 30.2-24.7 44.1-38.2 15.4-14.9 30.5-30.1 46.8-43.9 16-13.5 33.3-25.9 52.6-34.1 9.5-4.1 19.5-7 29.8-8.6 2.6-.4 5.2-.7 7.8-.9 1.3-.1 2.6-.2 3.9-.2 1.4-.2 2.7-.2 4.1-.1 1.1.3 2.4 1.5 3.3 2.2 1.2.9 2.3 1.8 3.3 2.8 2 1.8 3.7 3.9 5.3 6 6.4 8.7 9.9 19.3 10.9 30 .9 10-.2 20.6-4.6 29.8-1.8 3.8-4.3 7.2-7.4 9.9l1.5-.3c-8.5-5.3-19.4-8.4-29.3-7.7-6.1.5-12.1 2.4-17.4 5.4-13.5 7.3-24.5 18.9-35 29.8-13.4 13.9-26.5 28.1-41.1 40.8-16.2 14.1-34.3 26.2-54.4 33.9-25 9.5-52.2 11.6-78.6 7.8-14.9-2-29.4-6.2-43-12.5-11.2-5.3-22-12.3-29.9-22-3.4-4-6-8.6-7.7-13.6-1.6-5-2.3-10.2-1.9-15.4.3-10.9 2.6-21.7 6.7-31.8 7.4-17.9 20.8-32.4 36.7-43.2 14.6-9.9 31.2-16.9 48.1-21.8 11.9-3.6 24.2-6 36.6-7.1 1.5-.1 3.1-.2 4.4-.2.7-.1 2-1.3.7-1.3z" fill="#000000"/><path d="m412.4 543.9c-.6 0-1-.4-1-1 0-.2.1-.5.2-.6s10-11.9 15-24.5c.2-.5.8-.8 1.3-.6s.8.8.6 1.3c-5.1 12.9-15.2 25-15.3 25.1-.2.1-.5.3-.8.3z" fill="#000000"/><path d="m459.4 470.1c-9 16.8-23.4 15.7-20.8-5.7 2.5-22.1 4.2-41.7 13.8-54.5-53.6 13.6-126.1 104-220.3 104-91.9 0-123.6-63.8-134.5-103.1-30.3-26.5-17.5-92.4-4.6-117.8 16.2-32.2 36-22.1 28.8 22 1.3-3.4 2.8-6.8 4.5-10.2 10.3-21 26.7-38.7 51.9-39.6 24.9-.9 27.3 24.2 15.4 28 27.2-2 43.1 15.3 43.7 40.7.5 24.2-23.4 27-28.1 7.6-3.8-15.5-39.5-9.6-39.5 19.7 0 20.5 12.5 26.8 17.5 26.8 6.4 0 15.8-1.3 19.2-12.6 7.2-24.1 38.6-17 27.4 15.4-11.8 34.2-38.3 47.7-61.9 48.3 8.8 18.8 29.8 40.4 80.3 40.4 37.6 0 73.4-19.5 108.1-38.9s68.2-38.9 101-38.9c0 0 .1-.1.1-.1 16.3-10 8.1 49.7-2 68.5z" fill="#fff"/><path d="m458.5 470.3c-2.2 4.1-6.1 10.2-11.2 10.9-4.4.7-6.8-3.9-7.5-7.5-.5-3.1-.6-6.2-.2-9.3.4-3.9.9-7.9 1.3-11.8.8-7.7 2-15.3 3.7-22.8 1.7-7.1 4.3-14.2 8.7-20.1.3-.3-1-.2-1-.1-17.1 4.4-32.5 14.3-46.9 23.9-18.7 12.4-36.7 25.8-55.5 38-20.4 13.2-41.8 25.1-64.9 32.9-24.5 8.4-50.6 11-76.2 7.6-22.1-3-43.4-10.9-61.2-24.5-14.2-11-25.9-24.9-34.5-40.7-3.8-6.9-7-14-9.7-21.3-1.2-3.3-2.3-6.6-3.4-9.9-.3-1.6-.8-3.1-1.4-4.6-.4-.9-1.5-1.6-2.2-2.3-.9-.9-1.7-1.8-2.5-2.7-13.7-16.2-15.2-40-13.5-60.2.9-10.6 2.8-21.2 5.6-31.5 2.2-8.7 5.5-17 9.7-24.9 2.4-4.3 5.3-8.5 9.1-11.7 2.3-2 5.3-3.7 8.4-2.8 2.9.9 4.9 3.6 6.1 6.3 1.8 4.3 2.7 8.8 2.8 13.5.3 6.9-.2 13.8-1.4 20.6-.1.5 1.7.1 1.9-.3 7.1-17.9 18.2-36.4 36.4-44.9 12.3-5.7 36.1-8.3 40 9.4 1.1 5.1-.4 11.8-5.9 13.6-.5.2-.9.7-.1.6 8-.6 16.1.5 23.3 4.2 6 3.2 11 8 14.2 13.9 3.4 6.5 5.3 13.6 5.5 20.9.3 6.5-.8 13.9-6 18.5-3.9 3.4-9.6 3.6-13.6.5-2.4-1.8-4.2-4.2-5.3-6.9-1-2.3-1.2-4.7-2.6-6.8-5.1-7.4-16.7-5.7-23.7-2.5-4.8 2.2-9 5.7-11.8 10.2-3.7 5.8-4.7 12.7-4.2 19.5s2.8 13.8 7.8 18.7c2.7 2.6 6.3 4.7 10.2 4.7 5.7 0 11.8-1.3 15.9-5.4 2.8-2.8 3.8-6.2 5.1-9.7 1-2.7 2.5-5.2 4.4-7.3 3.2-3.4 7.7-5.3 12.3-4.2 4.7 1.2 8 5 9.5 9.4 2.2 6.8.6 14.3-1.7 20.8-3 8.5-7.3 16.3-13 23.3-9.4 11.6-22.6 19.4-37.3 22.2-3.3.6-6.6.9-9.9 1-.2 0-1.6.3-1.4.7 8.3 17.7 24.2 29.6 42.6 35.4 14.3 4.5 29.8 5.9 44.7 5 16.9-1 33.4-5.7 49.1-12 34.4-13.9 64.9-35.3 98.5-51 15.8-7.4 32.7-13.6 50.2-14.6 1.7.1 3.4 0 5.1-.2.7-.3 1.4-.6 2.1-1 .8-.3 1.8-.2 2.5.3 2.2 1.3 2.9 4.5 3.3 6.8 1.7 9 .5 18.8-.9 27.8-1.5 9.9-3.6 19.9-7.3 29.2-.5 1.9-1.3 3.6-2.1 5.2-.2.3 1.6.2 1.9-.3 2.5-5 4.4-10.2 5.7-15.7 1.8-6.6 3.2-13.4 4.1-20.2 1-6.3 1.4-12.6 1.4-18.9-.1-4.1-.2-9.1-2.5-12.7-2.1-3.2-5.8-2.6-8.7-.8l1.4-.4c-23 .1-44.8 8.9-65.1 19-22.9 11.4-44.6 25.1-67.5 36.6-21.9 11-45.2 20.5-69.9 22.1-19.5 1.2-40.7-1.4-58.2-10.7-11.2-5.8-20.5-14.9-26.6-26-.6-1.1-1.2-2.3-1.7-3.4l-1.4.7c13.9-.3 27.4-5 38.6-13.4 6.4-4.9 11.8-10.8 16.1-17.5 4.8-7.4 8.9-16.1 10.4-24.9 1-5.7.9-12.1-2.5-17-2.4-3.6-6.4-5.8-10.8-6-4.5 0-8.8 1.7-12 4.8-2 1.9-3.6 4.2-4.7 6.8-1.6 3.6-2.3 7.3-4.9 10.3-2.5 2.7-5.8 4.3-9.4 4.8-2.2.4-4.5.4-6.8-.1-4.9-1.4-8.8-5.4-11.2-9.8-3.7-7.3-4.7-15.7-2.8-23.7 1.4-6 4.8-11.4 9.7-15.1 4.2-3.2 9.3-5 14.6-5 4.2.1 8.9 1.5 11.2 5.3 1.4 2.2 1.6 4.8 2.7 7.1 1.1 2.5 2.9 4.7 5.1 6.3 3.9 2.7 8.8 3.1 13.1 1.3 13.2-5.4 11.5-24.3 7.9-35.2-4.1-13.7-16-23.6-30.3-25.2-3.8-.5-7.6-.6-11.5-.3l-.1.6c5-1.7 7.7-6.5 7.5-11.7-.3-6.4-4.2-12-10-14.7-8.3-3.9-18.7-2.5-27.2.1-9.3 3.1-17.7 8.5-24.3 15.8-8.5 9.2-14.6 20.5-19.1 32.1l1.9-.3c1.2-6.9 1.7-13.8 1.4-20.8-.2-4.6-.9-9.5-2.9-13.7-1.2-2.6-3.1-5.1-5.9-6.1-2.7-1-5.7-.3-8.2.9-3.5 1.9-6.5 4.5-8.7 7.7-3.1 4.1-5.7 8.6-7.8 13.3-3.7 8.6-6.6 17.5-8.5 26.6-4.7 21.1-6.6 44.6.2 65.4 1.5 4.8 3.7 9.5 6.4 13.7 1.3 2 2.8 3.9 4.4 5.7.8.9 1.6 1.7 2.4 2.5s1.4 1.7 1.7 2.8c2 7 4.5 13.9 7.3 20.6 6.7 16 16.3 30.6 28.2 43 14.7 14.9 33 25.8 53.2 31.6 24.7 7 50.8 8.1 76 3.1 24.2-4.8 47-14.8 68.3-26.9 20.8-11.8 40.4-25.7 60-39.4 16.2-11.3 32.7-23.3 51-30.9 3.6-1.5 7.4-2.8 11.2-3.8l-1-.2c-9.3 12.6-10.9 29.6-12.7 44.7-.8 6.8-5.3 30.1 8.7 27.1 6-1.3 10.2-6.8 12.9-11.9.3-.3-1.4-.2-1.7.3z" fill="#000000"/><path d="m120.8 315.4c-1.3 11.3-2.2 22.7-3 34.1-.1 1-.1 2.1-.2 3.1 0 .1.1.1.2.1 10.9 2.7 21.7 8.1 26 19.2 1.3 3.5 2.1 7.3 2.2 11 0 .4 2 0 1.9-.5-.4-6.3-2-12.5-5.8-17.5-3.4-4.2-7.7-7.6-12.8-9.6-2.6-1.1-5.2-2-7.9-2.8-.6-.1-1.3-.2-1.9-.5-.1-.1 0 0 0-.2 0-.5 0-.9.1-1.4.3-4.8.7-9.6 1.1-14.4.6-7.1 1.2-14.2 2-21.2.1-.2-1.8-0-1.9.6z" fill="#000000"/><path d="m147.9 377.6c1.2-1.8 2.9-3.2 4.8-4 2-.7 4.1-1 6.2-.8.5 0 1-.1 1.4-.4.3-.2.3-.4-.1-.4-2.8-.2-5.5.2-8.1 1.2-2.4 1-4.6 2.6-6.1 4.8-.2.3.7.2.8.2.4-.1.8-.3 1.1-.6z" fill="#000000"/><path d="m193.2 293.1c-13.7 4.4-25.5 13.1-32.8 25.6-3.2 5.5-5.5 11.4-7 17.5-.1.4 1.8.2 1.9-.3 2.5-9.8 6.8-19.2 13.7-26.7 4.9-5.3 10.7-9.6 17.3-12.6 2.5-1.2 5-2.1 7.6-3 .2-.1.8-.3.6-.6s-1.1 0-1.3.1z" fill="#000000"/><path d="m395.9 602.2c-25.1-4.7-41.8 15.4-41.8 35.7 0 8.6 4.6 24.2.4 41-4.7 18.7-18.2 39-18.2 53 0 26.8 17 27.2 17 27.2 7.3 11.8 15.8 15.8 27.6 11.8 9.7 15.8 28.8 15.4 36.9 4.9s.8-23.9 0-30.4c10.9-13 27.2-37.6 24.7-68.5-2.4-30.7-12.1-68.2-46.6-74.7z" fill="#fff"/><path d="m396.7 601.8c-13.8-2.5-28 2.4-36.3 13.9-3.8 5.4-6.2 11.6-7 18.1-.8 6.9.8 13.8 1.5 20.7.9 9.4.5 18.8-2.2 28-2.5 8.4-6.3 16.4-9.8 24.4-3 6.9-6.3 14.1-7.3 21.7-.4 3.7-.3 7.5.3 11.1.4 3.1 1.3 6 2.5 8.8 2.5 5.4 7.6 10.4 13.9 10.8h.5l-.3-.1c3.1 5 7.2 10 12.8 12.2 5.2 2 10.8 1.3 16-.5l-1.3.1c4.2 6.8 11 11.7 19.1 12.4 6.5.6 13.6-1.5 18.3-6.3 3.1-3.2 4.9-7.3 5.2-11.7s-.6-8.8-1.8-13c-.5-1.7-1-3.5-1.5-5.2-.3-.7-.4-1.5-.4-2.2.2-.6 1.1-1.4 1.5-1.9 2.3-2.8 4.4-5.7 6.5-8.7 10.5-15.6 17.2-33.8 16.9-52.7-.2-8.3-1.2-16.6-2.8-24.7-1.4-7.8-3.7-15.5-6.8-22.8-2.9-7-7-13.4-12.2-18.9-5.3-5.5-11.9-9.6-19.2-12-2.1-.6-4.1-1.1-6.1-1.5-.5 0-.9 0-1.3.3-.1.1-.7.4-.2.5 7.6 1.4 14.8 4.7 20.8 9.6 5.6 4.7 10.2 10.5 13.6 17.1 7.2 13.5 10.2 28.9 11.7 43.9 1.1 9.7.5 19.6-1.6 29.1-2.1 8.6-5.4 16.9-9.7 24.6-3.6 6.3-7.7 12.4-12.4 17.9-.6.7-.7.8-.5 1.7.1.7.3 1.5.5 2.2.5 1.8 1 3.5 1.5 5.3 1.1 4.2 2 8.5 1.5 12.9-.9 7.9-6.8 14.3-14.5 15.8-7.3 1.4-14.8-1.6-20-6.7-1.6-1.6-2.9-3.3-4.1-5.2-.2-.3-1.1 0-1.3.1-7.3 3-15.7 1-21-4.9-1.6-1.6-3-3.4-4.2-5.2-.4-.6-.8-1.5-1.4-1.8h-.1c-.3-.1-1.5-.2-2.2-.4-10.9-3-14.2-15.5-14.4-25.4-.2-8.4 3.3-16.5 6.5-24.1 3.8-8.9 8.1-17.7 10.8-27 2.9-9.9 3-19.9 1.9-30.1-.4-3.9-1.1-7.8-1.4-11.7-.2-3.6 0-7.2.8-10.7 1.6-7.3 5.4-13.9 10.8-19.1 5.8-5.5 13.5-8.5 21.5-8.4 2.3 0 4.5.3 6.8.7.5.1.9 0 1.3-.3.2-.3.7-.6.3-.7z" fill="#000000"/><path d="m393.9 619.6c8.6 3.1 12 13.3 10.4 21.7-.9 4.7-2.7 9.2-4.4 13.7-1.6 4.3-4 8.3-5.7 12.6-1.1 2.7-1.7 5.5-1.6 8.4.2 1.8.6 3.6 1.2 5.3 1.3 4.3 2.6 8.6 2.7 13.2.1 9-3.7 17.7-8 25.5-.2.3 1.6.2 1.9-.3 4-7.2 7.5-15.1 8-23.4.1-4.8-.6-9.6-2.2-14.1-.6-1.8-1.1-3.6-1.4-5.4-.4-2.5-.1-5.1.7-7.5 1.4-4.5 4-8.6 5.7-13 1.9-4.4 3.4-9 4.6-13.6 1.3-4.8 1-9.8-.9-14.4-1.7-4.3-5.2-7.7-9.5-9.4-.4-.3-2.1.5-1.5.7z" fill="#000000"/><path d="m354.3 758.9c-2.9-6.3-2.4-13.6-1.1-20.2.7-3.7 1.7-7.4 3.1-10.9.1-.3-1.7-.1-1.9.4-1.4 3.6-2.5 7.4-3.2 11.2-1.3 6.6-1.7 13.9 1.1 20.1.3.3 2.1-.3 2-.6z" fill="#000000"/><path d="m381.9 770.6c-2.9-4.7-3.6-11-3.7-16.5-.3-8.3 1.7-16.4 5.6-23.7.4-.7-1.5-.5-1.8 0-3.9 7.2-5.9 15.3-5.8 23.5 0 5.7.7 12.3 3.8 17.2.3.7 2.1 0 1.9-.5z" fill="#000000"/><path d="m515.9 442.6c-20.2-1.3-39.9-32.9-40.1-37.6-.5-11.2-2.9-22.3-6.9-32.8-2.1-5.5-4.5-10.7-7.2-16.2-5.8-12 25.3-22.7 32.9-7.3 2.9 6 5.3 12.1 7.4 18.4 4.4 12.9 8.2 28.3 8.3 39.7 21.9 19.8 21.2 36.9 5.6 35.8z" fill="#fff"/><path d="m516.3 442.1c-8.3-.6-15.6-6-21.5-11.5-5.8-5.5-10.7-11.7-14.8-18.6-1.2-1.9-2.3-4-3-6.2-.3-1.6-.5-3.2-.5-4.8-.3-3-.6-6.1-1.1-9.1-1.9-11.3-5.9-21.9-10.8-32.2-1.5-3.1-3.5-6-2.1-9.5 1-2.5 3.4-4.3 5.7-5.6 5.5-3.1 13-4.2 19-1.7 3 1.3 5.5 3.7 6.9 6.6 2.5 5.2 4.6 10.6 6.5 16 3.9 11.2 7.3 23 8.5 34.8.1 1.3.2 2.5.3 3.8 0 .6.1 1.2.1 1.8 0 1 0 1.1.8 1.8 2.4 2.2 4.6 4.4 6.7 6.9 3.3 3.6 5.9 7.8 7.9 12.3 2 5 2.9 12.8-3.7 14.7-1.7.5-3.3.7-4.9.5-.7 0-2.1 1-.8 1.1 3.2.2 6.6-.3 9.2-2.2 2.2-1.7 3.4-4.2 3.4-7 .1-3.8-1.3-7.5-3.1-10.8-2.8-4.9-6.3-9.4-10.4-13.4-.6-.6-1.2-1.2-1.9-1.8s-1.5-1.1-1.6-2.1c-.1-1.3-.1-2.7-.2-4.1-.2-3-.6-5.9-1.2-8.8-1.1-6.3-2.7-12.6-4.5-18.7-1.9-6.3-4-12.4-6.5-18.5-1.6-3.9-3.1-8.5-6.3-11.4-5.2-4.6-13.1-4.7-19.5-2.9-5.1 1.4-12.4 4.8-13 10.8-.1 1.3.1 2.5.6 3.7 1.4 3.1 3 6.2 4.4 9.4 2.4 5.4 4.5 11 6.1 16.6 1.6 5.8 2.7 11.6 3.3 17.6.2 1.5.3 3.1.4 4.6 0 .6.1 1.2.2 1.7.3.9.6 1.8 1.1 2.7 3.3 6.6 7.6 12.7 12.6 18.1 5.7 6.4 12.8 12.6 21.1 15.2 1.9.6 3.8 1 5.8 1.1.8.2 2.1-.8.8-.9z" fill="#000000"/><path d="m408.6 553.2c-.4-.5 2.4-4 4.6-7.8 1.1-1.9 2.2-3.9 2.9-5.4s1.2-2.6 1.2-2.6l1.4-2.5c.8-1.5 1.9-3.4 2.8-5.5.5-1 .9-2 1.4-3 .4-1 .8-1.9 1.2-2.6.7-1.6 1.2-2.6 1.5-2.5s.4 1.2.2 3c-.1.9-.2 1.9-.4 2.9-.2 1.1-.4 2.2-.7 3.3-.5 2.1-1.2 4.2-2 6.2-.7 1.7-1.2 2.8-1.2 2.9s-.7 1.1-1.7 2.6c-1.2 1.8-2.5 3.5-4 5.2-3 3.5-6.8 6.3-7.2 5.8z" fill="#fff"/><path d="m776.7 301.7c-4.8 4.5-11 7.3-17.5 7.9-7.6.8-15.3-1.2-21.6-5.6-.7-.5-2.4.5-1.5 1.1 10.4 7.1 23.8 8 35 2.3 2.6-1.4 5.1-3.1 7.2-5.2.8-.8-1.1-1.1-1.6-.5z" fill="#000000"/><path d="m171.9 438.7c-14.1 1.3-29.5-6.1-35.1-19.6-.3-.7-2.2-.1-1.9.5 4.3 10.3 14.6 17.5 25.3 19.6 3.8.7 7.6.9 11.5.5.9 0 1.6-1.1.2-1z" fill="#000000"/><path d="m471.1 368.2c.7-.1 1-.5 1-1 0-.7-.5-1.2-1.2-1.3-.5-.1-1 .3-1.1.8v.4c.2.7.7 1.1 1.3 1.1z" fill="#000000"/><path d="m483.4 371c0-.7-.5-1.1-1.2-1.2-.7.1-1.2.4-1.2 1.1 0 .6.5 1.2 1.1 1.2h.2c.6 0 1.1-.5 1.1-1.1z" fill="#000000"/><path d="m491.4 355.8c-.2-.8-.6-1.5-1.3-1.4-.9.1-1.3.9-1.3 1.8 0 .7.5 1.4 1.2 1.2.8-.1 1.5-.8 1.4-1.6z" fill="#000000"/><path d="m481.2 363.3c.1.7.6 1.2 1.3 1.2.5.1.9-.3 1-.7v-.1c.1-.6-.3-1.2-.9-1.4h-.1c-.5-.1-1.1.2-1.2.7-.1.1-.2.2-.1.3z" fill="#000000"/><path d="m482.9 356.3c.2-.1.3-.5.4-.8-.2-.5-.6-.7-1.1-.4-.2.2-.4.5-.3.8.1.4.4.6.8.6.1-.1.2-.1.2-.2z" fill="#000000"/><path d="m496.3 355.6c0 .6.2 1.3.9 1.5.3.1.7-.1.9-.4-.3-.6-.5-1.3-.8-1.9h-.1c-.4-.1-.8.2-.9.6z" fill="#000000"/><path d="m497.2 364.7c.7 0 1.2-.5 1.2-1.2-.1-.6-.6-1.2-1.2-1.2-.7 0-1.2.5-1.2 1.2 0 .6.4 1.1 1.1 1.2z" fill="#000000"/><path d="m470.1 359.8c0 .5.4.9.9.9.7 0 1.3-.2 1.2-1 0-.5-.4-.8-1-.9-.5 0-1.2.1-1.1 1z" fill="#000000"/><path d="m492.8 367.6c.1.5.6.8 1.1.6.6-.2.8-.9.6-1.5-.2-.4-.5-.8-1.1-.6s-.9.7-.7 1.3c.1.1.1.1.1.2z" fill="#000000"/><path d="m488.8 363.1c0 .7.2 1.2 1 1.2.5 0 .9-.4.9-.9 0-.7-.2-1.2-1-1.2-.5-0-.9.4-.9.9 0-.1 0 0 0 0z" fill="#000000"/><path d="m493.2 351.1c-.5.1-.9.5-.9 1-.1.7.4 1.2 1.1 1.3h.1c.8 0 1.1-.6 1.2-1.3 0-.6-.6-1.1-1.2-1-.1 0-.2 0-.3 0z" fill="#000000"/><path d="m494.5 359.6c0-.6-.5-1.1-1.2-1.1h-.1c-.2 0-.4.4-.5.7-.1.7.2 1.2.9 1.2.5 0 .9-.3.9-.8z" fill="#000000"/><path d="m485.9 358.5c-.4.2-.7.6-.8 1.1-.1.6.4 1.1 1 1.2h.3c.8 0 1.1-.6 1-1.3-.3-.9-.8-1.3-1.5-1z" fill="#000000"/><path d="m486.1 366c-.5-.1-1 .2-1.2.7v.4c.1.7.6 1.2 1.3 1.2.5 0 .9-.4 1-.9-0-.7-.4-1.3-1.1-1.4z" fill="#000000"/><path d="m489.5 370c-.5.2-.8.6-.6 1.1 0 0 0 .1.1.1.5-.1 1-.2 1.4-.3v-.1c0-.4-.3-.7-.7-.7-.1-.1-.1-.1-.2-.1z" fill="#000000"/><path d="m501 365.9c-.5 0-1 .4-1 .9-.1.4.1.8.3 1.1.5-.2 1.1-.4 1.6-.7-.1-.4-.3-.8-.4-1.2-.1-.1-.3-.1-.5-.1z" fill="#000000"/><path d="m464.5 359.6c-.1-.5-.5-.8-1-.6-.1.1-.2.1-.3.2.2.4.4.8.6 1.2h.2c.2-.1.3-.5.5-.8z" fill="#000000"/><path d="m474.1 370.7c0 .5.3.9.8.9h.2c.4 0 .8-.4.9-.8 0-.8-.4-1-.9-1-.6 0-1 .4-1 .9z" fill="#000000"/><path d="m478.9 368.2c.5-.1.7-.6.7-1.8-.3-.2-.6-.3-.9-.3-.5 0-.9.3-.9.8v.1c0 .8.3 1.4 1.1 1.2z" fill="#000000"/><path d="m475 362.1c-.7 0-1.2.3-1.3 1 0 .6.2 1.3 1 1.3.6.1 1.2-.3 1.3-1 0 0 0 0 0-.1.1-.5-.3-1.1-1-1.2z" fill="#000000"/><path d="m475 354.9c-.5-.1-1 .2-1.1.6-.3 1 .4 1.5 1.2 1.6.5 0 .9-.3.9-.8v-.1c.1-.6-.3-1.2-1-1.3z" fill="#000000"/><path d="m478.9 360.4c.3-.2.4-.4.4-.7 0-.4-.3-.7-.7-.7-.1 0-.2 0-.3.1-.2.1-.3.5-.5.7.3.5.6.8 1.1.6z" fill="#000000"/><path d="m468 370.1c.1.2.2.5.3.7 0 0 0 0 0-.1s-.1-.4-.3-.6z" fill="#000000"/><path d="m467.4 364.6c.6 0 1.1-.5 1.1-1.1 0-.1 0-.1 0-.1 0-.6-.6-1.1-1.2-1.1h-.1c-.6.1-1.1.6-1.1 1.3 0 .8.6 1 1.3 1z" fill="#000000"/><path d="m467.4 357.1c.7-.1 1-.6 1.1-1.3 0-.6-.6-1.1-1.2-1h-.1c-.6 0-1.1.5-1.1 1v.2c0 .6.6 1.1 1.2 1.1z" fill="#000000"/><path d="m770.1 491.6c-9.4-8.3-10.6-24.7-2.1-34 .8-.8-1.1-.8-1.6-.3-8.8 9.6-7.9 26.4 1.9 35.1.6.5 2.4-.3 1.8-.8z" fill="#000000"/><path d="m334.3 206.4c-18.4-6.5-33.8-35-14-74.9 28.9-58.4 142.3-57.6 140.4-130.7 16.7 8.5 24.6 26.9 26.8 40.2 16.1 2.6 31.5 50.6 9.2 85.3s-162.4 80.1-162.4 80.1z" fill="rgb(0,63,90)"/><path d="m334.8 205.7c-8.2-3-14.5-9.7-18.2-17.4-5.1-10.5-5.5-22.7-3.3-34.1 1.6-7.7 4.2-15.2 7.7-22.2 1.9-3.8 4.1-7.5 6.7-10.9 5.3-6.7 11.5-12.7 18.4-17.7 7.3-5.3 14.9-10 22.9-14.2 8.2-4.4 16.6-8.5 25-12.7 8.2-4.1 16.4-8.2 24.3-12.8 7.4-4.2 14.5-9.1 21-14.6 6.1-5.2 11.3-11.3 15.3-18.2 4-7.2 6.4-15.2 7-23.5.2-2.2.2-4.5.2-6.7l-1.5.7c12 6.2 20 18 24.1 30.6 1 3 1.7 6.1 2.3 9.2 0 .3.4.4.6.5 3.4.6 6.2 3.2 8.4 5.8 3 3.9 5.4 8.3 7 13 4.3 12.2 5.4 25.2 3.5 38-1 7.1-3.2 14.1-6.3 20.5-1.9 4.1-4.4 7.9-7.3 11.4-5.1 5.6-11.3 10.2-17.6 14.3-8.1 5.3-16.6 10.1-25.3 14.4-9.6 4.9-19.3 9.4-29.1 13.7s-19.7 8.4-29.7 12.3c-8.8 3.5-17.7 6.8-26.6 10.1-6.6 2.4-13.2 4.7-19.8 7-3.2 1.1-6.5 2.2-9.7 3.3-.1 0-.3.1-.4.1-1.2.4-.8 1.8.4 1.4 2.3-.8 4.6-1.5 6.9-2.3 6.1-2.1 12.2-4.2 18.2-6.4 8.7-3.1 17.3-6.3 26-9.7 10-3.9 20-7.9 29.9-12.1 10.1-4.3 20.1-8.8 30-13.7 9.1-4.5 18-9.3 26.6-14.6 6.9-4.3 13.7-8.9 19.5-14.6 7.5-7.4 12.1-17.2 14.8-27.3 3.4-13.1 3.4-26.9.1-40-1.3-5.3-3.3-10.4-6-15.2-2-3.5-4.6-7-8.1-9.2-1.4-.9-2.9-1.5-4.5-1.8l.6.5c-2.1-12.5-7.9-24.9-17.2-33.6-3-2.8-6.3-5.1-9.9-7-.5-.2-1.5.1-1.5.7.3 8.6-1.3 17.2-4.7 25.1-3.4 7.3-8.1 13.8-13.9 19.3-6.2 5.8-13.1 11-20.5 15.3-7.8 4.8-15.9 9-24.1 13.1-8.4 4.2-16.8 8.3-25.1 12.7-8.1 4.2-16 8.9-23.5 14-7.2 4.9-13.7 10.7-19.4 17.2-7.1 8.6-12.3 18.5-15.3 29.3-3.5 11.8-4.6 24.7-.7 36.5 2.8 8.6 8.2 16.6 16 21.3 1.7 1 3.4 1.8 5.2 2.5.4.4 1.8-.9.6-1.3z" fill="#000000"/><path d="m486.5 41.2c1.6 10.9-.5 22.1-4.9 32.2-.1.2 1.7.1 1.9-.4 4.4-10.1 6.6-21.4 5-32.3-.1-.3-2 .1-2 .5z" fill="#000000"/><path d="m484.6 353c-16.2 3.6-32.9 4.9-49.5 3.9-37.5-2.3-71-16.9-93.1-40.1-5.1-5.3-9.6-11.2-13.4-17.4l-1.1-1.8c-3.1-5.3-5.6-10.8-7.6-16.5-1.3-3.6-2.3-7.2-3.1-11-8.8-39.8 8.9-80.5 43-109.4 19.9-16.9 45.4-29.9 74.4-36.3 78.7-17.3 153.9 19.7 167.8 82.8s-38.7 128.4-117.4 145.8z" fill="#fff"/><path d="m484.4 352.3c-31.3 6.8-64.7 5.6-94.8-5.7-26.9-10.1-51.2-28.8-64.1-54.8-6.8-13.6-10.2-28.7-9.9-43.9.3-13.6 3.3-26.9 8.9-39.3 11.6-26.5 32.9-48 57.5-62.7 25.5-15.1 54.3-23.6 83.9-24.8 25.6-1 51.7 3.6 74.8 14.7 20.7 10 39 25.4 50.4 45.6 11 19.7 14.7 42.7 10.5 64.9-4.3 22.7-16.4 43.3-32.3 59.9-17.9 18.7-40.7 32.4-65.2 40.7-6.6 2.1-13.1 3.9-19.7 5.4-1.2.3-.8 1.6.4 1.4 26.4-5.9 51.7-17.4 72.6-34.6 18.5-15.1 33.8-34.8 41.8-57.5 7.6-21.5 8-45.2.2-66.7-8-21.8-23.9-39.9-43.3-52.4-21.3-13.7-46.4-21-71.5-22.6-29.4-1.8-58.8 3.5-85.7 15.5s-51.2 31.1-67.2 56c-15 23.3-21.9 51.7-15.9 79.1 6.7 30.2 28 54.6 54.7 69.3 26.8 14.7 58.2 20.1 88.6 17.8 8.6-.7 17.2-1.9 25.6-3.8 1.2-.4.9-1.8-.3-1.5z" fill="#000000"/><path d="m450.4 272.9c-.4-.3-1-.1-1.3.3-.1.1-.1.3-.1.4-.1.5.3.9 1 1.1.4-.4.7-.7 1-1.1-.1-.3-.3-.6-.6-.7z" fill="#000000"/><path d="m441.9 273.5c-.2.5.1.9.6 1 .3-.1.7-.2.8-.5.2-.4 0-.8-.4-1-.1 0-.2-.1-.3-.1-.3.1-.6.3-.7.6z" fill="#000000"/><path d="m450.1 265.2c-.5-.1-1 .3-1.1.8v.3c.1.4.4.8.8 1 .7.1 1.1-.4 1.2-1.1 0-.5-.4-.9-.9-1z" fill="#000000"/><path d="m452.9 269.5c-.2.4 0 .8.4 1 .3-.5.6-1.1.9-1.6h-.1c-.5 0-1.1.3-1.2.6z" fill="#000000"/><path d="m427.2 265.1c-.6 0-1.1.6-1.1 1.2v.1c.1.7.6 1 1.4 1.1.7-.1 1-.7.9-1.3 0-.6-.5-1.1-1.1-1.1z" fill="#000000"/><path d="m427.8 273c-.4-.2-.8 0-.9.4 0 .1-.1.2-.1.3 0 .3.2.6.4.8.5.2.9-.1 1-.7-.1-.3-.2-.7-.4-.8z" fill="#000000"/><path d="m421.1 274.1c0-.7-.3-1.2-1-1.3-.6-.1-1.2.2-1.3.8v.2.2c.5.4.9.8 1.4 1.1.5-.1.9-.5.9-1z" fill="#000000"/><path d="m420.1 267.4c.6.1 1.2-.4 1.2-1 0-.1 0-.1 0-.2 0-.6-.4-1.2-1.1-1.2-.1 0-.1 0-.2 0-.6.1-1.1.7-1 1.3v.1c.2.6.6 1 1.1 1z" fill="#000000"/><path d="m421.4 259.9v.2" fill="none"/><path d="m421.4 259.9c-.1-1.5-.5-1.8-1-1.8-.4 0-.8.3-.8.7v.3c.1.5.5.9 1 .9.6 0 .7-.3.8-.1z" fill="#000000"/><path d="m435.2 280c-.4.1-.8.3-1.1.5h2c-.1-.3-.4-.5-.9-.5z" fill="#000000"/><path d="m435.3 265.3c-.8-.1-1.1.2-1.3.7-.2.6.2 1.2.7 1.4h.2c.5.1.9-.2 1.1-.7v-.1c.3-.5-.1-1.1-.7-1.3z" fill="#000000"/><path d="m434.7 274.6c.7.2 1.3-.1 1.3-.9 0-.5-.4-.9-.9-.9s-.9.3-1.1.8c-.1.4.1.9.5 1z" fill="#000000"/><path d="m431.1 269.2c-.3.1-.5.8-.5 1.2-.1.4.2.8.6.9.9-.1 1.2-.6 1.2-1.1-.1-.7-.5-1.3-1.3-1z" fill="#000000"/><path d="m431.4 276.5c-.6-.1-.9.3-.9.8 0 .4.2.9.6 1.1s.9 0 1-.4v-.1c.3-.8-.1-1.2-.7-1.4z" fill="#000000"/><path d="m424 276.3c-.5 0-.9.2-1.1.7.6.3 1.1.7 1.7 1 .1-.2.2-.4.2-.6.2-.6-.2-.9-.8-1.1z" fill="#000000"/><path d="m422.8 262.6c-.2.6.2.9.7 1 .5.2 1.2 0 1.4-.5 0-.1 0-.1.1-.2.1-.6-.2-.9-.7-1-.5-.2-1.1 0-1.4.5-0-0-.1.1-.1.2z" fill="#000000"/><path d="m423.6 271.4c.8-.1 1.5-.8 1.4-1.7 0-.5-.4-.8-.9-.8h-.1c-.7.3-1.5.7-1.4 1.7 0 .4.3.8.8.8.1.1.2.1.2 0z" fill="#000000"/><path d="m446.5 271.2c.5 0 .8-.4.9-1-.1-.5-.2-1.2-1-1.1-.5 0-.8.4-.8.8v.1c-.1.7.1 1.2.9 1.2z" fill="#000000"/><path d="m446.3 276.5c-.9-.1-.9.6-.8 1.2 0 .1.1.2.1.2.5-.3 1-.6 1.5-.9-.2-.1-.5-.5-.8-.5z" fill="#000000"/><path d="m438.6 269c-.5 0-.9.4-1 .9-.1.7.1 1.4.9 1.4.7 0 1.3-.5 1.3-1.2 0-.6-.5-1.1-1.2-1.1z" fill="#000000"/><path d="m437.7 277.5c-.1.5.2.9.7 1h.2c.7.1 1.2-.4 1.3-1.1 0 0 0 0 0-.1.1-.5-.3-.9-.9-1-.7 0-1.2.5-1.3 1.2z" fill="#000000"/><path d="m375.2 182.7c-.9.1-1.3.9-1.3 1.8 0 .7.5 1.4 1.2 1.2.8-.1 1.4-.8 1.4-1.6-.1-.8-.6-1.4-1.3-1.4z" fill="#000000"/><path d="m382.1 198.2c-.5 0-.9.4-1 1s.4 1.2 1 1.3h.1c.7 0 1.1-.5 1.2-1.3-0-.8-.6-1.1-1.3-1z" fill="#000000"/><path d="m382.3 183.1c-.4-.1-.8.2-.9.6v.2c0 .6.2 1.3.9 1.5.7.1 1.1-.4 1.2-1.1 0-.6-.5-1.2-1.2-1.2.1 0 .1 0 0 0z" fill="#000000"/><path d="m382.3 193c.7 0 1.2-.5 1.2-1.2-.1-.6-.6-1.2-1.2-1.2-.7 0-1.2.5-1.2 1.2 0 .6.4 1.1 1.1 1.2z" fill="#000000"/><path d="m382.3 208.1c.7.1 1.3-.4 1.3-1.1 0-.7-.6-1.2-1.3-1.3-.7 0-1.3.5-1.3 1.2 0 .6.5 1.2 1.1 1.2z" fill="#000000"/><path d="m401.3 232.2c-.5-.1-1 .2-.7.8.2.4.5.7.9.8.5.1.8-.3.8-1-.3-.3-.6-.5-1-.6z" fill="#000000"/><path d="m400.9 224.4c-.5 0-.9.3-.9.8v.2c0 .6.5 1.2 1.1 1.2.7-.1 1.1-.5 1-1 .1-.7-.4-1.2-1.2-1.2.1 0 .1 0 0 0z" fill="#000000"/><path d="m405.7 229.4c0-.5-.4-.9-.9-.9-.8-.1-1 .6-1 1.2 0 .5.4.9.9.9.8 0 1-.6 1-1.2z" fill="#000000"/><path d="m390 215.8c.8-.2 1.4-.8 1.3-1.4-.2-1.1-.7-1.3-1.4-1.2-.8 0-1.5.6-1.6 1.5 0 .7.5 1.2 1.1 1.3.3-.1.5-.2.6-.2z" fill="#000000"/><path d="m377.9 195.9c.1.5.6.8 1.1.6.6-.2.8-.9.6-1.5-.2-.4-.5-.8-1.1-.6s-.9.7-.7 1.3c.1.1.1.2.1.2z" fill="#000000"/><path d="m378.1 172.9c0 .3.1.6.3.8.5.3.9.1 1.1-.4-.1-.3-.1-.7-.3-.8-.3-.2-.7-.2-1 .1-.1.1-.1.2-.1.3z" fill="#000000"/><path d="m375.8 191.8c0-.7-.2-1.2-1-1.2-.5 0-.9.3-.9.8v.1c0 .7.2 1.2 1 1.2.5-0 .9-.4.9-.9z" fill="#000000"/><path d="m378.5 181.8c.8 0 1.1-.6 1.2-1.3 0-.6-.6-1.1-1.2-1-.1 0-.2 0-.2 0-.5.1-.9.5-.9 1-.1.7.4 1.2 1.1 1.3z" fill="#000000"/><path d="m378.4 202.3c.3.6.6 1.1.9 1.7.2-.2.3-.5.3-.8 0-.7-.5-1-1.2-.9z" fill="#000000"/><path d="m375 177.9c.7-.1 1-.6 1.1-1.3-.1-.6-.7-1.1-1.3-1.1-.1 0-.3 0-.4.1-.2.4-.4.8-.6 1.3 0 .6.5 1 1.1 1z" fill="#000000"/><path d="m379.6 187.9c0-.6-.5-1.1-1.2-1.1h-.1c-.2 0-.4.4-.5.7-.1.7.2 1.2.9 1.2.5.1.9-.3.9-.8z" fill="#000000"/><path d="m386.5 217.2c-.2-.1-.4-.1-.6 0 .3.6.6 1.2.9 1.8 0 0 .1 0 0 .1.6-1.5.2-1.7-.3-1.9z" fill="#000000"/><path d="m386.3 202.2c-.7 0-1.3.4-1.1 1.2.1.3.7.5.9.7.9 0 1.1-.4 1.1-.9.1-.6-.3-1-.9-1 .1 0 .1 0 0 0z" fill="#000000"/><path d="m386.3 211.8c.7-.3 1.2-.7.9-1.5-.3-.7-.8-1.1-1.5-.7-.4.3-.6.7-.6 1.2-.2.7.4 1 1.2 1z" fill="#000000"/><path d="m397.1 227.7c-.7 0-1.2.6-1.2 1.2v.1c0 .8.6 1.6 1.4 1.7.7.2 1.2-.3 1.3-1 .1-1.1-.2-2-1.5-2z" fill="#000000"/><path d="m397.5 222.9c.5 0 .9-.3 1-.8v-.1c.1-.7-.4-1.3-1.1-1.3-.5 0-.9.3-1 .8v.1c-.1.6.4 1.2 1.1 1.3z" fill="#000000"/><path d="m393.7 226.6c.8 0 1-.5 1-1.2 0-.5-.4-.9-.9-.9-.8-.1-1 .6-1 1.2 0 .5.4.9.9.9-.1 0 0 0 0 0z" fill="#000000"/><path d="m393.7 210.8c.2 0 .5-.2.7-.4-.1-.3-.2-.7-.4-.8-.3-.1-.6 0-.8.2-.2.5 0 .9.5 1z" fill="#000000"/><path d="m394 218.8c.2-.1.3-.5.5-.7 0-.4-.3-.8-.7-.8-.1 0-.2 0-.3 0-.3.2-.4.4-.4.8s.3.7.7.7z" fill="#000000"/><path d="m390.1 220.5c-.6-.1-1.1.3-1.3.8v.2c-.1.6.3 1.2.8 1.3h.2c.6-.1 1.2-.3 1.3-1.1.1-.6-.3-1.1-1-1.2z" fill="#000000"/><path d="m390.6 199.3c-.1-.3-.1-.7-.3-.8-.3-.2-.8-.1-1 .2-.1.1-.1.2-.1.2 0 .3.1.6.3.8.4.3.8.1 1.1-.4z" fill="#000000"/><path d="m389.5 207.7c.8.3 1.2-.3 1.3-1 0-.5-.4-.9-.9-1-.6 0-1 .3-1 .8-0 .4.3 1.1.6 1.2z" fill="#000000"/><path d="m386.1 194.2c-.5 0-1 .4-1 .9-.2.6.2 1.2.8 1.4h.2c.7.1 1.1-.5 1.3-1.2-0-.6-.5-1.1-1.3-1.1.1 0 .1 0 0 0z" fill="#000000"/><path d="m393.6 231.8c-.1 0-.1 0-.2.1.3.7.7 1.3 1 1.9.2-.3.4-.6.4-.9-.1-.8-.4-1.3-1.2-1.1z" fill="#000000"/><path d="m415.5 262.7c.1.3.4.5.7.5.4 0 .8-.3.9-.7 0-.1 0-.1 0-.2 0-.5-.5-.7-.9-.7-.6.3-.9.6-.7 1.1z" fill="#000000"/><path d="m416 254c-.5-.1-.9.2-1 .7v.2c-.1.7.4 1.3 1.1 1.3.5.1.9-.4 1-.9.1-.7-.4-1.3-1.1-1.3z" fill="#000000"/><path d="m416.4 271.2c.5-.1.9-.5.8-1 0-.7-.6-1.2-1.3-1.1 0 0 0 0-.1 0-.5.1-.9.5-.8 1.1 0 .1.1.3.1.4.2.2.4.4.6.7.3-.1.5-.1.7-.1z" fill="#000000"/><path d="m401.1 241.4c.6 0 1.1-.6 1.1-1.2s-.6-1.1-1.2-1.1h-.1c-.8 0-1 .6-1 1.3 0 .6.5 1.1 1 1.1.1-0 .1-0 .2-.1z" fill="#000000"/><path d="m402.3 247.8c.1-.4-.1-.9-.5-1-.3 0-.5 0-.8 0 .3.6.6 1.1.8 1.7.3-.1.4-.4.5-.7z" fill="#000000"/><path d="m404.8 235.1c-.8 0-1.1.6-1.1 1.3 0 .6.4 1 .9 1.1h.3c.6-.1 1.1-.6 1.2-1.3 0-.6-.6-1.1-1.3-1.1z" fill="#000000"/><path d="m404.9 252.5c.7.1 1.2-.4 1.3-1.2 0-.7-.6-1.2-1.3-1.2-.6 0-.9.4-1 .9-.1.7.1 1.4 1 1.5z" fill="#000000"/><path d="m404.6 245.2c.4.1.9-.1 1-.5 0-.1 0-.1 0-.2 0-.9-.3-1.3-.8-1.3-.9-.2-1.1.5-1.1 1.1.2.4.5.7.9.9z" fill="#000000"/><path d="m397.6 235.4c-.4-.2-1 0-1.2.5v.1c-.2.6 0 1.2.6 1.5.1 0 .1.1.2.1.5.2 1-.1 1.2-.5.2-.6-.1-1.3-.7-1.5-0-.2-.1-.2-.1-.2z" fill="#000000"/><path d="m413.4 266.6c0-.7-.3-1.3-1-1.3-.4-.1-.8.1-1.1.4.4.6.9 1.2 1.4 1.8.4-.1.7-.4.7-.9z" fill="#000000"/><path d="m412.3 257.8c-.8.1-1.3.5-1.1 1.3.1.5.5.8.9 1 .6.2 1.2-.2 1.3-.8 0-.1 0-.2 0-.3.1-.7-.4-1.1-1.1-1.2z" fill="#000000"/><path d="m407.3 255.4c.1.6.6 1.1 1.2 1h.1c.8-.1 1-.7 1-1.3 0-.7-.6-1-1.3-1-.6.1-1 .7-1 1.3z" fill="#000000"/><path d="m409.3 262.3c-.1-.1-.3-.2-.4-.2.2.3.3.5.5.8.1-.2-0-.4-.1-.6z" fill="#000000"/><path d="m408.6 239.1c-.7 0-1.2.5-1.2 1.2s.5 1.2 1.2 1.2c.7 0 1.1-.5 1.2-1.2-.2-.7-.5-1.2-1.2-1.2z" fill="#000000"/><path d="m409 248.4c.3-.2.4-.4.4-.7 0-.4-.3-.7-.7-.7-.1 0-.2 0-.3.1-.2.1-.3.5-.4.7.1.5.5.8 1 .6z" fill="#000000"/><path d="m412.4 250.3c-.6-.1-1.2.3-1.3.9v.1c-.1.6.3 1.2.8 1.3h.2c.7-.1 1.3-.2 1.4-1 .1-.6-.3-1.2-.9-1.3-.1 0-.1 0-.2 0z" fill="#000000"/><path d="m350 307c-3.3 8.2-11.3 13.5-20.1 13.5-11.7-.2-21-9.8-20.8-21.5.1-6.2 2.9-12.1 7.8-16 .9-.7 1.9-1.4 3-1.9 3.9-2 8.6-2.5 12.2-.2z" fill="#fff"/><path d="m413 249.3c6.9 12.9 19.4 26 35.5 20.7 7.4-2.4 12.1-8.9 13.6-15.7 1.4-6.4.5-13.6-1.3-20.6l-2.6-8.9c-.9-2.9-1.9-5.6-2.8-8.2-4.3-12.5-10.1-24.5-17.3-35.6-9.3-14.4-25.3-28.4-43.6-24.8-7.1 1.4-13 6-15.2 13.1-2.4 8 .5 14.3 4 21.1.3.6.6 1.2.9 1.8 8.3 16.1 16.5 32.2 24.5 48.4z" fill="#fff"/><path d="m412.6 250-.5-.3c4.5 8.4 11 16.7 20.1 20.4s20.2 1.4 26.4-6.5c6.7-8.5 5.8-20.4 3-30.3-2.1-7.5-4.5-14.9-7.3-22.1-4.3-11.5-9.9-22.5-16.9-32.6-5.9-8.4-13.6-16.1-23-20.4-8.8-4-20-4.7-28.4.8-3.9 2.6-6.7 6.4-8 10.9-1.6 5.6-.4 11.1 1.9 16.3 2.5 5.7 5.6 11.1 8.4 16.7 3.2 6.2 6.3 12.4 9.4 18.5 4.3 8.6 8.7 17.2 13 25.9l1.2 2.4c.4.8 2.3.2 1.9-.5-8.7-17.2-17.3-34.5-26.1-51.7-2.7-5.2-5.8-10.3-7.5-15.9-1.7-5.2-1.2-10.8 1.3-15.6 4.9-8.8 16.2-10.9 25.4-8.6 9.8 2.4 18 9.1 24.4 16.7 7.2 8.6 12.7 18.8 17.3 29 3.8 8.5 7 17.3 9.5 26.2 2.5 8.6 4.9 17.9 2.4 26.8-1.3 4.6-4.1 8.6-8 11.3-4.2 2.8-9.3 3.9-14.2 3.1-9.5-1.4-16.8-9.2-21.8-16.8-.6-.9-1.2-1.8-1.7-2.8-.4-.6-.8-2-1.6-2.1-.8-.3-1.9 1-.6 1.2z" fill="#000000"/><path d="m411.4 239.9c-5.8.2-6.9 7.1 1.6 9.4 16.9 4.4 39.8-1.9 47.7-15.5 4.2-7.3-.4-11.3-5.6-7.6z" fill="#fff"/><path d="m455.9 226.2c1.4-1 3.1-1.5 4.5-.1 1.3 1.3 1.1 3.3.7 4.9-1.1 3.7-3.9 7-6.8 9.5-6.2 5.4-14.3 8.3-22.4 9.4-4.2.6-8.4.6-12.6.1-3.5-.4-8.5-1-10.8-4.1-1.4-2-.8-5.1 1.9-5.5 2.5-.4 5.3.1 7.8.2 8.7.5 16.8-1.8 24.5-5.7 1.1-.6-.7-.4-1.1-.2-4.7 2.5-9.7 4.2-15 5-3.2.3-6.4.3-9.6 0-2.9-.2-6.3-.6-9 .9-2 .9-2.8 3.2-1.9 5.2.2.4.4.8.7 1.1 1.4 1.4 3.2 2.4 5.2 2.8 2.2.6 4.5 1 6.8 1.2 4.5.4 9.1.3 13.6-.5 8.6-1.4 17.5-4.6 24.1-10.6 3.1-2.8 7.2-7.4 6.7-12-.5-4.7-6.2-3.5-8.9-1.6-.7.5 1.2.2 1.6-0z" fill="#000000"/><path d="m532 200.5c.7 0 1.2-.5 1.2-1.2s-.5-1.1-1.2-1.2c-.7.1-1.2.4-1.2 1.1s.5 1.3 1.2 1.3z" fill="#000000"/><path d="m530.9 191.7c.1.7.6 1.2 1.3 1.2.5.1.9-.3 1-.7v-.1c.1-.6-.3-1.2-.9-1.4h-.1c-.5-.1-1.1.2-1.2.7-.1.1-.1.2-.1.3z" fill="#000000"/><path d="m532.7 184.7c.2-.1.3-.5.4-.8-.2-.5-.6-.7-1.1-.4-.2.2-.4.5-.3.8.1.4.4.6.8.6.1-.1.2-.1.2-.2z" fill="#000000"/><path d="m531.8 175.7c-.6.1-1.1.6-1 1.2v.1c0 .6.6 1 1.2 1h.2c.7-.1 1-.6 1-1.3-.1-.7-.7-1.1-1.4-1z" fill="#000000"/><path d="m547 205.7c-.7 0-1.3.5-1.3 1.2 0 .6.5 1.2 1.1 1.2h.1c.7.1 1.3-.4 1.3-1.1 0-.8-.5-1.3-1.2-1.3z" fill="#000000"/><path d="m511 161.5c-.1-.7-.8-1.1-1.4-1.1-.2 0-.4.1-.6.3.4.7.7 1.4 1.1 2.1.5-.2.9-.7.9-1.3z" fill="#000000"/><path d="m512.3 142.9c-.2.3-.2.8.2 1.1.1 0 .1.1.2.1.5.3 1.2.1 1.4-.4.2-.8-.1-1.1-.6-1.2-.5-.3-1-.1-1.2.4z" fill="#000000"/><path d="m513.2 151.8c.6.1 1.2-.3 1.3-.9v-.1c-.1-.7-.3-1.3-1-1.3-.6-.1-1.2.4-1.3 1s.2 1.2 1 1.3c-.1 0-.1 0 0 0z" fill="#000000"/><path d="m510.9 146.4c-.1-.5-.5-.8-1-.8-.7.1-1.2.6-1.2 1.3-.1.5.3.9.7.9h.1c.9.1 1.5-.4 1.4-1.4z" fill="#000000"/><path d="m508.5 154.4c-.1.6.3 1.2.9 1.3h.1c.7 0 1.3-.3 1.3-1 .1-.6-.3-1.2-.9-1.3h-.1c-.6-.1-1.1.2-1.3.8.1-0 .1.1 0 .2z" fill="#000000"/><path d="m525 168.2c-.9.1-1.5.5-1.5 1.5 0 .5.4.9.9 1 .8.2 1.6-.3 1.8-1.1v-.1c.1-.8-.5-1.2-1.2-1.3z" fill="#000000"/><path d="m520.9 166.1c.4 0 .8-.4 1-.5.3-.9-.2-1.1-.7-1.3s-1 0-1.2.5c-.2.4 0 1 .4 1.2.2.1.4.1.5.1z" fill="#000000"/><path d="m520.7 159c.7.2 1.3-.1 1.3-.9 0-.5-.4-.8-1-.9-.5 0-.9.3-1.1.8-.1.4.1.9.6 1z" fill="#000000"/><path d="m521.5 172.4c-.2 0-.7.2-.8.3-.1.3 0 .7.4.9.1 0 .2.1.3 0 .2 0 .4-.4.6-.6-.1-.2-.3-.5-.5-.6z" fill="#000000"/><path d="m520.7 180.5c.2.3.5.4.8.4.4 0 .5-.4.3-.8l-.8-.5c-.1.3-.4.7-.3.9z" fill="#000000"/><path d="m577.1 230.4c.8 0 1.1-.6 1.1-1.3-.2-.5-.5-.9-1-.7-.4.2-.7.6-.8 1s.1.8.5 1c.1-.1.2 0 .2 0z" fill="#000000"/><path d="m566.2 233.7c.5.1.8-.3.8-1-.3-.3-.6-.5-1-.6-.5-.1-1 .2-.7.8.2.4.5.7.9.8z" fill="#000000"/><path d="m565.9 226.6c.7-.1 1.1-.5 1-1 0-.7-.5-1.2-1.2-1.2 0 0 0 0-.1 0-.5 0-.9.3-.9.8v.2c.1.6.6 1.1 1.2 1.2z" fill="#000000"/><path d="m573.4 224.4c-.6-.1-1.2.3-1.3 1-.1.6.3 1.2.9 1.3h.1c.6.1 1.2-.3 1.3-.9v-.1c-.1-.6-.2-1.2-1-1.3z" fill="#000000"/><path d="m569.5 228.4c-.8-.1-1 .6-1 1.2 0 .5.4.9.9.9.8 0 1-.5 1-1.2 0-.4-.4-.8-.9-.9z" fill="#000000"/><path d="m573.1 232.4c-.2.1-.3.5-.5.7.1.5.5.8 1 .7.3-.2.4-.4.4-.7 0-.4-.3-.7-.7-.7 0-.1-.1-.1-.2 0z" fill="#000000"/><path d="m580.8 224.4c-.6-.1-1.1.2-1.3.8v.2c0 .7.2 1.3 1 1.3.7.1 1.3-.4 1.4-1 .1-.7-.4-1.3-1.1-1.3z" fill="#000000"/><path d="m509.7 140.8c.7 0 1.2-.5 1.2-1.2s-.5-1.2-1.2-1.2c0 0 0 0-.1 0-.7 0-1.1.5-1.2 1.2.2.7.6 1.2 1.3 1.2z" fill="#000000"/><path d="m540.9 214.6c-.1-.6-.6-1.2-1.2-1.2-.6-.1-1.1.4-1.2 1v.2c-.1.6.4 1.2 1 1.2h.2c.6-.1 1.1-.6 1.2-1.2z" fill="#000000"/><path d="m544.3 210.4c-.1-.5-.4-.9-.7-.9-.9.2-1.2.6-1.2 1.1.1.7.5 1.3 1.3 1 .6-.2.8-.8.6-1.2z" fill="#000000"/><path d="m543.2 219.1c.4-.1.9-.5 1-.8.2-.8-.4-1.1-1.2-1-.5.1-.8.5-.8 1 0 .4.4.8.9.8z" fill="#000000"/><path d="m543.1 204.5c.7 0 1.2-.6 1.2-1.2 0-.8-.5-1.1-1.2-1s-1 .7-1 1.4c.1.5.5.8 1 .8z" fill="#000000"/><path d="m550.6 226.8c.7 0 1.3-.3 1.3-1.1.1-.6-.3-1.2-.9-1.3h-.1c-.6-.1-1.1.2-1.3.8v.2c-.1.7.3 1.3 1 1.4-.1 0-.1 0 0 0z" fill="#000000"/><path d="m546.8 215.5c.7 0 1.2-.3 1.3-1 .1-.6-.2-1.1-.8-1.3-.1 0-.1 0-.2 0-.7-.1-1.3.2-1.3 1-.1.6.4 1.2 1 1.3z" fill="#000000"/><path d="m546.8 223c.7.2 1.3 0 1.5-.8.1-.7-.3-1.3-.9-1.5-.5-.2-1.1 0-1.4.6 0 .1-.1.2-.1.3-.2.6.1 1.2.6 1.4z" fill="#000000"/><path d="m551.2 217.2c-.5-.2-1 0-1.2.5-.2.5 0 1 .4 1.3.1.1.3.1.5.1.5.1.9-.3.8.1.5-1.6 0-1.8-.5-2z" fill="#000000"/><path d="m535.7 186.8c-.4.2-.7.6-.8 1.1-.1.6.4 1.1 1 1.2h.3c.8 0 1.1-.6 1-1.3-.4-.8-.8-1.3-1.5-1z" fill="#000000"/><path d="m536 196.6c.5 0 .9-.4 1-.9.1-.6-.3-1.2-.9-1.3h-.1c-.5-.1-1 .2-1.2.7v.4c0 .6.5 1.1 1.2 1.1z" fill="#000000"/><path d="m539.8 199.8c.2-.2.4-.4.4-.7 0-.4-.3-.7-.7-.7-.1 0-.1 0-.2 0-.5.2-.8.6-.6 1.1.2.4.6.6 1 .4.1-.1.1-.1.1-.1z" fill="#000000"/><path d="m536.9 210.8c.1-.8-.4-1.2-1.1-1.4-.2 0-.5.1-.7.2l1.2 2c.3-.2.6-.5.6-.8z" fill="#000000"/><path d="m539.5 207.7c.6.1.9-.3 1-.8s-.1-1-.6-1.2c-.8-.2-1.2.3-1.2 1.1-.1.4.3.9.8.9z" fill="#000000"/><path d="m536 204.3c.7.1 1.1-.4 1.2-1.1.1-.4-.2-.8-.6-.9-.1 0-.1 0-.2 0-.4 0-.8.3-.9.7v.2c0 .4.2 1.1.5 1.1z" fill="#000000"/><path d="m562.1 230.7c.7.2 1.2-.3 1.3-1 0-1.1-.4-1.9-1.6-2-.7 0-1.2.6-1.2 1.2v.1c0 .8.6 1.6 1.5 1.7z" fill="#000000"/><path d="m562.2 222.9c.5 0 .9-.3 1-.8v-.1c.1-.7-.4-1.3-1.1-1.3-.5 0-.9.3-1 .8v.1c-.1.6.4 1.2 1.1 1.3z" fill="#000000"/><path d="m558.4 226.6c.8 0 1-.5 1-1.2 0-.5-.4-.9-.9-.9-.8-.1-1 .6-1 1.2 0 .5.4.9.9.9z" fill="#000000"/><path d="m555.1 230.5c.7-.3 1.1-.8.8-1.5-.2-.4-.6-.7-1.1-.8-.6-.1-1.1.4-1.2.9v.3c0 .6.6 1.1 1.2 1.1z" fill="#000000"/><path d="m555.8 221.8c.1-.6-.4-1.2-1-1.3h-.1c-.6-.1-1.1.3-1.3.8v.2c-.1.6.3 1.2.8 1.3h.2c.8-.1 1.4-.3 1.4-1z" fill="#000000"/><path d="m557.9 234.1c.7.1 1.4-.3 1.6-1.1 0-.1 0-.2 0-.3-.1-.7-.5-1.2-1.2-1.1-.7 0-1.2.5-1.4 1.1-.1.5.2 1.1.7 1.2.1.2.2.2.3.2z" fill="#000000"/><path d="m507.1 143c-.1-.6-.7-.9-1.2-.8-.1 0-.2.1-.3.1-.5.1-.8.6-.7 1.1 0 .6.6 1.1 1.2 1.1h.1c.7-.3 1.1-.8.9-1.5z" fill="#000000"/><path d="m503.4 139.6c0-.2-.1-.4-.1-.6-.2.5-.4 1.1-.6 1.7.4-.2.7-.6.7-1.1z" fill="#000000"/><path d="m506.1 136.8c.5.1.9-.3 1-.8.1-.7-.4-1.3-1-1.4-.4.4-.7.8-1.1 1.2.2.6.6 1 1.1 1z" fill="#000000"/><path d="m503.4 146.4c0-.5-.5-.8-.9-.8.1.7.2 1.4.4 2.1.4-.2.7-.7.5-1.3z" fill="#000000"/><path d="m505.7 150.1c0 .3.1.6.4.8.2.1.6-.2.8-.2-.1-.3-.3-.6-.4-.8-.2-.2-.5-.2-.6 0-.2 0-.2.1-.2.2z" fill="#000000"/><path d="m528.7 196.6c.5-.1.7-.6.7-1.8-.3-.2-.6-.3-.9-.3-.5 0-.9.3-.9.8v.1c0 .2 0 .4.1.5s.2.3.2.4c.2.3.5.4.8.3z" fill="#000000"/><path d="m524.8 190.5h-.1l1 1.8c.1-.2.2-.3.2-.5 0-.7-.5-1.3-1.1-1.3z" fill="#000000"/><path d="m524.9 185.5c.5 0 .9-.3.9-.8v-.1c0-.7-.4-1.2-1.1-1.4-.5-.1-.9.2-1.1.6-.2 1.1.5 1.6 1.3 1.7z" fill="#000000"/><path d="m524.5 177.9c.7-.1 1.2-.4 1.3-1.1.1-.6-.3-1.2-1-1.3h-.1c-.6-.1-1.1.3-1.2.9v.2c-.1.6.3 1.2 1 1.3z" fill="#000000"/><path d="m528.4 179.4c-.6-.1-1.2.4-1.3 1-.1.6.3 1.2.9 1.3h.1c.6.1 1.1-.2 1.3-.8 0-.1 0-.2 0-.2.1-.6-.3-1.2-1-1.3.1 0 .1 0 0 0z" fill="#000000"/><path d="m528.2 187.4c-.2.1-.3.5-.5.7.1.5.5.8 1 .7.3-.2.4-.4.4-.7 0-.4-.3-.7-.7-.7 0-.1-.1-.1-.2 0z" fill="#000000"/><path d="m529.2 173c-.1-.3-.3-.5-.6-.6-.6-.2-.9.2-.9.7-.1.5.3.8.8.8.4-.1.8-.4.7-.9z" fill="#000000"/><path d="m514 167c.5 0 .9-.4 1-.9.1-.8-.5-1.5-1.3-1.6h-.1c-.6-.1-.9.4-1 .9-.2.7.3 1.4 1 1.6z" fill="#000000"/><path d="m513.2 157.4c-.2.1-.3.5-.5.7.1.5.5.8 1 .7.3-.2.4-.4.4-.7 0-.4-.3-.7-.7-.7 0-.1-.1 0-.2 0z" fill="#000000"/><path d="m517 170.5c.7 0 1.2-.5 1.2-1.2 0-.7-.5-1.1-1.2-1.2-.7.1-1.2.4-1.2 1.1 0 .8.5 1.3 1.2 1.3z" fill="#000000"/><path d="m516.9 155.6c.9 0 1.5-.5 1.3-1.5-.1-.5-.5-.8-1-.8-.7.1-1.2.6-1.2 1.3-.1.5.3.9.9 1-.1 0-.1 0 0 0z" fill="#000000"/><path d="m517.2 163c.6 0 1.1-.5 1-1.1 0-.1 0-.1 0-.2-.1-.6-.7-1.1-1.3-1s-1.1.7-1 1.3c-0 .8.6 1 1.3 1z" fill="#000000"/><path d="m518.4 176.7c-.1-.8-.4-1.1-1-1.1-.2 0-.3.1-.5.2.3.6.6 1.2.9 1.8.2-.3.4-.6.6-.9z" fill="#000000"/><path d="m569.5 235.1c-.5 0-1 .4-1 .9.7-.1 1.4-.3 2-.5-.2-.2-.6-.4-1-.4z" fill="#000000"/><path d="m562.3 235.4c-.4-.2-.9 0-1.1.4.7.2 1.3.3 2 .4-.2-.4-.5-.7-.9-.8z" fill="#000000"/><path d="m543.9 205.2c.4.6.7 1.2 1 1.7 7.4 12.2 20.4 25 34.8 17.8 6.3-3.2 9.8-10 10.4-16.6.6-6.8-1.2-14.1-3.8-21.1l-3.4-8.4c-.9-2.1-1.9-4.2-2.7-6.2-5.2-11.6-9.9-20.8-17.5-30.7-9.8-12.8-25.2-24.3-43-20.9-6.4 1.2-16.5 9.1-9 22.8 6.9 12.6 18.8 35.9 28.4 53.1z" fill="#fff"/><path d="m543.6 205.9-.5-.3c5.1 8.6 12.1 17.9 22.1 21 9.9 3.1 20.6-2 24.3-11.7 3.8-9.5.9-20.6-2.8-29.7-3.3-8.2-6.8-16.3-10.8-24.1-5-9.9-11.1-19.7-19.2-27.5-7.4-7.2-16.8-12.9-27.3-13.9-7.8-.7-16.4.9-20.6 8.2-4.9 8.4 1.5 17.1 5.4 24.5 9.1 17.1 17.9 34.2 27.5 51l1.3 2.3c.4.7 2.3 0 1.8-.9-8.3-14.4-16.1-29.1-23.8-43.8-2.2-4.2-4.5-8.5-6.7-12.7-2.1-4-4.7-7.9-5.2-12.5-.8-7.5 5-13.5 12.1-14.5 21.9-3.2 38.6 15.8 48.6 32.8 4.9 8.5 9.2 17.4 12.8 26.5 3.3 8 6.6 16.2 6.6 25 .1 5-1.4 10-4.4 14-3.2 4.1-8.1 6.5-13.4 6.6-10.1 0-18.2-8.6-23.5-16.3-.7-1-1.3-2-1.9-3-.4-.6-1-2.3-1.8-2.3-.4 0-1.1.1-1.3.6-.1.3 0 .7.4.8.1-.2.2-.1.3-.1z" fill="#000000"/><path d="m580.8 179.9c4.7-4.6 12.9-.3 5.5 7.1-8.5 8.4-28.7 18.5-42.4 18.2-8.9-.2-9.2-9-1.1-9.5z" fill="#fff"/><path d="m581.6 180.1c1.6-1.5 4.7-2.3 6.2-.1 1.8 2.7-1.5 6-3.3 7.7-5.2 4.6-11.2 8.3-17.5 11-6.5 3-13.6 5.4-20.8 5.8-2.6.1-6.2.1-7.7-2.5-1.2-2 .1-4.1 1.9-5 1.7-.8 3.7-.9 5.6-1.2s3.9-.7 5.7-1.2c4.4-1.2 8.7-2.8 12.7-4.9 1.2-.6.1-1.4-.8-1-4.2 2.2-8.7 3.8-13.3 4.9-2.1.5-4.2.9-6.4 1.2-1.7.2-3.4.7-5 1.4-2 1.2-3.6 3.4-2.7 5.8 1.1 2.8 4.7 3.6 7.4 3.7 8.2.2 16.4-2.6 23.7-5.9 7-3.2 14.2-7.2 19.7-12.7 2.1-2.1 4.9-6.4 1.7-8.8-2.7-2-6.6-.8-8.8 1.3-.3.3-.1.7.2.8.7.2 1.2.1 1.5-.3z" fill="#000000"/><path d="m349.1 307.2c-2.3 5.9-7.2 10.4-13.3 12.2-5.7 1.5-11.7.4-16.4-3-4.5-3-7.6-7.7-8.7-12.9-1-5.3 0-10.8 2.8-15.4 3.5-5.8 11.1-10.9 17.8-6.8.5.3 2.1-.5 1.8-.7-5.6-3.5-13.2-1-17.8 3.2-4.5 4.2-7 10.2-7 16.4.2 13.1 13.1 22.8 25.7 20.3 7.6-1.4 14-6.5 17-13.7.1-.3-1.7-.1-1.9.4z" fill="#000000"/><path d="m326.5 312.4c-.3 0-1-3.1-1-6.3 0-1.5 0-3 .2-4.5.1-1.2.3-2.1.3-2.1s.2-.9.6-2.1c.4-1.4.9-2.8 1.5-4.2 1.3-3 3.1-5.6 3.3-5.5s-1 3-1.9 6c-.4 1.5-.8 3-1 4.2s-.3 2-.4 2c0 0-.2.8-.4 2s-.5 2.7-.7 4.2c-.3 3.1-.2 6.3-.5 6.3z" fill="#000000"/><path d="m340.9 304.1c-.1.3-3.2-1-6.4-2-1.6-.5-3.2-1-4.4-1.3l-2.1-.5-2.1-.6c-1.2-.3-2.8-.7-4.5-1.1-3.3-.7-6.6-1.1-6.6-1.4s3.4-.5 6.8-.1c1.7.2 3.4.4 4.7.7s2.2.4 2.2.5.9.3 2.1.7 2.8 1.1 4.4 1.8c3.2 1.3 6 3.1 5.9 3.3z" fill="#000000"/><path d="m141.6 366c-.1 0-.1 0-.2 0 .4.5.8 1.1 1.2 1.7.1-.1.2-.3.2-.5 0-.6-.5-1.2-1.2-1.2z" fill="#000000"/><path d="m130.2 334.4c-.2-.6-.4-1.2-.6-1.8-.1.2-.1.3-.1.5-.1.6.2 1.1.7 1.3z" fill="#000000"/><path d="m131.9 355.8c0-.6-.6-1-1.2-1-.1 0-.2 0-.2 0-.5 0-.9.5-.9 1 0 .3.1.5.2.7.3.2.7.4 1 .6.7 0 1-.6 1.1-1.3z" fill="#000000"/><path d="m130.3 347.1c-.5.1-.9.5-.9 1 0 .7.4 1.3 1.1 1.3s1.1-.6 1.2-1.3c-.1-.6-.7-1.1-1.4-1z" fill="#000000"/><path d="m130.4 339.9c-.5.1-.9.5-.8 1 0 .7.5 1.2 1.2 1.2h.1c.6-.1 1.1-.6 1-1.3 0-.6-.5-1-1.1-1-.2 0-.3 0-.4.1z" fill="#000000"/><path d="m141.6 360.7c.7 0 1.3-.2 1.2-1 0-.5-.4-.8-1-.9-.6.1-1.2.2-1.1 1 0 .5.4.9.9.9-.1 0 0 0 0 0z" fill="#000000"/><path d="m141.5 352.1c.2.2.5.4.8.4-.2-.3-.4-.6-.6-.9-.1.2-.3.4-.2.5z" fill="#000000"/><path d="m126.7 316c-.1-.7-.1-1.5-.1-2.2h-.1c-.5.1-.8.6-.7 1.1-.1.6.3 1.1.9 1.1z" fill="#000000"/><path d="m123 312.4c.7 0 1.2-.6 1.2-1.3 0-.3-.2-.6-.4-.9-.3.7-.6 1.4-.9 2.1 0 .1.1.1.1.1z" fill="#000000"/><path d="m123 324.8c-.7 0-1.3.2-1.4 1 0 1 .6 1.4 1.5 1.6.9 0 1.1-.7 1.1-1.3.1-.7-.5-1.2-1.2-1.3.1 0 .1 0 0 0z" fill="#000000"/><path d="m125.9 307.1c-.1.4.1.8.4 1.1 0-.6 0-1.2 0-1.8-.3.2-.4.4-.4.7z" fill="#000000"/><path d="m123.3 319.4c.8-.1 1-.7.8-1.4 0-.5-.5-.8-.9-.8-.8.1-1 .7-.8 1.4 0 .5.4.8.9.8z" fill="#000000"/><path d="m135 344.9c-.1-.3-.1-.7-.3-.8-.3-.2-.8-.1-1 .2 0 .1-.1.1-.1.2 0 .3.1.6.3.8.5.3.9.1 1.1-.4z" fill="#000000"/><path d="m134 359s-.1 0-.1.1c.3.2.7.5 1 .7 0-.1.1-.1.1-.2-.1-.5-.5-.8-1-.6z" fill="#000000"/><path d="m134.5 353.2c.3-.1.5-.7.6-.9 0-.9-.4-1.2-.9-1.2s-.9.3-.9.8v.1c.1.8.4 1.4 1.2 1.2z" fill="#000000"/><path d="m126.9 353.2c.7-.1 1.2-.7 1.1-1.4-.1-.5-.5-.9-1-.8-.7.1-1.2.6-1.1 1.3v.1c0 .5.4.8 1 .8-.1 0-.1 0 0 0z" fill="#000000"/><path d="m126.5 321.7c0 .3.1.6.4.8.2 0 .3 0 .5-.1 0-.3-.1-.6-.1-1-.2-.2-.5-.1-.6 0-.2.1-.2.2-.2.3z" fill="#000000"/><path d="m126.5 338.2c.8.2 1.2-.3 1.5-.9.1-.5-.1-1-.6-1.2-.6-.2-1.2.1-1.4.7 0 .1 0 .2-.1.3-.2.4.1.9.6 1.1z" fill="#000000"/><path d="m127 330.7c.5-.1.8-.5.8-1s-.5-1-1-.9c-.1 0-.2 0-.3.1-.5 0-.8.4-.8.9.1.8.6 1 1.3.9z" fill="#000000"/><path d="m126.7 344.3c-.2.3-.1.7.2.9.1.1.2.1.3.1.2 0 .5-.3.7-.5-.1-.3-.2-.7-.4-.8-.3 0-.6.1-.8.3z" fill="#000000"/><path d="m122.7 332.4c-.6 0-1.1.6-1.1 1.2v.1c0 .8.6 1 1.3 1 .6 0 1.1-.5 1.1-1.1 0-.1 0-.1 0-.2-.1-.6-.6-1.1-1.3-1z" fill="#000000"/><path d="m119.9 344.6c0-.2-.3-.4-.5-.6-.1 0-.1.1-.2.1l-.1 1.2c.5.1.8-.2.8-.7z" fill="#000000"/><path d="m122.7 349.7c.6-.1 1.2-.2 1.3-1 .1-.6-.3-1.2-1-1.3 0 0 0 0-.1 0-.6-.1-1.2.3-1.3.9v.1c-0 .7.4 1.1 1.1 1.3z" fill="#000000"/><path d="m120.7 330.2c0-.2-.1-.4-.2-.6l-.1 1.4c.2-.2.3-.5.3-.8z" fill="#000000"/><path d="m120.6 337c0-.4-.3-.7-.7-.9l-.2 2.1c.6-0 1-.6.9-1.2z" fill="#000000"/><path d="m122.6 340.6c0 .3.1.6.4.8.5.2.9-.1.9-.7 0-.2-.4-.4-.6-.6-.3.2-.6.3-.7.5z" fill="#000000"/><path d="m119.3 351.1c-.3 0-.5.1-.7.3l-.1.8s.6.1 1.5.4c.1-.1.1-.2.2-.3 0-.8-.3-1.1-.9-1.2z" fill="#000000"/><path d="m144.6 370.7c0 .5.3.9.8.9h.2c.4 0 .8-.4.9-.8 0-.8-.4-1-.9-1s-.9.4-1 .9z" fill="#000000"/><path d="m146.5 377.8c.1.5.1 1 .2 1.5.1-.2.2-.3.2-.5 0-.4-.1-.8-.4-1z" fill="#000000"/><path d="m145.6 362.1c-.7 0-1.2.3-1.3 1 0 .6.2 1.3 1 1.3.6.1 1.2-.3 1.3-1 0 0 0 0 0-.1.1-.5-.3-1.1-1-1.2z" fill="#000000"/><path d="m138 362.3c.3.3.6.6.9.9 0-.4-.4-.8-.9-.9z" fill="#000000"/><path d="m137.7 354.8c-.6 0-1.1.5-1.1 1v.2c0 .6.6 1.1 1.2 1h.1c.7-.1 1-.6 1.1-1.3-.1-.6-.6-1.1-1.2-1 0 .1-.1.1-.1.1z" fill="#000000"/><path d="m137.3 348.2c0 .7.3 1.3 1.2 1.1.3-.1.5-.7.7-.9 0-.3-.1-.6-.3-.8-.2-.2-.4-.3-.7-.3-.5-.1-.9.3-.9.9 0-.1 0 0 0 0z" fill="#000000"/><path d="m749.4 220.6c-.5 0-.9.3-.9.8v.1c-.1.6.4 1.2 1.1 1.3h.1c.6 0 .9-.4 1-.9-.1-.6-.6-1.2-1.3-1.3z" fill="#000000"/><path d="m749.7 230.3c.4 0 .7-.5.9-.7 0-.7-.2-1-.7-1.2-.6-.2-.9.2-1 .7-.1.6-.1 1.3.8 1.2z" fill="#000000"/><path d="m750.2 213.6c-.2-.2-.6-.3-.8-.1-.3.3-.5.7-.5 1.1-.1.4.2.7.5.8h.3c.3-.1.5-.3.7-.5 0-.4-.1-.8-.1-1.1z" fill="#000000"/><path d="m750.1 243.2c-.8-.3-1.1.1-1.2.6s-.2 1 .3 1.2c.7.3 1.2-.2 1.3-.8.1-.5 0-.9-.4-1z" fill="#000000"/><path d="m748.2 236.4c-.1.7.3 1.2 1.1 1.3.6-.1 1.2-.2 1.3-1 .1-.6-.4-1.2-1-1.3-.7-.1-1.3.4-1.4 1z" fill="#000000"/><path d="m746.5 232.6c-.1-.5-.7-.6-1.1-.5-.5.1-.8.5-.8 1 .1.5.5.8 1 .8.6 0 1-.5 1-1.1-.1-.1-.1-.1-.1-.2z" fill="#000000"/><path d="m745.4 217.2c0 .6 0 1.2.1 1.9.1 0 .3 0 .4-.1.5-.1.8-.5.7-1-.1-.6-.6-.9-1.2-.8z" fill="#000000"/><path d="m744.7 202.8c-.2.8.3 1.2 1.1 1.2.1 0 .3 0 .4-.1-.3-.5-.5-1.1-.8-1.6-.4.1-.7.3-.7.5z" fill="#000000"/><path d="m746.6 210.4c-.3-.7-.7-1.2-1.5-.9-.1.1-.2.1-.3.2.1.7.2 1.3.2 2 .2.1.4.1.5 0 .6-.1 1.1-.6 1-1.3.1.1.1 0 .1 0z" fill="#000000"/><path d="m746.6 225.7c0-.7-.4-1.2-1.1-1.3h-.1c0 .8-.1 1.6-.2 2.3.7.1 1.3-.4 1.4-1z" fill="#000000"/><path d="m745.6 240.7c.5.1.9-.1.9-.7 0-.5-.4-.8-.9-.8-.5.1-.8.5-.7.9v.1c0 .3.4.5.7.5z" fill="#000000"/><path d="m745.9 248.7c.5-.1.8-.5.7-1-.1-.6-.6-.9-1.2-.8-.1 0-.1 0-.2.1-.5.1-.9.4-.7 1 .1.6.6.9 1.2.8 0-.1.1-.1.2-.1z" fill="#000000"/><path d="m730.9 256.2c.5-.1.8-.6.8-1.1-.1-.3-.3-.7-.6-.9-.2.7-.5 1.4-.6 2z" fill="#000000"/><path d="m729.5 261.5v1.8c.1.1.3.2.4.2.3-.7.7-1.5 1.1-2.3-.2-.1-.5-.2-.8-.1s-.5.2-.7.4z" fill="#000000"/><path d="m733.3 251c-.1.7.1 1.4.9 1.5.7.1 1.2-.4 1.3-1.2 0-.7-.6-1.2-1.3-1.2-.5-.1-.8.4-.9.9z" fill="#000000"/><path d="m737.8 247c-.2.1-.3.5-.4.7.1.6.5.9 1 .7.3-.2.4-.4.4-.7 0-.4-.3-.7-.7-.7-.1 0-.2 0-.3 0z" fill="#000000"/><path d="m741.8 245.2c.7-.1 1-.6 1.1-1.3-.1-.6-.6-1.1-1.2-1h-.1c-.6 0-1.1.5-1.1 1v.2c0 .6.6 1.1 1.2 1 0 .1.1.1.1.1z" fill="#000000"/><path d="m742.8 236.7c0-.2 0-.5-.1-.7-.3.6-.6 1.1-1 1.6.6.1 1.1-.3 1.1-.9z" fill="#000000"/><path d="m741.8 250.3c-.6-.1-1.2.3-1.3.9v.1.5c.7-.4 1.4-.7 2.2-1-.2-.3-.5-.5-.9-.5z" fill="#000000"/><path d="m605 620.4c0-.1-.1-.1-.1-.2h-.1-.1c-.6-.1-1.7.3-1.6.7 2.1 14.5.9 31.6-9.4 43-.6.7-1.2 1.3-1.9 1.8-.2.2-.3.4 0 .5 3 1.6 6 3.1 9 4.5.4.2 1.6-.1 1.7-.6 2.6-8.4 4-17.1 4.4-25.9.3-7.9-.3-15.9-1.9-23.8z" fill="#000000"/><path d="m781.3 443.7c3.9-3.5 8.6-6 13.7-7.4 7-1.8 14.4-.7 21.2 1.6.4.1 2.1-.5 1.6-.7-7.4-2.5-15.3-3.3-22.9-1.4-5.7 1.5-10.9 4.3-15.3 8.1-.3.3.3.3.4.3.5-.1 1-.2 1.3-.5z" fill="#000000"/><path d="m799.3 435.4c4.1-1.1 7.8-3.3 10.7-6.3 3-3.1 4.9-7.1 5.4-11.5 0-.2-1.9 0-1.9.5-.4 4-2.1 7.8-4.8 10.7-2.5 2.8-5.8 4.9-9.5 6-.2 0-1 .3-.9.5s.9.1 1 .1z" fill="#000000"/></svg></g></svg>