<?xml version="1.0" encoding="UTF-8"?><svg xmlns="http://www.w3.org/2000/svg" viewBox="0 0 194.24 166.09"><defs><style>.d{fill:#92acef;}.e{fill:#fff;}.f{fill:#e79f33;}.g{fill:#111;}.h{fill:#ef4910;}.i{fill:#003f5a;}.j{fill:#fbb348;}</style></defs><g id="a"/><g id="b"><g id="c"><g transform="translate(320.0 186.0) rotate(0.0 280.0 214.0)  scale(0.28476077298311825 0.2849579487288745)"><path class="j" d="M75.39,119.96l8.15,1.21-1.56,16.08-12.54-2.51,5.96-14.78Z"/><path class="g" d="M81.97,137.52s-.03,0-.04,0l-12.54-2.51c-.13-.03-.22-.17-.2-.32,0-.02,0-.04,.02-.07l5.96-14.78c.04-.11,.15-.18,.26-.16l8.15,1.21c.13,.02,.23,.15,.21,.3l-1.56,16.08c-.01,.14-.12,.25-.25,.25h0Zm-12.19-2.99l11.97,2.39,1.51-15.52-7.72-1.15-5.76,14.27Z"/><path class="j" d="M117.77,119.96l-8.15,1.21,1.56,16.08,12.54-2.51-5.96-14.78Z"/><path class="g" d="M111.18,137.52c-.13,0-.23-.11-.25-.25l-1.56-16.08c-.01-.15,.08-.28,.21-.3l8.15-1.21c.11-.02,.21,.05,.26,.16l5.96,14.78c.06,.14,0,.3-.12,.37-.02,0-.04,.02-.06,.02l-12.54,2.51s-.03,0-.04,0h0Zm-1.29-16.12l1.51,15.52,11.97-2.39-5.76-14.27-7.72,1.15Z"/><path class="e" d="M96.73,114.89v50.92s-19.84-4.06-16.64-28.92c.47-3.66,2.35-5.4,2.54-8.94,.29-5.5-1.78-7.23-1.78-7.23,0,0,9.49-7.84,15.88-5.83h0Z"/><path class="g" d="M96.73,166.09s-.03,0-.04,0c-.05-.01-5.07-1.07-9.63-5.19-2.68-2.42-4.68-5.41-5.94-8.89-1.58-4.33-2-9.43-1.27-15.15,.23-1.78,.78-3.11,1.31-4.39,.58-1.4,1.13-2.72,1.22-4.53,.14-2.75-.32-4.51-.74-5.5-.45-1.06-.94-1.49-.94-1.49-.11-.09-.13-.27-.05-.39,.01-.02,.03-.04,.05-.05,1.77-1.4,3.63-2.64,5.58-3.69,4.26-2.3,7.8-3.03,10.51-2.18,.11,.03,.18,.14,.18,.27v50.92c0,.15-.11,.28-.25,.28h0Zm-15.49-45.34c.56,.66,1.87,2.71,1.63,7.21-.1,1.91-.67,3.28-1.27,4.73-.52,1.25-1.05,2.54-1.27,4.24-.72,5.62-.31,10.62,1.24,14.87,1.23,3.39,3.18,6.3,5.8,8.67,3.84,3.47,8,4.72,9.12,5.01v-50.37c-5.64-1.59-13.75,4.47-15.25,5.65h0Z"/><path class="e" d="M96.97,114.89v50.92s19.84-4.06,16.64-28.92c-.47-3.66-2.35-5.4-2.54-8.94-.29-5.5,1.78-7.23,1.78-7.23,0,0-9.49-7.84-15.88-5.83h0Z"/><path class="g" d="M96.97,166.09c-.14,0-.25-.12-.25-.28v-50.92c0-.12,.07-.23,.18-.27,2.71-.85,6.25-.12,10.51,2.18,1.95,1.06,3.82,2.29,5.58,3.69,.11,.09,.13,.26,.05,.39-.01,.02-.03,.04-.05,.06,0,0-.49,.43-.94,1.49-.42,.99-.88,2.74-.74,5.5,.09,1.81,.64,3.13,1.22,4.53,.53,1.28,1.08,2.61,1.31,4.39,.74,5.72,.31,10.82-1.27,15.15-1.26,3.47-3.26,6.46-5.94,8.89-4.56,4.12-9.58,5.18-9.63,5.19-.01,0-.03,0-.04,0h0Zm.25-50.99v50.37c1.12-.29,5.3-1.55,9.13-5.02,2.61-2.36,4.56-5.28,5.79-8.67,1.54-4.24,1.95-9.24,1.23-14.85-.22-1.7-.75-2.99-1.27-4.24-.6-1.45-1.17-2.81-1.27-4.73-.23-4.51,1.07-6.55,1.63-7.21-1.5-1.18-9.61-7.23-15.25-5.65Z"/><path class="d" d="M92.72,164.07s.91,.44,1.87,.79,1.98,.6,1.98,.6v-50.51s-1.92-.48-3.84-.1v49.22Z"/><path class="d" d="M101.01,164.07s-.91,.44-1.87,.79c-.96,.35-1.98,.6-1.98,.6v-50.51s1.92-.48,3.84-.1v49.22Z"/><path class="e" d="M92.71,164.36v0Z"/><path class="g" d="M92.71,164.64c-.14,0-.25-.12-.25-.28v-49.64c0-.15,.12-.28,.25-.28s.25,.12,.25,.28v49.64c0,.15-.12,.28-.25,.28Z"/><path class="e" d="M100.99,164.36v0Z"/><path class="g" d="M100.99,164.64c-.14,0-.25-.12-.25-.28v-49.64c0-.15,.1-.28,.24-.28s.25,.12,.25,.28v49.64c0,.15-.1,.28-.24,.28Z"/><path class="e" d="M83.38,156.04s.79-3.92,4.62-4.2l-4.62,4.2Z"/><path class="g" d="M83.38,156.32c-.14,0-.25-.12-.25-.28,0-.02,0-.04,0-.06,0-.04,.88-4.13,4.84-4.41,.14,0,.25,.11,.26,.26,0,.15-.09,.28-.23,.29-3.6,.26-4.39,3.94-4.39,3.98-.03,.13-.13,.22-.24,.22Z"/><path class="e" d="M110.32,156.04s-.79-3.92-4.62-4.2l4.62,4.2Z"/><path class="g" d="M110.32,156.32c-.12,0-.21-.09-.24-.21-.03-.15-.81-3.72-4.39-3.98-.14,0-.24-.14-.23-.29,0-.15,.13-.27,.26-.26,3.96,.28,4.84,4.37,4.84,4.41,.03,.15-.05,.3-.19,.33-.02,0-.04,0-.05,0h0Z"/><path class="e" d="M81.55,152.16s.79-3.92,4.62-4.2l-4.62,4.2Z"/><path class="g" d="M81.55,152.44c-.14,0-.25-.12-.25-.28,0-.02,0-.04,0-.06,0-.04,.88-4.13,4.84-4.41,.14,0,.25,.11,.26,.26,0,.15-.09,.28-.23,.29h0c-3.6,.26-4.39,3.94-4.39,3.98-.03,.13-.13,.22-.24,.22h0Z"/><path class="e" d="M112.15,152.16s-.79-3.92-4.62-4.2l4.62,4.2Z"/><path class="g" d="M112.15,152.44c-.12,0-.22-.09-.24-.22-.03-.15-.81-3.72-4.39-3.98-.14,0-.24-.14-.23-.29,0-.15,.13-.27,.26-.26,3.96,.29,4.84,4.37,4.84,4.41,.03,.15-.05,.3-.19,.33-.02,0-.04,0-.05,0h0Z"/><path class="e" d="M80.3,147.97s.79-3.92,4.62-4.2l-4.62,4.2Z"/><path class="g" d="M80.3,148.25c-.14,0-.25-.12-.25-.28,0-.02,0-.04,0-.06,0-.04,.88-4.12,4.84-4.41,.14,0,.25,.11,.26,.26,0,.15-.09,.28-.23,.29h0c-3.6,.26-4.39,3.94-4.39,3.98-.03,.13-.13,.22-.24,.22Z"/><path class="e" d="M113.4,147.97s-.79-3.92-4.62-4.2l4.62,4.2Z"/><g><path class="g" d="M113.4,148.25c-.12,0-.21-.09-.24-.22-.03-.16-.81-3.72-4.39-3.98-.14,0-.24-.14-.23-.29s.13-.27,.26-.26c3.96,.29,4.84,4.37,4.84,4.41,.03,.15-.05,.3-.19,.33-.02,0-.04,0-.06,0h0Z"/><path class="g" d="M92.77,159.13c-.14,0-.25-.12-.25-.28,0-.15,.11-.28,.25-.28l3.83-.04h0c.14,0,.25,.12,.25,.28,0,.15-.11,.28-.25,.28l-3.83,.04h0Z"/><path class="g" d="M92.91,152.36c-.14,0-.25-.12-.25-.28,0-.15,.11-.28,.25-.28l3.83-.04h0c.14,0,.25,.12,.25,.28,0,.15-.11,.28-.25,.28h0l-3.83,.04h0Z"/><path class="g" d="M92.85,150.16c-.14,0-.25-.12-.25-.28,0-.15,.11-.28,.25-.28l3.83-.04h0c.14,0,.25,.12,.25,.28,0,.15-.11,.28-.25,.28l-3.83,.04h0Z"/><path class="g" d="M93.02,132.62c-.14,0-.25-.12-.25-.28,0-.15,.11-.28,.25-.28l3.83-.04c.14,0,.25,.12,.25,.27,0,.15-.11,.28-.24,.28l-3.83,.04h0Z"/><path class="g" d="M92.89,130.06c-.14,0-.25-.12-.25-.28,0-.15,.11-.28,.25-.28h0l3.83-.04h0c.14,0,.25,.12,.25,.28,0,.15-.11,.28-.25,.28l-3.83,.04h0Z"/><path class="g" d="M93.03,127.04c-.14,0-.25-.12-.25-.28,0-.15,.11-.28,.25-.28l3.83-.04h0c.14,0,.25,.12,.25,.28,0,.15-.11,.28-.25,.28l-3.83,.04h0Z"/><path class="g" d="M92.99,121.94c-.14,0-.25-.12-.25-.28,0-.15,.11-.28,.25-.28h0l3.83-.04h0c.14,0,.25,.12,.25,.28,0,.15-.11,.28-.25,.28h0l-3.83,.04h0Z"/><path class="g" d="M97.08,125.04c-.14,0-.25-.12-.25-.28,0-.15,.11-.28,.25-.28l3.83-.04h0c.14,0,.25,.12,.25,.28s-.11,.28-.25,.28l-3.83,.04h0Z"/><path class="g" d="M97.04,130.85c-.14,0-.25-.12-.25-.28,0-.15,.11-.28,.25-.28l3.83-.04h0c.14,0,.25,.12,.25,.28,0,.15-.11,.28-.25,.28l-3.83,.04h0Z"/><path class="g" d="M97.11,138.47c-.14,0-.25-.12-.25-.28,0-.15,.11-.28,.25-.28l3.83-.04h0c.14,0,.25,.12,.25,.28s-.11,.28-.25,.28l-3.83,.04h0Z"/><path class="g" d="M97.02,141.35c-.14,0-.25-.12-.25-.28,0-.15,.11-.28,.25-.28l3.83-.04h0c.14,0,.25,.12,.25,.28,0,.15-.11,.28-.25,.28l-3.83,.04h0Z"/><path class="g" d="M97.14,150.6c-.14,0-.25-.12-.25-.28,0-.15,.11-.28,.25-.28l3.83-.04h0c.14,0,.25,.12,.25,.28s-.11,.28-.25,.28h0l-3.83,.04h0Z"/><path class="g" d="M97.05,158.31c-.14,0-.25-.12-.25-.28,0-.15,.11-.28,.25-.28l3.83-.04h0c.14,0,.25,.12,.25,.28,0,.15-.11,.28-.25,.28l-3.83,.04h0Z"/><path class="g" d="M97.11,161.83c-.14,0-.25-.12-.25-.28,0-.15,.11-.28,.25-.28l3.83-.04h0c.14,0,.25,.12,.25,.28,0,.15-.11,.28-.25,.28l-3.83,.04h0Z"/></g><path class="i" d="M93.19,26.11s-9.43,16.95-15.22,19.05c-5.78,2.09-10.61,.47-13.67,2.87-4.02,3.16-4.12,6.57-6.75,10.03-3.74,4.93-14.04,.41-17.12,7.74-2.48,5.9-.91,15.87,15.02,17.96,15.93,2.09,100.17,11.28,100-13.4-.12-17.21-14.71-11.77-19.51-15.33-3.87-2.87-3.55-5.98-7.29-8.12-4.73-2.7-14.71,2.02-19.51-8.59-4.8-10.61-15.96-12.21-15.96-12.21h0Z"/><path class="g" d="M105.65,87.45c-.73,0-1.46,0-2.2,0-22.41-.17-43.93-2.86-48.01-3.4-9.57-1.26-13.44-5.28-15-8.43-1.49-3-1.57-6.71-.21-9.93,1.77-4.21,5.77-4.64,9.63-5.06,3.04-.33,5.92-.64,7.52-2.75,.99-1.3,1.62-2.62,2.24-3.89,.99-2.06,2.02-4.2,4.55-6.18,1.68-1.32,3.85-1.46,6.37-1.63,2.19-.14,4.68-.31,7.36-1.28,5.63-2.04,14.99-18.76,15.08-18.93,.05-.09,.15-.14,.24-.13,.12,.02,2.87,.42,6.25,2.15,3.13,1.59,7.39,4.66,9.9,10.21,3.15,6.97,8.54,7.18,13.29,7.37,2.32,.09,4.51,.18,6.12,1.1,2,1.14,2.86,2.54,3.78,4.03,.84,1.35,1.71,2.75,3.53,4.11,1.36,1.01,3.64,1.28,6.06,1.57,6.01,.71,13.48,1.6,13.56,13.99,.02,2.83-1.05,5.34-3.18,7.48-3.57,3.58-10.21,6.19-19.75,7.77-7.35,1.22-16.47,1.83-27.13,1.83Zm-12.33-61.03c-.45,.8-2.64,4.62-5.37,8.61-4.12,6.02-7.45,9.52-9.9,10.4-2.74,.99-5.26,1.16-7.49,1.31-2.44,.16-4.55,.3-6.12,1.53-2.43,1.91-3.39,3.89-4.4,5.99-.63,1.3-1.27,2.64-2.3,3.99-1.73,2.28-4.71,2.6-7.85,2.94-3.73,.4-7.58,.82-9.23,4.74-1.29,3.06-1.21,6.58,.2,9.42,1.51,3.04,5.27,6.92,14.63,8.15,4.08,.54,25.57,3.22,47.96,3.39,11.59,.09,21.43-.52,29.25-1.82,9.44-1.56,16-4.13,19.5-7.64,2.02-2.03,3.03-4.4,3.02-7.07-.04-5.3-1.46-8.87-4.35-10.91-2.53-1.79-5.85-2.18-8.77-2.53-2.48-.29-4.82-.57-6.28-1.66-1.9-1.41-2.8-2.86-3.66-4.25-.88-1.43-1.72-2.78-3.6-3.85-1.51-.86-3.65-.95-5.91-1.04-2.33-.09-4.98-.2-7.39-1.18-2.79-1.13-4.85-3.26-6.32-6.5-2.44-5.4-6.59-8.39-9.65-9.95-1.9-.98-3.91-1.68-5.97-2.08h0Z"/><path class="g" d="M141.2,52.78c-1.01,0-2.01-.21-2.95-.62-1.93-.83-2.94-2.57-3.93-4.25-1.03-1.75-2-3.41-3.93-4.17-2.17-.85-3.95-.47-6.01-.03-1.59,.34-3.39,.73-5.64,.58-3.49-.23-8.14-3.3-8.33-3.43-.12-.08-.16-.25-.09-.38s.22-.17,.34-.1c.05,.03,4.74,3.13,8.11,3.35,2.19,.14,3.96-.24,5.52-.57,2.13-.46,3.97-.85,6.26,.05,2.09,.82,3.16,2.63,4.18,4.39,.98,1.68,1.91,3.27,3.69,4.04,3.61,1.56,6.63-.55,6.66-.58,.12-.08,.27-.04,.34,.09,.07,.13,.04,.3-.07,.38-1.26,.82-2.7,1.25-4.16,1.25h0Z"/><path class="h" d="M96.77,77.1s58.05-2.58,57.95,26.84c-.08,26.04-34.19,43.62-37.52,25.29-2.99-16.45,11.52-13.12,6.69-24.09-4.08-9.26-21.03-10.23-27.36-10.09-6.14,.14-24.02,2.29-27.06,10.91-3.97,11.26,10.16,10.58,7.76,20.55-4.98,20.7-39.23,4.77-39.23-20.52,0-29.44,40.08-28.23,58.76-28.88h0Z"/><path class="g" d="M126.12,137.07c-4.95,0-8.25-2.77-9.16-7.78-1.6-8.82,1.8-12.12,4.53-14.77,2.45-2.37,4.38-4.25,2.17-9.25-1.73-3.92-5.99-6.76-12.67-8.42-6.26-1.56-12.65-1.55-14.46-1.51-3.42,.08-9.31,.72-14.64,2.27-4.68,1.36-10.6,3.93-12.2,8.47-2.02,5.72,.73,8.2,3.63,10.81,2.62,2.36,5.32,4.8,4.14,9.7-.9,3.73-2.74,6.44-5.48,8.07-2.47,1.47-5.62,1.97-9.1,1.45-5.8-.86-12.09-4.46-16.84-9.64-5.35-5.84-8.29-13.11-8.29-20.47,0-6.47,1.95-11.9,5.79-16.16,3.28-3.64,8.05-6.52,14.18-8.55,11.17-3.72,24.81-4.07,34.78-4.33,1.51-.04,2.94-.08,4.26-.12,.16,0,9.84-.41,21.11,1.06,6.65,.87,12.55,2.2,17.53,3.97,6.25,2.22,11.07,5.13,14.33,8.66,3.49,3.76,5.25,8.28,5.23,13.43-.03,8.1-3.37,16.18-9.43,22.76-5.24,5.7-12.07,9.64-17.82,10.27-.55,.06-1.09,.09-1.6,.09h0Zm-28.54-42.31c2.61,0,8.11,.19,13.52,1.54,6.83,1.71,11.2,4.64,13,8.72,2.37,5.39,.21,7.49-2.29,9.92-2.77,2.69-5.92,5.74-4.37,14.24,.49,2.73,1.7,4.73,3.57,5.96,1.72,1.13,4.03,1.58,6.66,1.28,5.64-.62,12.35-4.5,17.52-10.12,5.96-6.47,9.25-14.42,9.28-22.36,.02-4.99-1.69-9.38-5.08-13.03-3.21-3.47-7.97-6.34-14.14-8.53-4.95-1.76-10.82-3.09-17.44-3.95-11.28-1.47-20.94-1.06-21.04-1.06h0c-1.32,.05-2.75,.08-4.26,.12-9.93,.26-23.54,.61-34.65,4.3-6.04,2.01-10.75,4.84-13.97,8.42-3.75,4.15-5.65,9.45-5.65,15.77,0,7.21,2.89,14.34,8.14,20.07,4.67,5.1,10.86,8.65,16.56,9.49,3.38,.5,6.43,.02,8.81-1.39,2.62-1.55,4.38-4.15,5.24-7.73,1.1-4.56-1.37-6.78-3.97-9.13-2.92-2.63-5.93-5.35-3.78-11.45,1.35-3.81,5.56-6.77,12.53-8.8,5.37-1.56,11.31-2.21,14.75-2.28,.26,0,.62-.01,1.06-.01h0Z"/><path class="d" d="M96.48,51.33s-10.41-8.92-22.52,4.78c-12.11,13.69-10.2,13.09-17.19,19.6-8.82,8.21-28.91,7.1-24.26,26.16,4.11,16.86,19.68,7.97,37.24-10.71,17.56-18.68,12.59-24.57,27.34-24.66,14.75-.09,11.41,7.08,26.63,25.26,13.97,16.7,32.62,24.37,37.54,11.94,6.02-15.18-5.35-16.15-25.59-30.06-12.49-8.59-20.56-33.24-39.2-22.3Z"/><path class="g" d="M41.28,111.08c-.85,0-1.69-.12-2.5-.36-3.13-.98-5.32-3.94-6.5-8.79-3.24-13.3,5.45-17.01,13.85-20.59,3.81-1.62,7.75-3.3,10.49-5.86,3.87-3.6,5.02-5.04,7.31-7.9,1.89-2.36,4.47-5.58,9.86-11.68,2.79-3.15,5.72-5.37,8.72-6.59,2.33-.97,4.82-1.31,7.29-1.01,3.67,.46,6.13,2.24,6.71,2.7,13.01-7.54,20.98,2.13,28.68,11.49,3.36,4.07,6.82,8.29,10.63,10.9,4.79,3.29,9.02,5.82,12.76,8.06,6,3.59,10.33,6.18,12.66,9.39,2.45,3.38,2.53,7.26,.27,12.96-1.36,3.42-3.74,5.47-7.08,6.1-3.99,.76-9.08-.59-14.71-3.88-5.59-3.27-11.18-8.14-16.16-14.09-5.24-6.26-8.22-11.11-10.62-15.02-4.44-7.22-6.27-10.21-15.83-10.16-4.51,.03-7.18,.59-9.21,1.95-2,1.34-3.37,3.43-5.44,6.59-2.49,3.8-5.91,9.01-12.52,16.04-6.54,6.96-12.43,12.16-17.5,15.47-4.35,2.84-8.08,4.26-11.14,4.26h0Zm46.78-62.33c-1.85,0-3.68,.38-5.41,1.1-2.92,1.19-5.79,3.36-8.52,6.45-5.38,6.08-7.96,9.3-9.84,11.66-2.31,2.88-3.47,4.33-7.36,7.96-2.81,2.62-6.79,4.31-10.63,5.95-4.13,1.76-8.4,3.58-11.13,6.52-1.45,1.57-2.37,3.32-2.81,5.37-.49,2.31-.36,4.94,.39,8.03,1.13,4.65,3.21,7.48,6.16,8.4,6.36,1.99,16.97-4.66,30.67-19.24,6.58-7,9.98-12.18,12.46-15.97,4.16-6.34,5.71-8.71,15.05-8.77,.09,0,.18,0,.27,0,4.6,0,7.55,.73,9.84,2.44,2.28,1.7,3.89,4.32,6.12,7.96,2.39,3.89,5.36,8.72,10.57,14.95,4.94,5.9,10.48,10.74,16.03,13.98,5.54,3.24,10.52,4.56,14.4,3.82,3.17-.6,5.43-2.55,6.71-5.78,2.18-5.49,2.12-9.2-.2-12.39-2.26-3.12-6.56-5.69-12.51-9.25-3.74-2.24-7.99-4.78-12.78-8.08-3.86-2.65-7.35-6.9-10.73-11-3.81-4.62-7.75-9.41-12.25-11.99-2.41-1.38-4.79-2.04-7.27-2.02-2.79,.03-5.64,.92-8.71,2.72-.09,.05-.19,.04-.26-.03-.03-.02-2.61-2.2-6.62-2.7-.55-.07-1.1-.1-1.65-.1h0Z"/><path class="d" d="M83.3,64.06c1.75,2.02,2.81,9.72,6.27,12.87s10.17,4.48,14.78,.48c4.02-3.48,3.94-10.73,6.28-14.2"/><path class="g" d="M97.5,80.17c-3.05,0-6.05-1.18-8.09-3.03-2.13-1.94-3.37-5.57-4.38-8.49-.67-1.95-1.25-3.64-1.91-4.41-.09-.11-.09-.28,0-.39,.1-.11,.25-.1,.35,0h0c.74,.85,1.33,2.58,2.02,4.59,.98,2.86,2.2,6.42,4.23,8.26,1.73,1.58,4.28,2.65,6.82,2.86,2.04,.17,5.02-.1,7.65-2.38,2.34-2.03,3.24-5.33,4.12-8.52,.59-2.15,1.15-4.19,2.12-5.62,.08-.12,.24-.15,.35-.06,.11,.09,.13,.26,.05,.39h0c-.92,1.36-1.46,3.35-2.04,5.46-.86,3.12-1.83,6.66-4.29,8.8-2.05,1.78-4.54,2.54-7,2.54Z"/><path class="j" d="M26.78,98.92s12.01-8.27,14.95-1.82c2.94,6.45-5.32,14.01-13.19,18.23-7.87,4.22-22.93,8.65-24.04,3.57,0,0-.49-1.96,2.13-2.55,0,0-5.98-1.18-6.37-4.05s5.34-2.26,8.29-1.57c0,0-2.8-1.41-2.89-5.35s4.77-8.29,6.82-5.96c1.33,1.52,.4,2.79-1.09,3.82-2.14,1.48-1.18,5.97,7.05,2.15,7.23-3.36,3.14-7.13-1.59-5.48-4.76,1.66-4.15-1.29-3.88-2.05,.79-2.17,8.24-8.1,13.81,1.06h0Z"/><path class="g" d="M9.13,121.44c-1.4,0-2.58-.2-3.42-.65-.79-.42-1.27-1.03-1.44-1.83-.1-.52-.02-1.07,.23-1.52,.24-.44,.63-.79,1.16-1.05-1.74-.47-5.31-1.72-5.64-4.05-.08-.61,.06-1.11,.44-1.51,.62-.66,1.88-.98,3.72-.95,1.09,.03,2.18,.14,3.26,.34-.86-.82-1.97-2.35-2.03-4.83-.07-2.69,2.08-5.55,4.13-6.53,1.21-.58,2.27-.49,3.01,.25-.03-.46,.03-.93,.19-1.35,.44-1.21,2.92-3.65,6.07-4.02,2.14-.25,5.26,.39,8.04,4.82,1.3-.86,8.24-5.27,12.49-3.94,1.19,.37,2.06,1.17,2.61,2.36,.75,1.64,.84,3.42,.27,5.31-1.6,5.3-8.06,10.34-13.57,13.3-5.41,2.9-14.11,5.86-19.52,5.86Zm-5.2-11.01c-1.56,0-2.64,.28-3.14,.8-.25,.26-.36,.65-.29,1.03,.19,1.35,1.83,2.31,3.18,2.88,.97,.4,1.97,.72,2.99,.93,.13,.03,.22,.17,.2,.32-.02,.11-.09,.2-.19,.22-.87,.2-1.47,.57-1.76,1.1-.18,.33-.25,.72-.18,1.1,.14,.65,.52,1.12,1.18,1.47,1.77,.94,5.39,.77,10.2-.47,4.14-1.07,8.86-2.89,12.32-4.74,8.27-4.43,12.3-9.61,13.31-12.98,.53-1.74,.45-3.38-.24-4.88-.48-1.05-1.25-1.75-2.3-2.08-4.39-1.38-12.22,3.96-12.3,4.01-.11,.08-.26,.04-.33-.08-1.48-2.43-4.01-5.23-7.71-4.79-2.92,.34-5.28,2.61-5.67,3.68-.15,.42-.31,1.26,.08,1.74,.34,.41,1.22,.73,3.5-.06,2.85-.99,5.28-.09,5.75,1.38,.23,.72,.31,2.62-3.99,4.62-2.3,1.07-4.22,1.58-5.7,1.52-1.68-.07-2.29-.87-2.5-1.34-.43-.95-.04-2.16,.92-2.82,1-.69,1.54-1.36,1.61-1.99,.05-.46-.14-.91-.56-1.4-.79-.9-1.95-.54-2.57-.24-1.9,.91-3.89,3.53-3.83,6,.09,3.71,2.64,5.05,2.75,5.11,.12,.06,.18,.23,.12,.37-.05,.12-.16,.18-.28,.16-1.42-.33-2.87-.52-4.33-.57-.08,0-.16,0-.24,0Zm9.38-10.01c.05,.22,.07,.44,.04,.66-.09,.82-.69,1.6-1.84,2.4-.74,.51-1.05,1.41-.74,2.1,.53,1.17,2.84,1.76,7.57-.44,2.09-.97,4.17-2.51,3.71-3.92-.39-1.2-2.6-1.93-5.14-1.04-1.67,.58-2.88,.66-3.61,.24Z"/><path class="j" d="M167.45,98.92s-12.01-8.27-14.95-1.82,5.32,14.01,13.19,18.23c7.87,4.22,22.93,8.65,24.04,3.57,0,0,.49-1.96-2.13-2.55,0,0,5.98-1.18,6.37-4.05s-5.34-2.26-8.29-1.57c0,0,2.8-1.41,2.89-5.35,.09-3.94-4.77-8.29-6.82-5.96-1.33,1.52-.4,2.79,1.09,3.82,2.14,1.48,1.18,5.97-7.05,2.15-7.23-3.36-3.14-7.13,1.59-5.48,4.76,1.66,4.15-1.29,3.88-2.05-.79-2.17-8.24-8.1-13.81,1.06h0Z"/><path class="g" d="M185.1,121.44c-5.41,0-14.11-2.96-19.52-5.86-5.51-2.96-11.97-8-13.57-13.3-.57-1.89-.48-3.67,.27-5.31,.54-1.19,1.42-1.99,2.61-2.36,4.25-1.33,11.2,3.08,12.49,3.94,2.78-4.43,5.89-5.07,8.04-4.82,3.16,.37,5.63,2.81,6.07,4.02,.16,.43,.22,.89,.19,1.35,.74-.74,1.8-.83,3.01-.25,2.05,.98,4.2,3.83,4.14,6.53-.06,2.48-1.17,4.01-2.03,4.83,1.08-.2,2.17-.31,3.26-.34,1.85-.03,3.1,.29,3.72,.95,.37,.4,.52,.91,.44,1.51-.32,2.33-3.89,3.58-5.64,4.05,.53,.25,.92,.6,1.16,1.05,.25,.46,.33,1.01,.23,1.53-.17,.79-.66,1.41-1.44,1.82-.84,.45-2.02,.65-3.42,.65h0Zm-28.45-26.52c-.55,0-1.1,.07-1.63,.23-1.05,.33-1.82,1.03-2.3,2.08-.68,1.5-.76,3.14-.24,4.88,1.02,3.37,5.05,8.54,13.32,12.98,3.46,1.86,8.18,3.67,12.32,4.74,4.81,1.24,8.43,1.41,10.2,.47,.65-.35,1.04-.83,1.18-1.46,.07-.38,0-.78-.18-1.11-.3-.53-.89-.9-1.76-1.1-.13-.03-.22-.18-.19-.33,.02-.11,.1-.2,.2-.22,.06-.01,5.81-1.18,6.17-3.82,.07-.38-.04-.76-.29-1.03-.52-.55-1.68-.83-3.37-.8-1.45,.04-2.9,.23-4.33,.57-.13,.03-.26-.06-.29-.21-.02-.13,.03-.26,.14-.31,.11-.06,2.66-1.39,2.75-5.11,.06-2.47-1.93-5.1-3.83-6-.62-.29-1.77-.65-2.56,.24-.43,.49-.61,.95-.56,1.4,.07,.63,.61,1.3,1.61,1.99,.96,.66,1.35,1.87,.92,2.82-.21,.47-.82,1.27-2.5,1.34-1.48,.06-3.39-.45-5.7-1.52-4.3-2-4.22-3.89-3.99-4.62,.47-1.47,2.9-2.37,5.75-1.38,2.28,.79,3.16,.47,3.5,.06,.39-.48,.23-1.32,.08-1.74-.39-1.07-2.75-3.34-5.67-3.68-2.04-.24-5.04,.4-7.71,4.79-.07,.12-.22,.16-.33,.08-.07-.05-6.22-4.24-10.68-4.24h0Zm18.45,4.86c-1.52,0-2.66,.6-2.92,1.44-.45,1.41,1.62,2.95,3.71,3.92,4.73,2.2,7.03,1.61,7.57,.44,.31-.69,0-1.59-.74-2.1-1.15-.79-1.75-1.58-1.84-2.4-.02-.22,0-.45,.04-.66-.73,.42-1.94,.34-3.61-.24-.72-.25-1.46-.39-2.21-.39h0Z"/><path class="g" d="M9.29,116.74c-1.65,0-2.75-.11-2.77-.11-.14-.02-.23-.15-.22-.3,.01-.15,.13-.26,.27-.25,.09,0,9.27,.9,14.62-2.67,.12-.08,.27-.03,.34,.1,.07,.13,.03,.3-.09,.38h0c-2.88,1.92-6.78,2.56-9.55,2.76-.95,.07-1.83,.09-2.6,.09Z"/><path class="g" d="M184.94,116.74c-.77,0-1.65-.02-2.6-.09-2.77-.2-6.68-.85-9.55-2.76-.12-.08-.16-.25-.09-.38,.07-.13,.22-.17,.34-.1,5.35,3.57,14.53,2.68,14.62,2.67,.14-.01,.26,.1,.27,.25,.01,.15-.09,.28-.22,.3-.02,0-1.12,.11-2.77,.11h0Z"/><path class="g" d="M12.28,111.74c-2.49,0-3.86-.78-3.96-.84-.12-.07-.17-.24-.1-.37,.06-.14,.21-.19,.33-.12,.04,.02,4.06,2.3,11.02-1.15,.12-.06,.27,0,.33,.14,.06,.14,0,.3-.13,.36-3.09,1.53-5.61,1.98-7.49,1.98Z"/><path class="g" d="M181.95,111.74c-1.88,0-4.4-.44-7.49-1.98-.12-.06-.18-.23-.13-.36,.06-.14,.2-.2,.33-.14h0c6.96,3.45,10.98,1.18,11.02,1.15,.12-.07,.27-.02,.33,.12,.06,.14,.02,.3-.1,.37-.1,.06-1.47,.84-3.96,.84Z"/><path class="j" d="M72.28,35.58c0-3.35,2.92-6.06,6.52-6.06s6.52,2.71,6.52,6.06-2.92,6.06-6.52,6.06-6.52-2.71-6.52-6.06Z"/><path class="g" d="M78.8,41.92c-3.73,0-6.77-2.84-6.77-6.34s3.04-6.34,6.77-6.34,6.77,2.84,6.77,6.34-3.04,6.34-6.77,6.34Zm0-12.13c-3.46,0-6.28,2.6-6.28,5.79s2.82,5.79,6.28,5.79,6.28-2.6,6.28-5.79-2.82-5.79-6.28-5.79Z"/><path class="j" d="M91.67,46.71l.03,7.23s5.31,5.06,10.08,.06l.02-7.67-10.13,.39Z"/><path class="g" d="M97.06,56.48c-.74,0-1.48-.13-2.19-.37-1.21-.41-2.35-1.07-3.34-1.96-.05-.05-.09-.13-.09-.21l-.03-7.23c0-.15,.11-.27,.24-.28l10.13-.39c.14,0,.25,.11,.26,.27h0l-.02,7.68c0,.08-.03,.15-.08,.2-1.66,1.74-3.38,2.28-4.88,2.28h0Zm-5.12-2.67c.93,.79,1.97,1.4,3.09,1.78,2.42,.8,4.61,.22,6.5-1.71l.02-7.27-9.63,.37,.02,6.83Z"/><path class="j" d="M121.32,35.58c0-3.35-2.92-6.06-6.52-6.06s-6.52,2.71-6.52,6.06,2.92,6.06,6.52,6.06,6.52-2.71,6.52-6.06Z"/><path class="g" d="M114.8,41.92c-3.73,0-6.77-2.84-6.77-6.34s3.04-6.34,6.77-6.34,6.77,2.84,6.77,6.34-3.04,6.34-6.77,6.34Zm0-12.13c-3.46,0-6.28,2.6-6.28,5.79s2.82,5.79,6.28,5.79,6.28-2.6,6.28-5.79-2.82-5.79-6.28-5.79Z"/><path class="g" d="M84.83,37.94c-.07,0-.14-.03-.19-.1-.04-.05-3.84-4.92-9.56-5.62-.14-.02-.23-.15-.22-.3s.13-.26,.27-.25h0c5.92,.73,9.84,5.76,9.88,5.81,.09,.12,.08,.29-.03,.39-.04,.04-.1,.07-.16,.07h0Z"/><path class="g" d="M108.77,37.94c-.14,0-.25-.12-.25-.28,0-.07,.02-.13,.06-.18,.04-.05,3.97-5.08,9.88-5.81,.14-.02,.26,.1,.27,.25,.01,.15-.08,.28-.22,.3-5.72,.7-9.52,5.57-9.56,5.62-.05,.06-.12,.1-.19,.1Z"/><path class="g" d="M79.05,36.66c-.14,0-.25-.12-.25-.28,0-.06,.02-.12,.05-.16,1.1-1.67,2.82-1.75,2.89-1.75,.14,0,.25,.11,.25,.27,0,.15-.1,.28-.24,.29-.02,0-1.55,.08-2.51,1.53-.05,.07-.12,.11-.2,.11h0Z"/><path class="g" d="M114.55,36.66c-.08,0-.15-.04-.2-.11-.96-1.45-2.5-1.53-2.51-1.53-.14,0-.25-.13-.24-.28s.11-.27,.25-.27h0c.07,0,1.79,.08,2.89,1.75,.08,.12,.06,.3-.05,.39-.04,.04-.09,.05-.15,.05h0Z"/><path class="j" d="M83.06,33.41c0-8.41,6.09-15.23,13.61-15.23,7.51,0,13.61,6.82,13.61,15.23,0,8.41-6.09,15.23-13.61,15.23h0c-7.51,0-13.61-6.82-13.61-15.23Z"/><path class="g" d="M96.67,48.92c-7.64,0-13.85-6.96-13.85-15.51s6.21-15.51,13.85-15.51,13.85,6.96,13.85,15.51-6.21,15.51-13.85,15.51Zm0-30.47c-7.37,0-13.36,6.71-13.36,14.96s5.99,14.96,13.36,14.96,13.36-6.71,13.36-14.96-5.99-14.96-13.36-14.96h0Z"/><path class="i" d="M83.11,33.46c-.12-8.41,6.09-15.23,13.61-15.23s13.39,6.87,13.55,15.28c0,.17-4.79-1.27-8.35-4.83-4.74-4.74-5.19-10.3-5.19-10.3,0,0-.91,5.16-5.37,10.11-3.33,3.69-8.24,5.1-8.24,4.97h0Z"/><path class="g" d="M110.24,33.79c-.49,0-2-.6-3.02-1.09-1.47-.71-3.61-1.95-5.48-3.81-3.47-3.47-4.67-7.34-5.08-9.26-.53,1.83-1.92,5.48-5.15,9.06-1.74,1.93-3.88,3.21-5.36,3.93-1.24,.61-2.88,1.22-3.14,1.1-.09-.04-.15-.14-.16-.26-.06-4.06,1.35-7.97,3.9-10.85,2.62-3,6.21-4.68,9.95-4.67,3.66-.01,7.16,1.64,9.71,4.57,2.56,2.91,4.01,6.81,4.09,10.98,0,.11-.06,.22-.15,.27-.04,.02-.08,.02-.12,.02Zm-13.26-15.28c.12,.92,.92,5.79,5.09,9.97,2.98,2.98,6.92,4.47,7.93,4.73-.12-3.86-1.53-7.53-3.94-10.3-2.39-2.75-5.66-4.33-9.09-4.4Zm-.54,0c-3.52,.07-6.87,1.68-9.32,4.5-2.4,2.7-3.75,6.34-3.76,10.14,1-.27,4.95-1.68,7.82-4.85,1.78-1.97,3.24-4.27,4.3-6.81,.4-.96,.73-1.95,.97-2.98Z"/><path class="i" d="M88.84,9.09c0-4.87,3.52-8.81,7.87-8.81,4.35,0,7.87,3.94,7.87,8.81,0,4.87-3.52,8.81-7.87,8.81-4.35,0-7.87-3.94-7.87-8.81h0Z"/><path class="g" d="M96.71,18.17c-4.48,0-8.11-4.07-8.12-9.09,0-5.02,3.63-9.09,8.11-9.09,4.48,0,8.11,4.07,8.12,9.09h0c0,5.02-3.64,9.08-8.11,9.09Zm0-17.62c-4.21,0-7.62,3.82-7.62,8.53s3.41,8.53,7.62,8.53c4.21,0,7.62-3.82,7.62-8.53h0c0-4.71-3.41-8.53-7.62-8.53Z"/><path class="g" d="M96.22,18.27c-.99,0-1.99-.13-2.96-.36-2.31-.56-4.12-1.71-5.23-3.32-1.57-2.29-1.79-5.51-.67-9.56,.04-.15,.17-.23,.31-.19,.13,.04,.21,.2,.17,.34h0c-1.07,3.88-.88,6.92,.59,9.06,2.51,3.66,7.95,3.47,8,3.47,.14,0,.25,.11,.26,.27,0,.15-.1,.28-.24,.29-.01,0-.09,0-.23,0h0Z"/><path class="g" d="M96.52,18.16c-.06,0-.11-.02-.16-.07-.15-.14-3.57-3.42-3.51-7.63,.03-2.31,1.12-4.43,3.23-6.3,.11-.09,.26-.07,.35,.05,.07,.09,.07,.22,.01,.32,0,.02-.92,1.59-1.33,4-.38,2.21-.41,5.6,1.62,9.2,.07,.13,.04,.3-.08,.38-.04,.03-.09,.04-.13,.04h0Zm-1.11-12.59c-1.35,1.51-2.04,3.15-2.06,4.9-.03,2.33,1.13,4.41,2.09,5.73-.99-2.44-1.27-5.17-.81-7.8,.17-.97,.43-1.92,.78-2.83h0Z"/><path class="g" d="M96.64,18.22c-.14,0-.25-.12-.25-.28,0-.1,.04-.19,.12-.24,.04-.03,4.25-2.94,4.83-7.69,.37-3.03-.78-6.16-3.42-9.32-.09-.11-.09-.29,.01-.39,.1-.1,.25-.1,.35,.01,2.75,3.29,3.95,6.58,3.55,9.78-.62,5.02-4.88,7.96-5.06,8.09-.04,.03-.08,.04-.13,.04Z"/><path class="g" d="M90.75,35.18c-1.26,0-2.13-.97-2.14-.98-.09-.11-.08-.29,.02-.39,.1-.1,.24-.1,.34,0,.07,.08,1.77,1.95,3.8-.24,.1-.11,.25-.1,.35,0,.09,.11,.09,.29,0,.39h0c-.85,.91-1.66,1.21-2.36,1.21h0Z"/><path class="g" d="M102.38,35.18c-1.26,0-2.13-.97-2.14-.98-.09-.11-.09-.29,.01-.39,.1-.1,.24-.1,.34,0,.07,.08,1.77,1.94,3.8-.24,.1-.11,.25-.11,.35,0,.1,.11,.1,.28,0,.39h0c-.85,.92-1.66,1.21-2.36,1.21Z"/><path class="g" d="M97.77,37.4c-.07,0-.13-.03-.18-.09-.81-.98-1.8-.04-1.84,0-.1,.1-.26,.08-.35-.03-.09-.11-.08-.28,.02-.38,.48-.47,1.62-1.06,2.53,.04,.09,.11,.09,.29-.01,.39-.05,.05-.11,.07-.17,.07h0Z"/><path class="g" d="M96.49,41.9c-.14,0-.25-.12-.25-.27,0-.15,.11-.28,.24-.28h.47c.14-.02,.25,.11,.25,.26s-.11,.28-.24,.28h-.47Z"/><path class="f" d="M88.19,40.27c0-1.71,1.24-3.1,2.77-3.1,1.53,0,2.77,1.39,2.77,3.1,0,1.71-1.24,3.1-2.77,3.1h0c-1.53,0-2.77-1.39-2.77-3.1h0Z"/><path class="f" d="M99.84,40.27c0-1.71,1.24-3.1,2.77-3.1,1.53,0,2.77,1.39,2.77,3.1,0,1.71-1.24,3.1-2.77,3.1h0c-1.53,0-2.77-1.39-2.77-3.1h0Z"/></g></g></g></svg>