<?xml version="1.0" encoding="UTF-8"?><svg id="a" xmlns="http://www.w3.org/2000/svg" viewBox="0 0 1308.87 1119.23"><defs><style>.b{fill:#92acef;}.c{fill:#fff;}.d{fill:#e79f33;}.e{fill:#111;}.f{fill:#ef4910;}.g{fill:#003f5a;}.h{fill:#fbb348;}</style></defs><g transform="translate(320.0 186.0) rotate(0.0 280.0 214.0)  scale(0.28476077298311825 0.2849579487288745)"><path class="h" d="M508.01,808.33l54.89,8.15-10.54,108.36-84.53-16.9,40.17-99.61Z"/><path class="e" d="M552.36,926.71c-.1,0-.2,0-.29-.03l-84.53-16.9c-.9-.18-1.51-1.15-1.35-2.16,.02-.15,.06-.3,.12-.44l40.17-99.61c.3-.75,1.01-1.19,1.74-1.08l54.89,8.15c.9,.13,1.53,1.04,1.43,2.05l-10.54,108.36c-.09,.95-.8,1.66-1.65,1.66h0Zm-82.13-20.18l80.67,16.13,10.17-104.57-52.05-7.73-38.79,96.17Z"/><path class="h" d="M793.58,808.33l-54.89,8.15,10.54,108.36,84.53-16.9-40.17-99.61Z"/><path class="e" d="M749.23,926.71c-.85,0-1.56-.72-1.65-1.66l-10.54-108.36c-.1-1.01,.54-1.92,1.43-2.05l54.89-8.15c.73-.11,1.43,.33,1.74,1.08l40.17,99.61c.38,.94,0,2.04-.83,2.46-.13,.06-.26,.11-.39,.14l-84.53,16.9c-.1,.02-.19,.03-.29,.03h0Zm-8.71-108.62l10.17,104.57,80.67-16.13-38.78-96.17-52.05,7.73Z"/><path class="c" d="M651.84,774.22v343.14s-133.68-27.35-112.15-194.9c3.17-24.69,15.85-36.37,17.09-60.26,1.94-37.06-11.97-48.69-11.97-48.69,0,0,63.95-52.8,107.03-39.29h0Z"/><path class="e" d="M651.84,1119.22c-.1,0-.2-.01-.3-.03-.34-.07-34.19-7.24-64.9-35-18.06-16.33-31.54-36.48-40.06-59.89-10.62-29.2-13.5-63.56-8.55-102.11,1.54-12,5.25-20.94,8.84-29.58,3.91-9.42,7.6-18.32,8.24-30.52,.97-18.55-2.17-30.38-4.97-37.04-3.02-7.17-6.3-10.02-6.33-10.05-.73-.63-.87-1.8-.32-2.62,.09-.14,.21-.26,.33-.37,11.91-9.45,24.49-17.77,37.63-24.89,28.74-15.48,52.57-20.42,70.84-14.7,.72,.22,1.22,.96,1.22,1.79v343.14c0,1.03-.74,1.86-1.66,1.86h0Zm-104.41-305.52c3.77,4.45,12.59,18.23,11,48.6-.67,12.9-4.5,22.12-8.54,31.87-3.49,8.4-7.09,17.1-8.56,28.55-4.87,37.89-2.06,71.59,8.33,100.17,8.3,22.82,21.45,42.47,39.07,58.4,25.84,23.36,53.89,31.81,61.44,33.76v-339.4c-38-10.69-92.63,30.14-102.74,38.05h0Z"/><path class="c" d="M653.43,774.22v343.14s133.68-27.35,112.15-194.9c-3.17-24.69-15.85-36.37-17.1-60.26-1.93-37.06,11.97-48.69,11.97-48.69,0,0-63.95-52.8-107.03-39.29h0Z"/><path class="e" d="M653.43,1119.22c-.92,0-1.66-.83-1.66-1.86v-343.14c0-.84,.5-1.57,1.22-1.79,18.27-5.73,42.1-.78,70.84,14.7,13.13,7.12,25.72,15.44,37.62,24.89,.74,.61,.9,1.78,.35,2.6-.1,.15-.21,.28-.34,.39-.03,.02-3.31,2.88-6.33,10.05-2.81,6.66-5.95,18.49-4.98,37.04,.64,12.2,4.33,21.1,8.24,30.52,3.59,8.65,7.3,17.59,8.84,29.58,4.95,38.55,2.08,72.9-8.55,102.11-8.52,23.41-21.99,43.56-40.06,59.89-30.7,27.76-64.56,34.93-64.9,35-.1,.02-.2,.03-.3,.04h0Zm1.66-343.57v339.4c7.57-1.96,35.7-10.44,61.55-33.85,17.59-15.93,30.71-35.58,39-58.39,10.37-28.56,13.17-62.23,8.3-100.08-1.47-11.45-5.08-20.14-8.57-28.55-4.05-9.75-7.87-18.97-8.55-31.87-1.58-30.37,7.24-44.15,11.01-48.6-10.11-7.92-64.75-48.74-102.74-38.06Z"/><path class="b" d="M624.79,1105.6s6.12,2.97,12.61,5.3c6.49,2.33,13.34,4.05,13.34,4.05l-.09-340.39s-12.89-3.2-25.8-.66l-.07,331.7Z"/><path class="b" d="M680.7,1105.6s-6.12,2.97-12.62,5.3c-6.48,2.33-13.34,4.05-13.34,4.05l.09-340.39s12.89-3.2,25.8-.66l.07,331.7Z"/><path class="c" d="M624.72,1107.59l.05-334.5-.05,334.5Z"/><path class="e" d="M624.72,1109.45c-.92,0-1.66-.83-1.66-1.86l.05-334.5c0-1.03,.74-1.86,1.66-1.86s1.66,.83,1.66,1.86l-.05,334.5c0,1.03-.74,1.86-1.66,1.86Z"/><path class="c" d="M680.55,1107.59l-.05-334.5,.05,334.5Z"/><path class="e" d="M680.55,1109.45c-.92,0-1.66-.83-1.66-1.86l-.05-334.5c0-1.03,.74-1.86,1.66-1.86s1.66,.83,1.66,1.86l.05,334.5c0,1.03-.74,1.86-1.66,1.86Z"/><path class="c" d="M561.84,1051.52s5.35-26.42,31.13-28.27l-31.13,28.27Z"/><path class="e" d="M561.84,1053.39c-.92,0-1.66-.83-1.67-1.86,0-.14,.01-.28,.04-.41,.06-.28,5.93-27.8,32.64-29.72,.92-.07,1.71,.71,1.77,1.74,.06,1.03-.64,1.91-1.55,1.98-24.26,1.74-29.56,26.57-29.61,26.83-.17,.85-.84,1.45-1.62,1.45Z"/><path class="c" d="M743.43,1051.52s-5.35-26.42-31.13-28.27l31.13,28.27Z"/><path class="e" d="M743.43,1053.39c-.78,0-1.45-.6-1.62-1.45-.21-1.02-5.43-25.09-29.61-26.83-.92-.07-1.61-.95-1.55-1.98,.06-1.03,.85-1.81,1.77-1.74,26.71,1.92,32.59,29.44,32.65,29.72,.2,1-.36,2-1.25,2.23-.12,.03-.25,.05-.37,.05h0Z"/><path class="c" d="M549.53,1025.37s5.34-26.42,31.12-28.28l-31.12,28.28Z"/><path class="e" d="M549.53,1027.23c-.92,0-1.67-.84-1.66-1.87,0-.14,.01-.27,.04-.4,.06-.28,5.93-27.8,32.64-29.73,.92-.07,1.71,.71,1.77,1.74,.06,1.03-.64,1.91-1.55,1.98h0c-24.26,1.75-29.55,26.58-29.61,26.83-.17,.85-.84,1.45-1.62,1.45h0Z"/><path class="c" d="M755.75,1025.37s-5.35-26.42-31.12-28.28l31.12,28.28Z"/><path class="e" d="M755.74,1027.23c-.78,0-1.45-.6-1.62-1.45-.21-1.02-5.43-25.09-29.61-26.83-.92-.07-1.61-.95-1.55-1.98,.06-1.03,.85-1.81,1.77-1.74,26.7,1.92,32.58,29.45,32.64,29.73,.2,1.01-.36,2-1.26,2.23-.12,.03-.24,.05-.36,.05h0Z"/><path class="c" d="M541.14,997.11s5.34-26.42,31.12-28.27l-31.12,28.27Z"/><path class="e" d="M541.14,998.97c-.92,0-1.66-.83-1.67-1.86,0-.14,.01-.28,.04-.41,.06-.28,5.93-27.79,32.64-29.72,.92-.07,1.71,.71,1.77,1.74,.06,1.03-.64,1.91-1.55,1.98h0c-24.25,1.75-29.55,26.57-29.6,26.83-.17,.85-.85,1.45-1.62,1.45Z"/><path class="c" d="M764.13,997.11s-5.35-26.42-31.12-28.27l31.12,28.27Z"/><g><path class="e" d="M764.13,998.97c-.78,0-1.45-.6-1.62-1.45-.22-1.05-5.44-25.09-29.61-26.83-.92-.07-1.61-.95-1.55-1.98s.85-1.81,1.77-1.74c26.7,1.92,32.58,29.44,32.64,29.72,.2,1-.36,2-1.25,2.23-.12,.03-.25,.05-.37,.05h0Z"/><path class="e" d="M625.17,1072.3c-.92,0-1.67-.83-1.67-1.85,0-1.03,.74-1.87,1.66-1.87l25.82-.28h.02c.92,0,1.67,.83,1.67,1.85,0,1.03-.74,1.87-1.66,1.87l-25.82,.28h-.02Z"/><path class="e" d="M626.05,1026.71c-.92,0-1.67-.83-1.67-1.85,0-1.03,.74-1.87,1.66-1.87l25.82-.29h.02c.92,0,1.67,.82,1.67,1.85,0,1.03-.74,1.87-1.66,1.87h0l-25.82,.29h-.02Z"/><path class="e" d="M625.71,1011.89c-.92,0-1.67-.83-1.67-1.85,0-1.03,.74-1.87,1.66-1.87l25.82-.28h.02c.92,0,1.67,.83,1.67,1.85,0,1.03-.74,1.87-1.66,1.87l-25.82,.28h-.02Z"/><path class="e" d="M626.83,893.7c-.92,0-1.67-.83-1.67-1.85,0-1.03,.74-1.87,1.66-1.87l25.82-.29c.92-.01,1.67,.82,1.68,1.84,0,1.03-.73,1.87-1.65,1.88l-25.82,.29h-.02Z"/><path class="e" d="M625.97,876.44c-.92,0-1.67-.83-1.67-1.85,0-1.03,.74-1.87,1.66-1.87h0l25.82-.28h.02c.92,0,1.67,.83,1.67,1.85,0,1.03-.74,1.87-1.66,1.87l-25.82,.28h-.02Z"/><path class="e" d="M626.87,856.05c-.92,0-1.67-.83-1.67-1.85,0-1.03,.74-1.87,1.66-1.87l25.82-.28h.02c.92,0,1.67,.83,1.67,1.85,0,1.03-.74,1.87-1.66,1.87l-25.82,.28h-.02Z"/><path class="e" d="M626.6,821.74c-.92,0-1.67-.83-1.67-1.85,0-1.03,.74-1.87,1.66-1.87h0l25.82-.28h.02c.92,0,1.67,.83,1.67,1.85,0,1.03-.74,1.87-1.66,1.87h0l-25.82,.28h-.02Z"/><path class="e" d="M654.21,842.6c-.92,0-1.67-.83-1.67-1.85,0-1.03,.74-1.87,1.66-1.87l25.82-.28h.02c.92,0,1.67,.83,1.67,1.85s-.74,1.87-1.66,1.87l-25.82,.28h-.02Z"/><path class="e" d="M653.93,881.74c-.92,0-1.67-.83-1.67-1.85,0-1.03,.74-1.87,1.66-1.87l25.82-.28h.02c.92,0,1.67,.83,1.67,1.85,0,1.03-.74,1.87-1.66,1.87l-25.82,.28h-.02Z"/><path class="e" d="M654.35,933.11c-.92,0-1.67-.83-1.67-1.85,0-1.03,.74-1.87,1.66-1.87l25.82-.28h.02c.92,0,1.67,.83,1.67,1.85s-.74,1.87-1.66,1.87l-25.82,.28h-.02Z"/><path class="e" d="M653.79,952.49c-.92,0-1.67-.83-1.67-1.85,0-1.03,.74-1.87,1.66-1.87l25.82-.28h.02c.92,0,1.67,.83,1.67,1.85,0,1.03-.74,1.87-1.66,1.87l-25.82,.28h-.02Z"/><path class="e" d="M654.56,1014.81c-.92,0-1.67-.83-1.67-1.85,0-1.03,.74-1.87,1.66-1.87l25.82-.28h.02c.92,0,1.67,.83,1.67,1.85s-.74,1.87-1.66,1.87h0l-25.82,.28h-.02Z"/><path class="e" d="M653.97,1066.81c-.92,0-1.67-.83-1.67-1.85,0-1.03,.74-1.87,1.66-1.87l25.82-.28h.02c.92,0,1.67,.83,1.67,1.85,0,1.03-.74,1.87-1.66,1.87l-25.82,.28h-.02Z"/><path class="e" d="M654.39,1090.49c-.92,0-1.67-.83-1.67-1.85,0-1.03,.74-1.87,1.66-1.87l25.82-.28h.02c.92,0,1.67,.83,1.67,1.85,0,1.03-.74,1.87-1.66,1.87l-25.82,.28h-.02Z"/></g><path class="g" d="M627.97,175.96s-63.56,114.23-102.53,128.35c-38.97,14.12-71.52,3.19-92.09,19.34-27.09,21.26-27.73,44.25-45.46,67.58-25.22,33.2-94.58,2.74-115.37,52.18-16.73,39.78-6.12,106.93,101.24,121.04,107.35,14.11,674.97,76,673.85-90.31-.78-115.94-99.12-79.29-131.49-103.31-26.05-19.32-23.9-40.31-49.12-54.71-31.9-18.22-99.16,13.6-131.49-57.91-32.34-71.51-107.53-82.26-107.53-82.26h0Z"/><path class="e" d="M711.91,589.26c-4.89,0-9.82-.02-14.8-.06-151.03-1.16-296.01-19.28-323.54-22.9-64.49-8.48-90.58-35.57-101.11-56.8-10.02-20.2-10.56-45.21-1.44-66.89,11.93-28.37,38.87-31.27,64.92-34.08,20.52-2.21,39.89-4.3,50.7-18.52,6.67-8.78,10.95-17.66,15.09-26.24,6.7-13.9,13.64-28.28,30.68-41.66,11.31-8.88,25.96-9.84,42.92-10.96,14.78-.97,31.54-2.08,49.61-8.63,37.95-13.74,101-126.43,101.63-127.56,.34-.62,.98-.95,1.62-.86,.78,.11,19.31,2.86,42.12,14.47,21.08,10.73,49.77,31.38,66.69,68.8,21.24,46.97,57.53,48.41,89.54,49.69,15.63,.62,30.39,1.21,41.22,7.4,13.44,7.68,19.3,17.14,25.5,27.15,5.65,9.12,11.5,18.56,23.78,27.67,9.19,6.82,24.56,8.65,40.83,10.58,40.47,4.81,90.84,10.8,91.4,94.26,.13,19.05-7.08,36.01-21.44,50.41-24.03,24.11-68.81,41.73-133.11,52.37-49.53,8.2-110.98,12.35-182.82,12.35Zm-83.11-411.28c-3.06,5.41-17.79,31.17-36.16,57.99-27.76,40.55-50.2,64.13-66.69,70.11-18.48,6.69-35.46,7.81-50.44,8.8-16.46,1.08-30.67,2.02-41.21,10.29-16.4,12.87-22.84,26.23-29.66,40.38-4.22,8.75-8.59,17.8-15.48,26.88-11.68,15.37-31.71,17.53-52.91,19.81-25.12,2.71-51.1,5.5-62.22,31.96-8.66,20.6-8.16,44.34,1.34,63.5,10.15,20.47,35.5,46.61,98.59,54.9,27.5,3.62,172.32,21.71,323.18,22.87,78.07,.61,144.38-3.52,197.12-12.24,63.63-10.53,107.83-27.84,131.37-51.46,13.61-13.66,20.45-29.67,20.33-47.61-.24-35.72-9.82-59.77-29.29-73.53-17.05-12.05-39.41-14.71-59.13-17.05-16.69-1.98-32.45-3.86-42.32-11.18-12.82-9.51-18.85-19.24-24.68-28.65-5.96-9.62-11.58-18.7-24.28-25.95-10.18-5.81-24.58-6.39-39.83-7-15.72-.63-33.53-1.34-49.82-7.96-18.78-7.64-32.71-21.95-42.57-43.77-16.47-36.41-44.44-56.56-65-67.04-12.82-6.58-26.33-11.3-40.22-14.04h0Z"/><path class="e" d="M951.48,355.67c-6.79,0-13.52-1.43-19.85-4.19-12.98-5.61-19.83-17.31-26.47-28.63-6.92-11.82-13.46-22.98-26.51-28.09-14.62-5.73-26.61-3.16-40.48-.18-10.72,2.3-22.87,4.91-38.03,3.92-23.53-1.54-54.83-22.23-56.15-23.11-.79-.53-1.05-1.67-.58-2.55s1.49-1.18,2.28-.65c.32,.21,31.92,21.11,54.64,22.59,14.74,.97,26.68-1.6,37.2-3.86,14.35-3.08,26.75-5.74,42.21,.32,14.11,5.53,21.27,17.75,28.2,29.57,6.64,11.33,12.9,22.02,24.89,27.2,24.31,10.52,44.67-3.74,44.87-3.88,.78-.55,1.81-.28,2.29,.59,.48,.86,.26,1.99-.5,2.55-8.51,5.53-18.18,8.43-28.02,8.41h0Z"/><path class="f" d="M652.08,519.57s391.16-17.39,390.52,180.87c-.57,175.48-230.41,293.91-252.83,170.43-20.13-110.87,77.66-88.43,45.07-162.36-27.51-62.41-141.68-68.97-184.34-68.01-41.4,.92-161.87,15.44-182.36,73.5-26.77,75.86,68.48,71.28,52.32,138.47-33.55,139.49-264.37,32.18-264.37-138.26,0-198.37,270.05-190.25,395.99-194.64h0Z"/><path class="e" d="M849.86,923.65c-33.35,0-55.61-18.66-61.73-52.4-10.79-59.43,12.14-81.67,30.56-99.55,16.49-16,29.52-28.64,14.65-62.36-11.65-26.43-40.37-45.53-85.36-56.77-42.21-10.54-85.26-10.47-97.46-10.2-23.04,.51-62.71,4.82-98.64,15.26-31.55,9.17-71.43,26.51-82.21,57.06-13.61,38.56,4.89,55.23,24.47,72.87,17.63,15.89,35.87,32.32,27.91,65.4-6.04,25.11-18.48,43.41-36.96,54.38-16.64,9.87-37.85,13.25-61.35,9.77-39.07-5.79-81.49-30.08-113.46-64.99-36.03-39.33-55.87-88.31-55.87-137.91,0-43.57,13.13-80.21,39.03-108.9,22.13-24.52,54.27-43.91,95.54-57.64,75.28-25.05,167.22-27.42,234.35-29.14,10.18-.26,19.79-.51,28.68-.82,1.06-.05,66.29-2.75,142.28,7.14,44.81,5.83,84.55,14.83,118.13,26.76,42.09,14.95,74.59,34.58,96.59,58.33,23.49,25.37,35.35,55.82,35.23,90.51-.18,54.57-22.74,109.04-63.52,153.37-35.34,38.41-81.35,64.93-120.06,69.21-3.72,.41-7.32,.61-10.81,.61h0Zm-192.29-285.08c17.6,0,54.67,1.25,91.14,10.36,46.02,11.5,75.5,31.27,87.62,58.76,16,36.3,1.42,50.45-15.46,66.82-18.69,18.14-39.88,38.69-29.48,95.99,3.34,18.37,11.43,31.88,24.05,40.17,11.61,7.62,27.14,10.61,44.91,8.65,38-4.2,83.24-30.33,118.07-68.18,40.14-43.62,62.34-97.15,62.51-150.7,.11-33.64-11.4-63.18-34.22-87.82-21.63-23.35-53.69-42.69-95.29-57.46-33.38-11.85-72.91-20.81-117.51-26.61-75.99-9.89-141.13-7.14-141.78-7.11h-.01c-8.9,.31-18.52,.56-28.71,.82-66.94,1.72-158.62,4.08-233.48,28.99-40.73,13.55-72.41,32.64-94.14,56.71-25.25,27.97-38.05,63.71-38.05,106.25,0,48.58,19.48,96.61,54.87,135.24,31.48,34.36,73.19,58.27,111.57,63.96,22.81,3.38,43.33,.14,59.36-9.37,17.63-10.46,29.51-27.98,35.3-52.06,7.39-30.73-9.21-45.69-26.78-61.53-19.66-17.71-39.98-36.03-25.47-77.14,9.06-25.69,37.48-45.64,84.46-59.29,36.21-10.52,76.18-14.86,99.41-15.38,1.77-.04,4.17-.07,7.12-.07h0Z"/><path class="b" d="M650.11,345.86s-70.17-60.1-151.75,32.18c-81.58,92.28-68.74,88.18-115.82,132.04-59.4,55.32-194.8,47.83-163.47,176.31,27.71,113.63,132.62,53.69,250.97-72.19,118.35-125.88,84.87-165.6,184.24-166.2s76.9,47.71,179.42,170.2c94.16,112.51,219.78,164.23,253,80.48,40.55-102.27-36.07-108.83-172.43-202.57-84.17-57.87-138.53-224-264.16-150.25Z"/><path class="e" d="M278.17,748.54c-5.7,.05-11.38-.78-16.87-2.45-21.12-6.6-35.87-26.52-43.83-59.2-21.86-89.63,36.69-114.6,93.32-138.74,25.66-10.94,52.2-22.26,70.7-39.49,26.06-24.28,33.82-33.96,49.27-53.25,12.72-15.88,30.14-37.62,66.43-78.67,18.78-21.25,38.55-36.19,58.74-44.4,15.67-6.52,32.48-8.86,49.09-6.84,24.76,3.12,41.33,15.1,45.24,18.18,87.67-50.79,141.35,14.37,193.27,77.4,22.61,27.45,45.99,55.83,71.62,73.45,32.25,22.17,60.79,39.24,85.98,54.3,40.42,24.18,69.63,41.64,85.3,63.25,16.51,22.77,17.05,48.89,1.8,87.36-9.13,23.03-25.18,36.86-47.71,41.13-26.89,5.09-61.17-3.95-99.13-26.14-37.7-22.04-75.35-54.87-108.89-94.95-35.29-42.16-55.39-74.89-71.54-101.18-29.9-48.68-42.26-68.81-106.66-68.43-30.39,.18-48.37,4-62.04,13.17-13.5,9.05-22.72,23.12-36.68,44.41-16.8,25.63-39.82,60.72-84.38,108.11-44.07,46.88-83.75,81.96-117.93,104.26-29.29,19.11-54.45,28.72-75.08,28.73h0Zm315.22-420.05c-12.44,.05-24.77,2.55-36.44,7.39-19.69,8.04-39,22.66-57.4,43.48-36.24,40.99-53.62,62.69-66.32,78.54-15.56,19.42-23.37,29.17-49.62,53.62-18.92,17.62-45.72,29.05-71.64,40.1-27.84,11.87-56.62,24.14-75.01,43.96-9.79,10.56-15.98,22.4-18.91,36.2-3.31,15.57-2.45,33.27,2.63,54.12,7.64,31.33,21.61,50.37,41.52,56.59,42.87,13.4,114.36-31.43,206.7-129.65,44.34-47.17,67.25-82.11,83.98-107.62,28.02-42.73,38.5-58.71,101.39-59.1,.61,0,1.21,0,1.81,0,31,0,50.91,4.95,66.33,16.44,15.36,11.44,26.23,29.13,41.27,53.62,16.09,26.19,36.11,58.79,71.23,100.75,33.29,39.78,70.64,72.35,108.01,94.19,37.31,21.81,70.87,30.72,97.04,25.77,21.36-4.04,36.57-17.15,45.22-38.97,14.67-37,14.27-61.97-1.34-83.49-15.25-21.02-44.2-38.34-84.28-62.31-25.22-15.09-53.82-32.19-86.15-54.41-26.02-17.89-49.56-46.47-72.32-74.1-25.67-31.16-52.21-63.38-82.57-80.8-16.25-9.33-32.26-13.75-48.96-13.61-18.79,.19-37.98,6.18-58.66,18.33-.57,.34-1.27,.27-1.78-.17-.17-.15-17.62-14.82-44.63-18.17-3.68-.46-7.39-.69-11.09-.69h0Z"/><path class="b" d="M561.31,431.66c11.8,13.64,18.92,65.53,42.23,86.74,23.31,21.21,68.56,30.19,99.61,3.26,27.08-23.48,26.52-72.33,42.32-95.67"/><path class="e" d="M657,540.26c-20.58,0-40.79-7.92-54.51-20.4-14.33-13.04-22.73-37.53-29.48-57.21-4.51-13.15-8.41-24.5-12.89-29.68-.64-.74-.62-1.92,.04-2.63,.66-.72,1.71-.7,2.35,.04h0c4.96,5.73,8.97,17.41,13.61,30.94,6.61,19.26,14.84,43.24,28.48,55.65,11.67,10.62,28.86,17.83,45.98,19.27,13.75,1.17,33.85-.68,51.56-16.04,15.75-13.66,21.84-35.91,27.74-57.43,3.98-14.52,7.73-28.23,14.28-37.9,.54-.83,1.58-1.01,2.33-.4,.74,.61,.9,1.77,.36,2.6-.01,.02-.02,.03-.03,.05-6.19,9.14-9.86,22.55-13.75,36.74-5.77,21.05-12.3,44.9-28.88,59.28-13.83,12-30.62,17.12-47.17,17.12Z"/><path class="h" d="M180.47,666.58s80.95-55.73,100.77-12.29c19.82,43.44-35.86,94.4-88.88,122.84-53.02,28.44-154.54,58.3-161.96,24.04,0,0-3.27-13.17,14.36-17.19,0,0-40.29-7.95-42.95-27.29-2.66-19.34,36-15.22,55.83-10.57,0,0-18.86-9.49-19.5-36.06-.64-26.57,32.15-55.88,45.97-40.18,8.99,10.22,2.73,18.82-7.34,25.76-14.44,9.95-7.93,40.25,47.51,14.48,48.71-22.62,21.18-48.03-10.74-36.92-32.07,11.16-27.97-8.7-26.12-13.79,5.35-14.63,55.51-54.56,93.04,7.17h0Z"/><path class="e" d="M61.55,818.32c-9.43,0-17.37-1.34-23.06-4.36-5.29-2.81-8.56-6.97-9.73-12.36-.68-3.51-.13-7.19,1.56-10.25,1.64-2.99,4.25-5.36,7.8-7.07-11.75-3.2-35.81-11.6-37.97-27.31-.56-4.08,.43-7.51,2.96-10.18,4.2-4.46,12.66-6.62,25.08-6.4,7.36,.19,14.69,.96,21.95,2.3-5.8-5.52-13.27-15.84-13.67-32.57-.44-18.16,14.04-37.4,27.85-43.99,8.16-3.89,15.31-3.27,20.27,1.71-.22-3.11,.22-6.24,1.29-9.12,2.97-8.12,19.64-24.58,40.92-27.08,14.43-1.69,35.44,2.63,54.15,32.46,8.73-5.8,55.56-35.54,84.19-26.55,7.99,2.51,13.91,7.87,17.58,15.91,5.02,11.02,5.63,23.05,1.79,35.75-10.78,35.7-54.3,69.7-91.44,89.62-36.45,19.54-95.07,39.51-131.51,39.51Zm-35.02-74.23c-10.52,0-17.8,1.86-21.14,5.39-1.69,1.76-2.44,4.38-1.96,6.91,1.25,9.1,12.34,15.59,21.42,19.44,6.56,2.72,13.31,4.82,20.18,6.3,.91,.18,1.51,1.14,1.35,2.16-.12,.75-.64,1.35-1.31,1.5-5.89,1.34-9.89,3.84-11.88,7.44-1.25,2.21-1.68,4.88-1.21,7.44,.94,4.35,3.53,7.58,7.93,9.92,11.91,6.33,36.31,5.2,68.7-3.18,27.87-7.21,59.67-19.46,83-31.97,55.71-29.87,82.87-64.76,89.72-87.45,3.54-11.72,3-22.77-1.6-32.86-3.23-7.08-8.45-11.8-15.51-14.02-29.6-9.3-82.37,26.68-82.9,27.04-.76,.52-1.75,.28-2.25-.54-9.94-16.35-27.01-35.23-51.94-32.3-19.69,2.31-35.55,17.59-38.19,24.79-1.04,2.84-2.1,8.5,.53,11.7,2.26,2.77,8.19,4.94,23.56-.4,19.22-6.68,35.55-.58,38.75,9.31,1.57,4.87,2.1,17.64-26.88,31.11-15.52,7.21-28.42,10.66-38.38,10.25-11.29-.47-15.4-5.85-16.84-9.02-2.92-6.39-.25-14.57,6.2-19.02,6.72-4.64,10.37-9.15,10.83-13.42,.33-3.07-.91-6.16-3.8-9.44-5.33-6.06-13.12-3.62-17.29-1.64-12.8,6.1-26.23,23.82-25.83,40.46,.6,25.03,17.79,34.05,18.52,34.42,.84,.42,1.21,1.53,.83,2.46-.32,.8-1.09,1.24-1.86,1.06-9.6-2.25-19.35-3.53-29.16-3.83-.54-.01-1.07-.02-1.6-.02Zm63.2-67.48c.35,1.45,.44,2.97,.28,4.46-.6,5.53-4.65,10.81-12.39,16.15-4.96,3.42-7.1,9.5-4.98,14.15,3.6,7.88,19.11,11.83,50.98-2.98,14.11-6.55,28.09-16.93,25.03-26.4-2.62-8.11-17.49-12.99-34.63-7.02-11.25,3.92-19.4,4.46-24.29,1.65Z"/><path class="h" d="M1128.4,666.58s-80.95-55.73-100.77-12.29c-19.82,43.44,35.85,94.4,88.89,122.84,53.03,28.44,154.54,58.3,161.96,24.04,0,0,3.27-13.17-14.36-17.19,0,0,40.28-7.95,42.95-27.29,2.67-19.34-36-15.22-55.83-10.57,0,0,18.86-9.49,19.5-36.06,.64-26.57-32.16-55.88-45.97-40.18-8.99,10.22-2.73,18.82,7.34,25.76,14.44,9.95,7.93,40.25-47.51,14.48-48.71-22.62-21.18-48.03,10.73-36.92,32.07,11.16,27.98-8.7,26.12-13.79-5.35-14.63-55.51-54.56-93.05,7.17h0Z"/><path class="e" d="M1247.32,818.32c-36.44,0-95.06-19.97-131.51-39.51-37.14-19.91-80.67-53.91-91.44-89.62-3.84-12.7-3.23-24.73,1.8-35.75,3.67-8.05,9.58-13.4,17.58-15.91,28.63-8.99,75.46,20.75,84.19,26.55,18.71-29.83,39.72-34.14,54.15-32.46,21.27,2.5,37.95,18.96,40.92,27.08,1.07,2.88,1.51,6.01,1.29,9.12,4.96-4.98,12.11-5.59,20.26-1.71,13.81,6.58,28.3,25.83,27.86,43.99-.4,16.74-7.87,27.05-13.67,32.57,7.26-1.34,14.6-2.11,21.95-2.3,12.43-.22,20.87,1.94,25.08,6.4,2.52,2.68,3.52,6.1,2.96,10.18-2.17,15.71-26.22,24.12-37.97,27.31,3.55,1.71,6.17,4.08,7.8,7.07,1.69,3.08,2.25,6.78,1.54,10.31-1.15,5.33-4.43,9.48-9.72,12.3-5.69,3.02-13.64,4.36-23.06,4.36h0Zm-191.73-178.74c-3.7-.05-7.38,.47-10.95,1.54-7.06,2.22-12.28,6.94-15.51,14.02-4.6,10.09-5.14,21.15-1.61,32.86,6.85,22.69,34.02,57.58,89.73,87.45,23.33,12.51,55.14,24.76,83,31.97,32.39,8.38,56.79,9.51,68.7,3.18,4.4-2.34,6.99-5.57,7.92-9.87,.48-2.58,.06-5.26-1.2-7.49-2-3.59-5.99-6.1-11.88-7.44-.9-.2-1.48-1.19-1.3-2.2,.14-.75,.67-1.33,1.34-1.46,.39-.07,39.13-7.94,41.59-25.74,.48-2.53-.26-5.15-1.96-6.91-3.5-3.72-11.35-5.57-22.74-5.38-9.8,.3-19.56,1.58-29.15,3.83-.9,.21-1.78-.43-1.97-1.44-.16-.86,.23-1.73,.95-2.08,.73-.37,17.92-9.38,18.52-34.41,.4-16.65-13.04-34.36-25.84-40.46-4.17-1.99-11.95-4.41-17.28,1.64-2.89,3.29-4.13,6.37-3.8,9.44,.46,4.27,4.11,8.79,10.83,13.42,6.46,4.45,9.12,12.62,6.2,19.02-1.45,3.17-5.56,8.55-16.84,9.02-9.96,.41-22.86-3.04-38.38-10.25-28.99-13.47-28.46-26.24-26.88-31.11,3.2-9.9,19.53-16,38.74-9.31,15.37,5.35,21.3,3.17,23.56,.4,2.62-3.2,1.56-8.86,.53-11.7-2.63-7.2-18.5-22.47-38.19-24.78-13.76-1.61-33.94,2.68-51.94,32.3-.5,.82-1.49,1.06-2.25,.54-.46-.32-41.91-28.58-71.94-28.58h0Zm124.33,32.74c-10.23,0-17.9,4.06-19.71,9.67-3.06,9.47,10.92,19.85,25.03,26.4,31.87,14.81,47.38,10.86,50.98,2.98,2.12-4.65-.02-10.73-4.98-14.15-7.74-5.34-11.79-10.62-12.39-16.15-.16-1.49-.06-3.01,.28-4.46-4.9,2.82-13.04,2.27-24.3-1.64-4.82-1.72-9.85-2.61-14.91-2.65h0Z"/><path class="e" d="M62.62,786.64c-11.11,0-18.53-.74-18.64-.75-.91-.1-1.58-1.02-1.49-2.04,.09-1.01,.89-1.75,1.79-1.67,.62,.06,62.46,6.06,98.53-17.99,.79-.53,1.81-.24,2.28,.65,.47,.88,.21,2.03-.58,2.56h0c-19.38,12.92-45.7,17.26-64.37,18.63-6.4,.46-12.36,.62-17.53,.62Z"/><path class="e" d="M1246.25,786.64c-5.17,0-11.13-.16-17.53-.63-18.67-1.36-44.99-5.7-64.37-18.63-.79-.53-1.05-1.67-.58-2.56,.47-.88,1.49-1.18,2.28-.65,36.07,24.05,97.9,18.06,98.52,17.99,.92-.08,1.72,.68,1.79,1.71,.07,1.01-.59,1.9-1.49,2-.11,.02-7.53,.76-18.63,.76h0Z"/><path class="e" d="M82.75,752.99c-16.8,0-26.03-5.27-26.69-5.66-.81-.48-1.12-1.61-.69-2.52,.43-.91,1.44-1.26,2.25-.78,.27,.16,27.36,15.47,74.24-7.78,.84-.42,1.82,0,2.2,.95,.37,.94,0,2.04-.85,2.46-20.83,10.33-37.79,13.32-50.45,13.32Z"/><path class="e" d="M1226.12,752.99c-12.66,0-29.62-2.99-50.46-13.32-.84-.42-1.22-1.52-.85-2.46,.37-.94,1.36-1.37,2.2-.95h0c46.88,23.24,73.98,7.93,74.24,7.78,.81-.48,1.82-.13,2.25,.78,.43,.91,.12,2.04-.69,2.52-.65,.39-9.89,5.66-26.69,5.66Z"/><path class="h" d="M487.04,239.79c0-22.57,19.68-40.86,43.96-40.86s43.96,18.29,43.96,40.86-19.68,40.86-43.96,40.86-43.96-18.29-43.96-40.86Z"/><path class="e" d="M531,282.51c-25.16,0-45.62-19.16-45.62-42.72s20.47-42.72,45.62-42.72,45.62,19.16,45.62,42.72-20.47,42.72-45.62,42.72Zm0-81.72c-23.32,0-42.3,17.49-42.3,39s18.97,39,42.3,39,42.3-17.49,42.3-39-18.97-39-42.3-39Z"/><path class="h" d="M617.71,314.77l.17,48.7s35.8,34.1,67.93,.37l.17-51.7-68.27,2.62Z"/><path class="e" d="M654.07,380.57c-5-.03-9.96-.86-14.74-2.48-8.19-2.76-15.83-7.24-22.52-13.2-.37-.35-.58-.87-.59-1.41l-.17-48.7c0-1.01,.71-1.83,1.61-1.87l68.27-2.62c.92-.04,1.69,.77,1.72,1.8,0,.02,0,.05,0,.07l-.17,51.7c0,.51-.19,1-.53,1.35-11.16,11.72-22.76,15.36-32.88,15.36h0Zm-34.53-17.99c6.25,5.35,13.31,9.4,20.83,11.98,16.33,5.39,31.06,1.51,43.77-11.52l.16-48.96-64.93,2.49,.17,46.01Z"/><path class="h" d="M817.54,239.79c0-22.57-19.69-40.86-43.97-40.86s-43.96,18.29-43.96,40.86,19.68,40.86,43.96,40.86,43.97-18.29,43.97-40.86Z"/><path class="e" d="M773.57,282.51c-25.16,0-45.62-19.16-45.62-42.72s20.47-42.72,45.62-42.72,45.63,19.16,45.63,42.72-20.47,42.72-45.63,42.72Zm0-81.72c-23.32,0-42.3,17.49-42.3,39s18.97,39,42.3,39,42.3-17.49,42.3-39-18.98-39-42.3-39Z"/><path class="e" d="M571.64,255.68c-.49,0-.95-.24-1.26-.65-.25-.33-25.9-33.15-64.43-37.88-.91-.1-1.58-1.02-1.49-2.04s.91-1.77,1.82-1.67h.03c39.87,4.89,66.33,38.81,66.59,39.16,.6,.78,.52,1.96-.18,2.63-.3,.29-.69,.45-1.09,.45h0Z"/><path class="e" d="M732.93,255.68c-.92,0-1.66-.84-1.66-1.86,0-.45,.14-.88,.4-1.21,.26-.34,26.72-34.26,66.59-39.15,.91-.1,1.73,.64,1.82,1.67,.09,1.01-.56,1.92-1.46,2.04-38.54,4.72-64.18,37.55-64.43,37.88-.32,.41-.78,.65-1.26,.65Z"/><path class="e" d="M532.67,247c-.92,0-1.66-.84-1.66-1.86,0-.4,.11-.79,.33-1.11,7.44-11.24,18.99-11.78,19.48-11.8,.92-.03,1.69,.77,1.72,1.8,.03,1.03-.69,1.89-1.61,1.92-.12,0-10.47,.54-16.92,10.29-.31,.47-.81,.75-1.34,.75h0Z"/><path class="e" d="M771.91,247c-.53,0-1.02-.28-1.34-.75-6.46-9.76-16.82-10.28-16.92-10.29-.92-.02-1.65-.86-1.64-1.89s.77-1.85,1.69-1.83h.05c.49,.02,12.05,.55,19.49,11.8,.55,.83,.39,1.99-.35,2.61-.29,.24-.63,.37-.99,.37h0Z"/><path class="h" d="M559.74,225.16c0-56.69,41.05-102.65,91.69-102.65,50.64,0,91.69,45.96,91.69,102.65,0,56.69-41.05,102.65-91.69,102.65h0c-50.64,0-91.69-45.96-91.69-102.65Z"/><path class="e" d="M651.42,329.68c-51.47,0-93.35-46.89-93.35-104.52s41.88-104.52,93.35-104.52,93.35,46.89,93.35,104.52-41.87,104.52-93.35,104.52Zm0-205.31c-49.64,0-90.02,45.21-90.02,100.79s40.38,100.79,90.02,100.79,90.02-45.21,90.02-100.79-40.39-100.79-90.03-100.79h0Z"/><path class="g" d="M560.04,225.49c-.82-56.69,41.05-102.65,91.68-102.65s90.24,46.27,91.32,102.96c.02,1.12-32.29-8.53-56.3-32.53-31.92-31.91-34.98-69.4-34.98-69.4,0,0-6.13,34.79-36.19,68.1-22.44,24.86-55.52,34.39-55.53,33.52h0Z"/><path class="e" d="M742.88,227.68c-3.32,0-13.45-4.04-20.33-7.36-9.9-4.78-24.35-13.11-36.91-25.67-23.39-23.39-31.5-49.44-34.22-62.4-3.59,12.32-12.92,36.93-34.68,61.04-11.75,13.02-26.12,21.6-36.11,26.51-8.36,4.11-19.44,8.25-21.19,7.44-.63-.3-1.04-.97-1.06-1.73-.41-27.35,9.08-53.71,26.3-73.1,17.64-20.19,41.82-31.53,67.04-31.44,24.63-.07,48.24,11.03,65.43,30.78,17.23,19.64,27.02,45.92,27.55,74,0,.76-.39,1.46-1.01,1.79-.26,.11-.54,.16-.82,.14Zm-89.35-102.97c.79,6.17,6.2,39.05,34.32,67.16,20.09,20.09,46.61,30.15,53.47,31.87-.82-26.02-10.29-50.76-26.54-69.38-16.13-18.53-38.14-29.18-61.24-29.65Zm-3.66,0c-23.69,.45-46.26,11.34-62.83,30.3-16.14,18.17-25.25,42.72-25.36,68.34,6.75-1.79,33.38-11.31,52.71-32.71,12.01-13.24,21.83-28.78,28.98-45.87,2.72-6.45,4.9-13.16,6.5-20.06Z"/><path class="g" d="M598.66,61.22c0-32.78,23.74-59.36,53.02-59.36,29.28,0,53.02,26.58,53.02,59.36,0,32.78-23.74,59.36-53.02,59.36-29.28,0-53.02-26.58-53.02-59.36h0Z"/><path class="e" d="M651.68,122.45c-30.2,0-54.68-27.41-54.68-61.22,0-33.81,24.48-61.22,54.68-61.22,30.2,0,54.68,27.41,54.68,61.22h0c-.03,33.8-24.5,61.19-54.68,61.22Zm0-118.72c-28.36,0-51.36,25.74-51.36,57.5,0,31.76,22.99,57.5,51.35,57.5,28.36,0,51.36-25.74,51.36-57.5h0c-.03-31.74-23.01-57.46-51.35-57.5Z"/><path class="e" d="M648.41,123.09c-6.7-.05-13.39-.88-19.94-2.46-15.6-3.77-27.79-11.51-35.24-22.39-10.58-15.44-12.09-37.11-4.51-64.4,.26-.99,1.18-1.56,2.06-1.27,.88,.29,1.39,1.32,1.14,2.31,0,.02-.01,.05-.02,.07-7.24,26.06-5.91,46.59,3.96,61.01,16.89,24.68,53.56,23.4,53.94,23.38,.92-.04,1.69,.76,1.73,1.79,.04,1.03-.68,1.9-1.6,1.94-.09,0-.62,.02-1.52,.02h0Z"/><path class="e" d="M650.43,122.39c-.39,0-.77-.16-1.07-.44-.98-.93-24.05-23.06-23.65-51.38,.22-15.57,7.54-29.86,21.77-42.47,.72-.64,1.77-.5,2.34,.3,.45,.63,.48,1.51,.09,2.18-.06,.11-6.2,10.71-8.99,26.93-2.57,14.9-2.75,37.75,10.92,62.02,.49,.87,.26,2.02-.52,2.57-.27,.19-.57,.29-.89,.29h0Zm-7.48-84.83c-9.07,10.16-13.74,21.24-13.91,33.04-.23,15.72,7.61,29.74,14.09,38.62-6.65-16.47-8.56-34.85-5.45-52.58,1.14-6.56,2.91-12.95,5.27-19.08h0Z"/><path class="e" d="M651.19,122.77c-.92,0-1.67-.83-1.67-1.86,0-.65,.3-1.26,.8-1.6,.29-.19,28.63-19.78,32.55-51.84,2.5-20.39-5.26-41.52-23.07-62.79-.62-.76-.58-1.94,.1-2.63,.67-.69,1.7-.65,2.33,.08,18.53,22.15,26.59,44.31,23.93,65.87-4.16,33.83-32.9,53.66-34.12,54.49-.26,.18-.56,.27-.86,.27Z"/><path class="e" d="M611.55,237.06c-8.47,0-14.33-6.52-14.42-6.62-.62-.76-.57-1.94,.11-2.63,.64-.66,1.63-.65,2.26,.02,.48,.54,11.92,13.11,25.62-1.59,.66-.71,1.72-.69,2.35,.06,.64,.74,.61,1.92-.05,2.63h0c-5.73,6.14-11.2,8.13-15.88,8.13h0Z"/><path class="e" d="M689.93,237.06c-8.47,0-14.33-6.52-14.42-6.62-.62-.76-.58-1.94,.1-2.63,.65-.66,1.64-.65,2.28,.02,.5,.56,11.93,13.1,25.62-1.59,.65-.73,1.7-.73,2.35,0,.65,.73,.65,1.91,0,2.63-.02,.02-.03,.04-.05,.05-5.73,6.15-11.2,8.13-15.87,8.13Z"/><path class="e" d="M658.81,252c-.46,0-.9-.22-1.22-.6-5.48-6.59-12.14-.27-12.42,0-.7,.66-1.75,.57-2.35-.22-.58-.77-.51-1.92,.16-2.59,3.21-3.14,10.9-7.13,17.05,.27,.62,.75,.59,1.93-.09,2.63-.31,.32-.71,.5-1.13,.5h0Z"/><path class="e" d="M650.19,282.32c-.92,.01-1.67-.81-1.69-1.84-.01-1.03,.72-1.87,1.64-1.89l3.09-.09h.05c.92-.01,1.67,.81,1.69,1.84s-.72,1.87-1.64,1.89l-3.09,.09h-.05Z"/><path class="d" d="M594.31,271.39c0-11.53,8.34-20.87,18.64-20.87,10.3,0,18.64,9.34,18.64,20.87,0,11.53-8.34,20.87-18.64,20.87h0c-10.3,0-18.64-9.34-18.64-20.87h0Z"/><path class="d" d="M672.77,271.39c0-11.53,8.34-20.87,18.64-20.87,10.3,0,18.64,9.34,18.64,20.87,0,11.53-8.34,20.87-18.64,20.87h0c-10.3,0-18.64-9.34-18.64-20.87h0Z"/></g></svg>