<svg xmlns="http://www.w3.org/2000/svg" version="1.1" viewBox="0 0 1270 760" width="1270" height="760">
<defs/><!--ITEM: Illustration component 1--><g transform="translate(320.0 186.0) rotate(0.0 280.0 214.0)  scale(0.28476077298311825 0.2849579487288745)"><svg width="1966.563" height="1501.976" viewBox="0.0 0.0 1966.563 1501.976"><path d="m763.276 1084.766 82.47 10.94-15.83 145.42-127-22.68z" fill="#fbb348"/><path d="m829.917 1243.626a2.423 2.423 0 0 1 -.44-.039l-127-22.68a2.5 2.5 0 0 1 -1.839-3.49l60.362-133.679a2.49 2.49 0 0 1 2.607-1.451l82.471 10.941a2.5 2.5 0 0 1 2.156 2.749l-15.834 145.423a2.5 2.5 0 0 1 -2.485 2.229zm-123.4-27.077 121.204 21.651 15.279-140.336-78.207-10.375z" fill="#111"/><path d="m1192.346 1084.766-82.47 10.94 15.83 145.42 127-22.68z" fill="#fbb348"/><path d="m1125.707 1243.626a2.5 2.5 0 0 1 -2.486-2.229l-15.83-145.42a2.5 2.5 0 0 1 2.156-2.749l82.47-10.941a2.5 2.5 0 0 1 2.608 1.45l60.36 133.68a2.5 2.5 0 0 1 -1.839 3.49l-127 22.68a2.412 2.412 0 0 1 -.439.039zm-13.08-145.762 15.273 140.336 121.2-21.646-58.274-129.06z" fill="#111"/><path d="m979.376 1038.986v460.49s-200.86-36.7-168.51-261.55c4.76-33.14 23.81-48.81 25.68-80.87 2.91-49.73-17.98-65.34-17.98-65.34s96.08-70.86 160.81-52.73z" fill="#fff"/><path d="m979.377 1501.976a2.536 2.536 0 0 1 -.45-.041c-.508-.093-51.375-9.72-97.507-46.971-27.14-21.914-47.39-48.954-60.187-80.369-15.964-39.19-20.284-85.292-12.841-137.025 2.312-16.1 7.888-28.1 13.28-39.7 5.875-12.646 11.424-24.59 12.378-40.956 1.457-24.9-3.26-40.774-7.474-49.709-4.535-9.616-9.467-13.453-9.517-13.49a2.508 2.508 0 0 1 .023-4.007 396.526 396.526 0 0 1 56.532-33.4c43.179-20.773 78.992-27.41 106.436-19.721a2.5 2.5 0 0 1 1.827 2.408v460.49a2.5 2.5 0 0 1 -2.5 2.5zm-156.868-410c5.668 5.968 18.918 24.464 16.534 65.224-1.011 17.316-6.755 29.68-12.836 42.77-5.241 11.279-10.659 22.942-12.866 38.31-7.315 50.842-3.1 96.07 12.523 134.426 12.474 30.623 32.223 56.99 58.7 78.367 38.831 31.354 80.963 42.691 92.316 45.308v-455.472c-57.098-14.352-139.174 40.442-154.371 51.069z" fill="#111"/><path d="m981.776 1038.986v460.49s200.86-36.7 168.51-261.55c-4.77-33.14-23.81-48.81-25.69-80.87-2.9-49.73 17.99-65.34 17.99-65.34s-96.08-70.86-160.81-52.73z" fill="#fff"/><path d="m981.776 1501.976a2.5 2.5 0 0 1 -2.5-2.5v-460.49a2.5 2.5 0 0 1 1.826-2.408c27.445-7.687 63.256-1.053 106.437 19.721a396.409 396.409 0 0 1 56.531 33.4 2.5 2.5 0 0 1 .013 4.015c-.039.029-4.971 3.867-9.507 13.482-4.216 8.935-8.936 24.813-7.484 49.709.959 16.366 6.509 28.311 12.385 40.958 5.392 11.606 10.967 23.608 13.284 39.7 7.443 51.733 3.122 97.835-12.841 137.025-12.8 31.415-33.046 58.455-60.187 80.369-46.133 37.251-97 46.878-97.508 46.971a2.525 2.525 0 0 1 -.449.048zm2.5-461.067v455.472c11.373-2.628 53.637-14.015 92.472-45.432 26.43-21.383 46.142-47.747 58.59-78.359 15.584-38.331 19.782-83.518 12.474-134.307-2.212-15.368-7.63-27.03-12.87-38.308-6.081-13.091-11.826-25.456-12.842-42.773-2.377-40.761 10.874-59.255 16.542-65.223-15.197-10.628-97.287-65.411-154.366-51.07z" fill="#111"/><path d="m938.736 1483.7s9.2 3.98 18.95 7.11 20.05 5.43 20.05 5.43l-.13-456.8s-19.36-4.3-38.77-.88z" fill="#92acef"/><path d="m1022.736 1483.7s-9.2 3.98-18.96 7.11c-9.74 3.13-20.04 5.43-20.04 5.43l.13-456.8s19.36-4.3 38.77-.88z" fill="#92acef"/><path d="m938.636 1486.366.08-448.89z" fill="#fff"/><path d="m938.636 1488.866a2.5 2.5 0 0 1 -2.5-2.5l.08-448.89a2.5 2.5 0 0 1 2.5-2.5 2.5 2.5 0 0 1 2.5 2.5l-.08 448.89a2.5 2.5 0 0 1 -2.5 2.5z" fill="#111"/><path d="m1022.516 1486.366-.08-448.89z" fill="#fff"/><path d="m1022.516 1488.866a2.5 2.5 0 0 1 -2.5-2.5l-.08-448.89a2.5 2.5 0 1 1 5 0l.08 448.89a2.5 2.5 0 0 1 -2.5 2.5z" fill="#111"/><path d="m844.156 1411.126s8.04-35.46 46.77-37.94z" fill="#fff"/><path d="m844.159 1413.627a2.5 2.5 0 0 1 -2.441-3.053c.085-.373 8.917-37.313 49.048-39.883a2.5 2.5 0 1 1 .321 4.99c-36.445 2.334-44.415 35.662-44.492 36a2.5 2.5 0 0 1 -2.436 1.946z" fill="#111"/><path d="m1117 1411.126s-8.04-35.46-46.77-37.94z" fill="#fff"/><path d="m1116.995 1413.627a2.5 2.5 0 0 1 -2.436-1.944c-.315-1.374-8.155-33.675-44.493-36a2.5 2.5 0 0 1 .32-4.99c40.131 2.57 48.964 39.51 49.049 39.883a2.5 2.5 0 0 1 -2.44 3.053z" fill="#111"/><path d="m825.656 1376.026s8.03-35.46 46.76-37.95z" fill="#fff"/><path d="m825.659 1378.527a2.506 2.506 0 0 1 -2.441-3.053c.085-.373 8.907-37.313 49.038-39.894a2.5 2.5 0 1 1 .321 4.991c-36.444 2.342-44.4 35.671-44.482 36.006a2.5 2.5 0 0 1 -2.436 1.95z" fill="#111"/><path d="m1135.5 1376.026s-8.04-35.46-46.76-37.95z" fill="#fff"/><path d="m1135.495 1378.527a2.5 2.5 0 0 1 -2.436-1.945c-.315-1.374-8.155-33.675-44.483-36.011a2.5 2.5 0 0 1 .32-4.991c40.121 2.581 48.954 39.52 49.039 39.893a2.505 2.505 0 0 1 -2.44 3.054z" fill="#111"/><path d="m813.056 1338.1s8.03-35.45 46.76-37.94z" fill="#fff"/><path d="m813.058 1340.6a2.5 2.5 0 0 1 -2.44-3.054c.085-.372 8.907-37.3 49.038-39.883a2.5 2.5 0 0 1 .32 4.991c-36.442 2.342-44.4 35.661-44.481 36a2.5 2.5 0 0 1 -2.437 1.946z" fill="#111"/><path d="m1148.1 1338.1s-8.04-35.45-46.76-37.94z" fill="#fff"/><g fill="#111"><path d="m1148.094 1340.6a2.5 2.5 0 0 1 -2.435-1.946c-.324-1.408-8.175-33.665-44.483-36a2.5 2.5 0 0 1 .321-4.991c40.12 2.582 48.953 39.51 49.038 39.883a2.5 2.5 0 0 1 -2.441 3.054z"/><path d="m939.305 1439.006a2.5 2.5 0 0 1 -.023-5l38.8-.38h.025a2.5 2.5 0 0 1 .023 5l-38.8.38z"/><path d="m940.635 1377.826a2.5 2.5 0 0 1 -.024-5l38.8-.39h.026a2.5 2.5 0 0 1 .025 5l-38.8.39z"/><path d="m940.116 1357.936a2.5 2.5 0 0 1 -.024-5l38.8-.38h.026a2.5 2.5 0 0 1 .023 5l-38.8.38z"/><path d="m941.805 1199.326a2.5 2.5 0 0 1 -.024-5l38.8-.39a2.5 2.5 0 1 1 .05 5l-38.8.39z"/><path d="m940.515 1176.166a2.5 2.5 0 0 1 -.023-5l38.79-.38h.025a2.5 2.5 0 0 1 .024 5l-38.79.38z"/><path d="m941.866 1148.806a2.5 2.5 0 0 1 -.024-5l38.8-.38h.026a2.5 2.5 0 0 1 .023 5l-38.8.38z"/><path d="m941.456 1102.756a2.5 2.5 0 0 1 -.024-5l38.8-.38h.025a2.5 2.5 0 0 1 .024 5l-38.8.38z"/><path d="m982.945 1130.756a2.5 2.5 0 0 1 -.023-5l38.8-.38h.026a2.5 2.5 0 0 1 .023 5l-38.8.38z"/><path d="m982.525 1183.276a2.5 2.5 0 0 1 -.023-5l38.8-.38h.026a2.5 2.5 0 0 1 .023 5l-38.8.38z"/><path d="m983.156 1252.216a2.5 2.5 0 0 1 -.024-5l38.8-.38h.026a2.5 2.5 0 0 1 .023 5l-38.8.38z"/><path d="m982.305 1278.226a2.5 2.5 0 0 1 -.023-5l38.8-.38h.025a2.5 2.5 0 0 1 .023 5l-38.8.38z"/><path d="m983.465 1361.856a2.5 2.5 0 0 1 -.023-5l38.8-.38h.025a2.5 2.5 0 0 1 .024 5l-38.8.38z"/><path d="m982.576 1431.646a2.5 2.5 0 0 1 -.024-5l38.8-.38h.026a2.5 2.5 0 0 1 .023 5l-38.8.38z"/><path d="m983.215 1463.416a2.5 2.5 0 0 1 -.023-5l38.8-.38h.025a2.5 2.5 0 0 1 .024 5l-38.8.38z"/></g><path d="m943.516 236.14s-95.5 153.3-154.05 172.244-107.46 4.284-138.37 25.952c-40.7 28.533-41.67 59.379-68.3 90.69-37.9 44.56-142.11 3.68-173.35 70.03-25.14 53.39-9.19 143.5 152.11 162.44s1014.14 101.99 1012.46-121.19c-1.17-155.588-148.92-106.4-197.56-138.64-39.14-25.933-35.91-54.093-73.8-73.424-47.93-24.451-148.98 18.248-197.57-77.712s-161.57-110.39-161.57-110.39z" fill="rgb(0,63,90)"/><path d="m1069.63 790.784q-11.017 0-22.244-.078c-226.924-1.561-444.758-25.87-486.122-30.727-96.894-11.379-136.093-47.728-151.915-76.219-15.056-27.113-15.866-60.672-2.165-89.769 17.927-38.073 58.4-41.967 97.536-45.734 30.826-2.966 59.941-5.767 76.172-24.851 10.022-11.784 16.452-23.694 22.671-35.211 10.074-18.66 20.491-37.954 46.1-55.906 16.99-11.911 39-13.206 64.491-14.707 22.212-1.307 47.387-2.789 74.544-11.577 57.014-18.445 151.747-169.662 152.7-171.187a2.507 2.507 0 0 1 2.439-1.158c1.169.15 29.013 3.834 63.282 19.414 31.677 14.4 74.774 42.109 100.2 92.326 31.916 63.031 86.436 64.971 134.537 66.683 23.479.835 45.654 1.625 61.938 9.932 20.2 10.3 29 23 38.317 36.433 8.492 12.245 17.272 24.906 35.729 37.134 13.812 9.156 36.9 11.608 61.352 14.2 60.808 6.458 136.483 14.494 137.326 126.5.193 25.567-10.643 48.329-32.206 67.653-36.107 32.36-103.394 56.007-199.991 70.282-74.421 11.004-166.752 16.567-274.691 16.567zm-124.868-551.931c-4.595 7.265-26.731 41.823-54.331 77.827-41.711 54.414-75.422 86.068-100.2 94.083-27.765 8.983-53.278 10.485-75.789 11.811-24.73 1.456-46.086 2.712-61.916 13.809-24.639 17.274-34.319 35.2-44.568 54.188-6.342 11.745-12.9 23.89-23.262 36.075-17.544 20.627-47.639 23.522-79.5 26.589-37.746 3.632-76.778 7.387-93.492 42.886-13.018 27.646-12.265 59.5 2.012 85.211 15.254 27.47 53.335 62.551 148.128 73.681 41.318 4.853 258.91 29.134 485.573 30.693 117.3.812 216.933-4.72 296.167-16.43 95.61-14.13 162.02-37.365 197.385-69.059 20.449-18.326 30.725-39.822 30.543-63.892-.36-47.932-14.757-80.211-44.012-98.68-25.62-16.174-59.207-19.74-88.841-22.887-25.074-2.663-48.757-5.178-63.587-15.008-19.256-12.757-28.315-25.821-37.075-38.453-8.951-12.906-17.4-25.1-36.481-34.829-15.3-7.8-36.934-8.573-59.844-9.389-23.615-.839-50.38-1.793-74.857-10.683-28.218-10.25-49.14-29.463-63.963-58.737-24.743-48.867-66.767-75.9-97.664-89.967a248.316 248.316 0 0 0 -60.426-18.839z" fill="#111"/><path d="m1429.589 477.3a82.282 82.282 0 0 1 -29.824-5.619c-19.5-7.531-29.8-23.236-39.768-38.424-10.4-15.857-20.231-30.835-39.837-37.7-21.965-7.695-39.975-4.239-60.824-.239-16.108 3.09-34.365 6.586-57.136 5.258-35.361-2.07-82.379-29.836-84.362-31.017a2.5 2.5 0 1 1 2.556-4.3c.476.283 47.961 28.324 82.1 30.322 22.144 1.3 40.08-2.143 55.9-5.177 21.564-4.136 40.187-7.707 63.419.431 21.205 7.427 31.962 23.822 42.365 39.678 9.97 15.2 19.388 29.55 37.39 36.5 36.532 14.113 67.116-5.015 67.42-5.209a2.5 2.5 0 0 1 2.7 4.208 83.511 83.511 0 0 1 -42.099 11.288z" fill="#111"/><path d="m979.736 697.256s587.71-23.34 586.75 242.73c-.86 235.49-346.19 394.42-379.88 228.71-30.25-148.78 116.68-118.67 67.72-217.88-41.33-83.75-212.88-92.55-276.97-91.27-62.21 1.24-243.21 20.72-273.99 98.63-40.22 101.8 102.89 95.66 78.61 185.82-50.41 187.19-397.21 43.18-397.21-185.54 0-266.21 405.75-255.31 594.97-261.2z" fill="#ef4910"/><path d="m1276.911 1239.518c-50.115 0-83.549-25.046-92.755-70.324-16.215-79.75 18.234-109.6 45.915-133.589 24.776-21.471 44.347-38.43 22.014-83.683-17.505-35.472-60.656-61.106-128.253-76.187-63.417-14.15-128.1-14.056-146.426-13.689-34.624.69-94.214 6.469-148.2 20.484-47.406 12.306-107.323 35.58-123.514 76.57-20.445 51.748 7.342 74.112 36.761 97.79 26.494 21.323 53.891 43.374 41.937 87.762-9.077 33.7-27.759 58.257-55.528 72.975-25 13.249-56.873 17.785-92.179 13.114-58.708-7.767-122.436-40.369-170.473-87.212-54.132-52.786-83.944-118.511-83.944-185.068 0-58.469 19.732-107.639 58.648-146.141 33.251-32.9 81.546-58.92 143.544-77.346 113.109-33.615 251.243-36.792 352.105-39.112 15.29-.352 29.734-.684 43.086-1.1 1.6-.063 99.6-3.692 213.78 9.577 67.325 7.824 127.041 19.906 177.492 35.909 63.244 20.063 112.071 46.4 145.125 78.283 35.3 34.045 53.108 74.913 52.94 121.467-.268 73.233-34.163 146.326-95.443 205.814-53.1 51.547-122.222 87.139-180.39 92.885q-8.382.822-16.242.821zm-288.92-382.571c26.446 0 82.138 1.683 136.93 13.908 69.146 15.427 113.439 41.958 131.648 78.854 24.041 48.716 2.138 67.7-23.224 89.674-28.088 24.34-59.922 51.927-44.289 128.815 5.011 24.646 17.168 42.784 36.135 53.909 17.445 10.232 40.778 14.244 67.471 11.61 57.1-5.64 125.07-40.7 177.4-91.5 60.307-58.543 93.663-130.368 93.926-202.243.163-45.139-17.135-84.789-51.411-117.852-32.5-31.342-80.663-57.288-143.166-77.115-50.147-15.907-109.549-27.921-176.557-35.708-114.17-13.268-212.045-9.587-213.016-9.548h-.022c-13.375.416-27.831.749-43.137 1.1-100.579 2.313-238.327 5.481-350.8 38.906-61.2 18.189-108.792 43.8-141.451 76.107-37.931 37.529-57.164 85.5-57.164 142.587 0 65.2 29.276 129.651 82.435 181.488 47.292 46.116 109.961 78.2 167.638 85.835 34.27 4.533 65.109.185 89.182-12.575 26.494-14.043 44.34-37.546 53.041-69.858 11.106-41.237-13.837-61.312-40.244-82.566-29.535-23.771-60.074-48.351-38.276-103.523 13.619-34.472 56.316-61.243 126.9-79.567 54.409-14.124 114.464-19.947 149.359-20.644 2.654-.048 6.265-.094 10.692-.094z" fill="#111"/><path d="m976.776 464.141s-105.43-80.658-228 43.185-103.28 118.34-174.02 177.2c-89.25 74.24-292.69 64.19-245.62 236.6 41.63 152.49 199.26 72.05 377.08-96.88s127.51-222.23 276.82-223.04 115.54 64.02 269.58 228.41c141.48 150.99 330.22 220.4 380.13 108 60.93-137.24-54.2-146.05-259.07-271.84-126.47-77.66-208.14-300.6-396.9-201.635z" fill="#92acef"/><path d="m417.938 1004.524a93.937 93.937 0 0 1 -25.353-3.291c-31.728-8.859-53.887-35.588-65.861-79.448-32.84-120.285 55.132-153.792 140.208-186.192 38.56-14.684 78.432-29.87 106.226-52.989 39.156-32.58 50.809-45.572 74.027-71.456 19.115-21.306 45.284-50.486 99.815-105.58 28.22-28.513 57.915-48.561 88.257-59.585a161.584 161.584 0 0 1 73.763-9.175c37.2 4.181 62.1 20.266 67.975 24.4 131.724-68.159 212.38 19.285 290.385 103.865 33.971 36.837 69.1 74.928 107.606 98.572 48.456 29.752 91.344 52.662 129.183 72.876 60.734 32.443 104.616 55.884 128.159 84.879 24.81 30.556 25.62 65.616 2.7 117.23-13.722 30.9-37.839 49.47-71.684 55.193-40.4 6.836-91.91-5.3-148.944-35.08-56.64-29.574-113.216-73.634-163.612-127.418-53.018-56.581-83.223-100.5-107.493-135.784-44.924-65.322-63.5-92.346-160.249-91.835-45.666.248-72.673 5.369-93.22 17.673-20.284 12.149-34.142 31.023-55.118 59.593-25.248 34.389-59.826 81.485-126.774 145.087-66.217 62.91-125.834 109.984-177.189 139.916-44.006 25.647-81.811 38.548-112.807 38.549zm473.61-563.7a159.314 159.314 0 0 0 -54.749 9.914c-29.585 10.783-58.6 30.412-86.246 58.343-54.443 55.007-80.57 84.134-99.646 105.4-23.38 26.064-35.114 39.147-74.552 71.961-28.433 23.652-68.7 38.987-107.643 53.818-41.823 15.928-85.069 32.4-112.7 59-14.712 14.178-24.012 30.067-28.418 48.583-4.975 20.9-3.682 44.654 3.954 72.625 11.478 42.044 32.466 67.6 62.381 75.949 64.416 17.983 171.819-42.174 310.571-173.983 66.62-63.295 101.046-110.184 126.181-144.421 42.1-57.34 57.85-78.794 152.342-79.307.914 0 1.824-.007 2.725-.007 46.582 0 76.489 6.638 99.665 22.056 23.079 15.353 39.407 39.094 62.007 71.952 24.173 35.15 54.26 78.894 107.02 135.2 50.017 53.378 106.131 97.087 162.278 126.4 56.059 29.27 106.475 41.227 145.8 34.581 32.089-5.426 54.95-23.02 67.948-52.292 22.043-49.65 21.44-83.16-2.017-112.049-22.906-28.212-66.415-51.454-126.633-83.621-37.9-20.247-80.859-43.194-129.443-73.024-39.1-24.007-74.463-62.357-108.666-99.445-38.564-41.814-78.44-85.053-124.063-108.439-24.42-12.517-48.468-18.446-73.562-18.263-28.235.258-57.066 8.3-88.141 24.6a2.5 2.5 0 0 1 -2.679-.228c-.259-.2-26.468-19.886-67.05-24.379a151.488 151.488 0 0 0 -16.664-.92z" fill="#111"/><path d="m843.356 579.286c17.73 18.3 28.43 87.94 63.45 116.41s103.01 40.52 149.66 4.37c40.68-31.51 39.85-97.07 63.59-128.39" fill="#92acef"/><path d="m987.13 725.018c-30.918 0-61.291-10.627-81.9-27.383-21.53-17.5-34.155-50.367-44.3-76.774-6.778-17.644-12.632-32.882-19.369-39.835a2.5 2.5 0 0 1 3.592-3.479c7.446 7.686 13.47 23.365 20.444 41.521 9.932 25.852 22.292 58.026 42.787 74.688 17.536 14.255 43.36 23.924 69.081 25.864 20.657 1.564 50.864-.911 77.471-21.531 23.659-18.325 32.818-48.187 41.675-77.066 5.976-19.481 11.618-37.881 21.454-50.857a2.5 2.5 0 1 1 3.984 3.02c-9.3 12.269-14.816 30.259-20.658 49.3-8.662 28.244-18.48 60.255-43.392 79.552-20.775 16.102-45.999 22.98-70.869 22.98z" fill="#111"/><path d="m271.146 894.536s121.62-74.79 151.4-16.49-53.88 126.69-133.546 164.854-232.2 78.24-243.35 32.26c0 0-4.92-17.68 21.58-23.07 0 0-60.53-10.67-64.53-36.62s54.09-20.43 83.89-14.19c0 0-28.34-12.73-29.3-48.39s48.31-74.99 69.07-53.92c13.51 13.72 4.1 25.25-11.03 34.57-21.69 13.35-11.92 54.01 71.39 19.43 73.18-30.36 31.83-64.45-16.13-49.55-48.18 14.97-42.03-11.68-39.24-18.5 8.036-19.634 83.406-73.22 139.796 9.616z" fill="#fbb348"/><path d="m92.481 1098.177c-14.163 0-26.092-1.792-34.643-5.85-7.949-3.773-12.868-9.351-14.622-16.583a18.661 18.661 0 0 1 2.341-13.756c2.458-4.014 6.385-7.187 11.723-9.485-17.659-4.288-53.8-15.572-57.055-36.656-.844-5.476.651-10.074 4.442-13.668 6.317-5.987 19.021-8.885 37.677-8.593a236.424 236.424 0 0 1 32.987 3.081c-8.72-7.409-19.939-21.253-20.543-43.714-.663-24.367 21.1-50.195 41.845-59.029 12.254-5.217 23-4.391 30.457 2.289a26.475 26.475 0 0 1 1.943-12.243c4.465-10.9 29.514-32.99 61.478-36.341 21.684-2.269 53.244 3.525 81.357 43.555 13.114-7.777 83.474-47.695 126.493-35.625 12.011 3.371 20.9 10.555 26.412 21.35 7.55 14.788 8.455 30.929 2.691 47.977-16.2 47.911-81.591 93.539-137.387 120.265-54.763 26.226-142.84 53.025-197.596 53.026zm-52.614-99.609c-15.8 0-26.749 2.49-31.76 7.24a9.862 9.862 0 0 0 -2.94 9.277c1.882 12.214 18.538 20.926 32.178 26.084a191.821 191.821 0 0 0 30.315 8.455 2.5 2.5 0 0 1 .064 4.912c-8.849 1.8-14.855 5.159-17.853 9.982a13.584 13.584 0 0 0 -1.812 9.983c1.417 5.839 5.311 10.171 11.922 13.309 17.9 8.494 54.557 6.977 103.223-4.268 41.873-9.674 89.66-26.114 124.713-42.9 83.7-40.088 124.516-86.907 134.81-117.356 5.317-15.723 4.506-30.561-2.407-44.1-4.854-9.5-12.695-15.83-23.307-18.809-44.471-12.485-123.761 35.8-124.557 36.292a2.5 2.5 0 0 1 -3.376-.722c-14.934-21.947-40.58-47.277-78.047-43.347-29.577 3.1-53.415 23.6-57.373 33.262-1.559 3.81-3.148 11.407.791 15.7 3.4 3.714 12.307 6.635 35.393-.539 28.879-8.969 53.417-.781 58.224 12.5 2.364 6.533 3.161 23.677-40.394 41.748-23.317 9.678-42.707 14.305-57.663 13.753-16.96-.628-23.136-7.851-25.308-12.1-4.387-8.582-.383-19.554 9.313-25.521 10.1-6.224 15.577-12.285 16.271-18.015.5-4.118-1.37-8.264-5.712-12.673-8.008-8.127-19.717-4.863-25.983-2.2-19.231 8.189-39.414 31.961-38.806 54.293.904 33.592 26.73 45.692 27.829 46.192a2.5 2.5 0 0 1 -1.541 4.726 246.107 246.107 0 0 0 -43.806-5.137c-.811-.015-1.613-.021-2.401-.021zm94.957-90.559a15.838 15.838 0 0 1 .427 5.985c-.9 7.42-6.987 14.509-18.613 21.671-7.455 4.588-10.672 12.751-7.483 18.988 5.408 10.579 28.714 15.882 76.6-4 21.2-8.795 42.207-22.72 37.608-35.429-3.94-10.882-26.278-17.43-52.037-9.425-16.91 5.258-29.148 5.991-36.502 2.21z" fill="#111"/><path d="m1695.416 894.536s-121.62-74.79-151.4-16.49 53.87 126.69 133.55 164.85 232.2 78.24 243.35 32.26c0 0 4.92-17.68-21.58-23.07 0 0 60.52-10.67 64.53-36.62s-54.09-20.43-83.89-14.19c0 0 28.34-12.73 29.3-48.39s-48.32-74.99-69.07-53.92c-13.51 13.72-4.1 25.25 11.03 34.57 21.69 13.35 11.92 54.01-71.39 19.43-73.18-30.36-31.83-64.45 16.12-49.55 48.19 14.97 42.04-11.68 39.25-18.5-8.04-19.63-83.41-73.216-139.8 9.62z" fill="#fbb348"/><path d="m1874.081 1098.177c-54.754 0-142.827-26.8-197.595-53.026-55.8-26.724-121.2-72.351-137.393-120.263-5.763-17.049-4.856-33.191 2.7-47.978 5.514-10.8 14.4-17.98 26.412-21.351 43.018-12.071 113.378 27.848 126.493 35.625 28.113-40.029 59.677-45.822 81.356-43.555 31.964 3.351 57.014 25.439 61.479 36.34a26.468 26.468 0 0 1 1.941 12.244c7.449-6.678 18.192-7.5 30.437-2.295 20.749 8.829 42.523 34.659 41.867 59.035-.6 22.461-11.823 36.305-20.543 43.714a236.56 236.56 0 0 1 32.985-3.081c18.68-.291 31.361 2.605 37.678 8.593 3.791 3.594 5.285 8.192 4.442 13.668-3.258 21.084-39.4 32.368-57.055 36.656 5.34 2.3 9.265 5.47 11.723 9.485a18.661 18.661 0 0 1 2.32 13.838c-1.733 7.15-6.652 12.728-14.6 16.5-8.553 4.058-20.489 5.851-34.647 5.851zm-288.074-239.863a61.011 61.011 0 0 0 -16.458 2.06c-10.611 2.979-18.453 9.308-23.306 18.81-6.916 13.541-7.728 28.38-2.413 44.1 10.293 30.45 51.115 77.269 134.816 117.355 35.053 16.787 82.84 33.227 124.713 42.9 48.667 11.246 85.326 12.76 103.223 4.268 6.611-3.138 10.5-7.47 11.9-13.243a13.591 13.591 0 0 0 -1.8-10.049c-3-4.823-9-8.182-17.853-9.982a2.5 2.5 0 0 1 .063-4.912c.588-.1 58.8-10.653 62.493-34.54a9.861 9.861 0 0 0 -2.94-9.276c-5.26-4.986-17.051-7.477-34.161-7.222a246.1 246.1 0 0 0 -43.805 5.137 2.5 2.5 0 0 1 -1.537-4.728c1.1-.5 26.921-12.592 27.825-46.176.6-22.342-19.591-46.115-38.827-54.3-6.263-2.665-17.961-5.922-25.962 2.2-4.342 4.409-6.21 8.555-5.712 12.673.694 5.73 6.168 11.791 16.271 18.015 9.7 5.967 13.7 16.939 9.313 25.521-2.172 4.249-8.349 11.472-25.309 12.1-14.963.544-34.344-4.075-57.663-13.754-43.555-18.07-42.758-35.216-40.393-41.748 4.805-13.28 29.34-21.468 58.214-12.5 23.093 7.173 32 4.252 35.4.538 3.937-4.3 2.35-11.893.791-15.7-3.958-9.661-27.8-30.161-57.373-33.261-20.667-2.166-50.989 3.592-78.047 43.342a2.5 2.5 0 0 1 -3.376.722c-.694-.431-62.964-38.35-108.087-38.35zm186.8 43.937c-15.368 0-26.89 5.452-29.614 12.977-4.6 12.71 16.411 26.635 37.608 35.429 47.889 19.878 71.195 14.576 76.6 4 3.188-6.237-.028-14.4-7.483-18.988-11.627-7.162-17.714-14.251-18.613-21.671a15.848 15.848 0 0 1 .427-5.987c-7.356 3.784-19.6 3.053-36.514-2.2a75.947 75.947 0 0 0 -22.408-3.56z" fill="#111"/><path d="m94.077 1055.653c-16.693 0-27.836-.993-28-1.008a2.5 2.5 0 0 1 .455-4.979c.929.085 93.842 8.129 148.043-24.148a2.5 2.5 0 1 1 2.558 4.3c-29.122 17.342-68.671 23.165-96.722 25-9.611.62-18.573.835-26.334.835z" fill="#111"/><path d="m1872.476 1055.653c-7.762 0-16.721-.214-26.335-.842-28.049-1.831-67.6-7.654-96.714-25a2.5 2.5 0 0 1 2.559-4.3c54.191 32.276 147.1 24.232 148.033 24.147a2.5 2.5 0 0 1 .455 4.979c-.162.023-11.307 1.016-27.998 1.016z" fill="#111"/><path d="m124.334 1010.5c-25.247 0-39.114-7.074-40.1-7.594a2.5 2.5 0 0 1 2.335-4.422c.4.211 41.112 20.76 111.542-10.434a2.5 2.5 0 1 1 2.025 4.572c-31.297 13.862-56.78 17.878-75.802 17.878z" fill="#111"/><path d="m1842.227 1010.5c-19.024 0-44.505-4.014-75.813-17.878a2.5 2.5 0 1 1 2.025-4.572c70.44 31.193 111.149 10.645 111.552 10.434a2.5 2.5 0 0 1 2.335 4.422c-.984.519-14.855 7.594-40.099 7.594z" fill="#111"/><path d="m731.766 321.792c0-30.282 29.57-54.831 66.05-54.831s66.05 24.549 66.05 54.831-29.57 54.831-66.05 54.831-66.05-24.549-66.05-54.831z" fill="#fbb348"/><path d="m797.816 379.123c-37.8 0-68.55-25.718-68.55-57.331s30.751-57.331 68.55-57.331 68.551 25.719 68.551 57.331-30.752 57.331-68.551 57.331zm0-109.662c-35.041 0-63.55 23.476-63.55 52.331s28.509 52.331 63.55 52.331 63.551-23.475 63.551-52.331-28.509-52.331-63.551-52.331z" fill="#111"/><path d="m928.1 422.411.26 65.36s53.79 45.755 102.06.5l.25-69.382z" fill="#fbb348"/><path d="m982.725 510.717a78.063 78.063 0 0 1 -22.151-3.329 101.4 101.4 0 0 1 -33.838-17.713 2.5 2.5 0 0 1 -.88-1.894l-.26-65.36a2.5 2.5 0 0 1 2.414-2.508l102.571-3.519a2.5 2.5 0 0 1 2.586 2.507l-.25 69.382a2.5 2.5 0 0 1 -.79 1.815c-16.773 15.723-34.203 20.619-49.402 20.619zm-51.874-24.147a99.356 99.356 0 0 0 31.3 16.072c24.54 7.233 46.663 2.03 65.767-15.464l.236-65.7-97.551 3.347z" fill="#111"/><path d="m1228.346 321.792c0-30.282-29.58-54.831-66.06-54.831s-66.05 24.549-66.05 54.831 29.57 54.831 66.05 54.831 66.06-24.549 66.06-54.831z" fill="#fbb348"/><path d="m1162.287 379.123c-37.8 0-68.551-25.718-68.551-57.331s30.752-57.331 68.551-57.331 68.559 25.719 68.559 57.331-30.756 57.331-68.559 57.331zm0-109.662c-35.042 0-63.551 23.476-63.551 52.331s28.509 52.331 63.551 52.331 63.559-23.475 63.559-52.331-28.512-52.331-63.559-52.331z" fill="#111"/><path d="m858.887 343.116a2.491 2.491 0 0 1 -1.9-.87c-.382-.443-38.908-44.491-96.807-50.83a2.5 2.5 0 1 1 .545-4.97c59.907 6.558 99.659 52.082 100.054 52.541a2.5 2.5 0 0 1 -1.9 4.129z" fill="#111"/><path d="m1101.215 343.116a2.5 2.5 0 0 1 -1.895-4.129c.394-.459 40.146-45.983 100.054-52.541a2.5 2.5 0 0 1 .545 4.97c-57.9 6.339-96.425 50.387-96.807 50.83a2.491 2.491 0 0 1 -1.897.87z" fill="#111"/><path d="m800.325 331.475a2.5 2.5 0 0 1 -2.007-3.987c11.172-15.089 28.536-15.807 29.27-15.83a2.5 2.5 0 0 1 .163 5c-.173 0-15.725.72-25.415 13.806a2.5 2.5 0 0 1 -2.011 1.011z" fill="#111"/><path d="m1159.789 331.475a2.5 2.5 0 0 1 -2.011-1.012c-9.7-13.1-25.271-13.8-25.426-13.807a2.5 2.5 0 0 1 .083-5h.08c.734.023 18.1.741 29.281 15.829a2.5 2.5 0 0 1 -2.007 3.988z" fill="#111"/><path d="m841 302.162a137.76 137.76 0 1 1 137.76 137.759 137.761 137.761 0 0 1 -137.76-137.759z" fill="#fbb348"/><path d="m978.756 442.421c-77.339 0-140.259-62.92-140.259-140.259s62.92-140.262 140.259-140.262 140.26 62.92 140.26 140.259-62.916 140.262-140.26 140.262zm0-275.518c-74.582-.003-135.256 60.677-135.256 135.259s60.677 135.259 135.259 135.259 135.26-60.677 135.26-135.259-60.68-135.262-135.263-135.262z" fill="#111"/><path d="m841.446 302.6c-1.23-76.072 61.67-137.759 137.75-137.759s135.58 62.1 137.21 138.168c.03 1.509-48.52-11.451-84.59-43.651-47.96-42.825-52.56-93.133-52.56-93.133s-9.21 46.692-54.38 91.393c-33.71 33.356-83.42 46.147-83.43 44.982z" fill="rgb(0,63,90)"/><path d="m1116.163 305.549c-4.994 0-20.211-5.418-30.549-9.874-14.882-6.413-36.584-17.6-55.463-34.449-35.148-31.385-47.327-66.343-51.416-83.741-5.4 16.533-19.408 49.561-52.1 81.914-17.654 17.467-39.251 28.987-54.258 35.575-12.554 5.512-29.206 11.072-31.84 9.987a2.606 2.606 0 0 1 -1.591-2.325 135.86 135.86 0 0 1 39.52-98.105 140.273 140.273 0 0 1 100.734-42.187 136.809 136.809 0 0 1 98.311 41.308c25.889 26.358 40.591 61.626 41.4 99.306a2.663 2.663 0 0 1 -1.516 2.4 3.054 3.054 0 0 1 -1.232.191zm-134.242-138.178c1.184 8.285 9.314 52.4 51.56 90.124 30.192 26.954 70.03 40.457 80.339 42.773a140.3 140.3 0 0 0 -39.88-93.112 131.805 131.805 0 0 0 -92.019-39.785zm-5.492 0a135.261 135.261 0 0 0 -94.4 40.666 130.926 130.926 0 0 0 -38.1 91.711c10.147-2.406 50.154-15.176 79.189-43.9a213.5 213.5 0 0 0 43.539-61.559 154.4 154.4 0 0 0 9.772-26.918z" fill="#111"/><path d="m899.486 82.161a79.66 79.66 0 1 1 79.66 79.661 79.663 79.663 0 0 1 -79.66-79.661z" fill="rgb(0,63,90)"/><path d="m979.146 164.322a82.161 82.161 0 1 1 82.16-82.161 82.253 82.253 0 0 1 -82.16 82.161zm0-159.322a77.161 77.161 0 1 0 77.16 77.161 77.248 77.248 0 0 0 -77.16-77.161z" fill="#111"/><path d="m974.224 165.182a147.445 147.445 0 0 1 -29.961-3.3c-23.437-5.053-41.747-15.444-52.948-30.051-15.889-20.719-18.168-49.795-6.775-86.418a2.5 2.5 0 1 1 4.773 1.486c-10.878 34.971-8.874 62.517 5.957 81.873 25.381 33.123 80.477 31.4 81.04 31.379a2.5 2.5 0 0 1 .2 5c-.136.002-.933.031-2.286.031z" fill="#111"/><path d="m977.256 164.241a2.5 2.5 0 0 1 -1.612-.59c-1.475-1.246-36.13-30.947-35.532-68.955.329-20.892 11.335-40.068 32.713-56.995a2.5 2.5 0 0 1 3.641 3.333c-.092.141-9.311 14.376-13.508 36.139-3.857 19.992-4.139 50.66 16.413 83.234a2.5 2.5 0 0 1 -2.115 3.834zm-11.24-113.836c-13.626 13.633-20.648 28.506-20.9 44.344-.341 21.09 11.434 39.917 21.169 51.829a116.756 116.756 0 0 1 -8.192-70.563 124.2 124.2 0 0 1 7.923-25.61z" fill="#111"/><path d="m978.41 164.76a2.5 2.5 0 0 1 -1.3-4.638c.43-.26 43.01-26.549 48.911-69.567 3.753-27.363-7.908-55.715-34.66-84.268a2.5 2.5 0 0 1 3.648-3.419c27.845 29.72 39.944 59.463 35.96 88.4-6.249 45.394-49.433 72.015-51.268 73.127a2.49 2.49 0 0 1 -1.291.365z" fill="#111"/><path d="m918.852 318.135c-12.727 0-21.535-8.751-21.671-8.889a2.5 2.5 0 0 1 3.566-3.5c.72.727 17.905 17.6 38.5-2.133a2.5 2.5 0 0 1 3.459 3.611c-8.606 8.244-16.83 10.911-23.854 10.911z" fill="#111"/><path d="m1036.61 318.135c-12.726 0-21.533-8.751-21.669-8.889a2.5 2.5 0 0 1 3.567-3.5c.751.757 17.922 17.578 38.489-2.134a2.5 2.5 0 1 1 3.459 3.609c-8.607 8.247-16.825 10.914-23.846 10.914z" fill="#111"/><path d="m989.857 338.185a2.493 2.493 0 0 1 -1.832-.8c-8.227-8.847-18.243-.368-18.668 0a2.5 2.5 0 0 1 -3.287-3.767c4.821-4.216 16.377-9.568 25.617.368a2.5 2.5 0 0 1 -1.83 4.2z" fill="#111"/><path d="m976.9 378.868a2.5 2.5 0 0 1 -.066-5l4.65-.125h.068a2.5 2.5 0 0 1 .067 5l-4.65.125z" fill="#111"/><path d="m892.936 364.2a28.01 28.01 0 1 1 28.01 28.007 28.008 28.008 0 0 1 -28.01-28.007z" fill="#e79f33"/><path d="m1010.826 364.2a28.01 28.01 0 1 1 28.01 28.007 28.008 28.008 0 0 1 -28.01-28.007z" fill="#e79f33"/></svg></g></svg>