<svg width="741" height="634" viewBox="0 0 240 320" fill="none" xmlns="http://www.w3.org/2000/svg"><path d="M228 319.5H12C5.649 319.5 0.5 314.351 0.5 308V12C0.5 5.649 5.649 0.5 12 0.5H159.175C159.571 0.5 159.952 0.657 160.233 0.936L239.057 79.268C239.341 79.55 239.5 79.933 239.5 80.332V308C239.5 314.351 234.351 319.5 228 319.5Z" fill="#FFF9F2" stroke="#FFC681" stroke-width="1"/><path d="M160.5 1.207L238.793 79.5H172C165.649 79.5 160.5 74.351 160.5 68V1.207Z" fill="#FFF9F2" stroke="#FFC681" stroke-width="1"/><path d="M68.844 244.072C69.174 250.699 74.734 254.914 83.139 254.914C92.025 254.914 97.535 250.496 97.535 243.387C97.535 237.826 94.412 234.729 86.973 233.027L82.758 232.062C78.213 230.996 76.359 229.549 76.359 227.035C76.359 223.861 79.152 221.779 83.367 221.779C87.379 221.779 90.223 223.836 90.68 227.111H96.951C96.647 220.84 91.086 216.447 83.393 216.447C75.191 216.447 69.758 220.865 69.758 227.467C69.758 232.9 72.881 236.176 79.533 237.699L84.281 238.791C88.978 239.883 90.984 241.508 90.984 244.174C90.984 247.297 87.861 249.557 83.545 249.557C78.898 249.557 75.648 247.424 75.242 244.072H68.844Z" fill="#FF8C02"/><path d="M121.59 254L134.26 217.361H127.278L118.137 246.51H117.705L108.489 217.361H101.252L114.049 254H121.59Z" fill="#FF8C02"/><path d="M170.731 239.375V234.805H155.522V239.807H164.333L164.307 240.568C164.206 245.748 160.397 249.227 154.811 249.227C148.286 249.227 144.198 244.047 144.198 235.617C144.198 227.314 148.21 222.135 154.608 222.135C159.305 222.135 162.581 224.471 163.901 228.711H170.426C169.258 221.246 163.063 216.447 154.608 216.447C144.173 216.447 137.495 223.938 137.495 235.668C137.495 247.525 144.096 254.914 154.71 254.914C164.485 254.914 170.731 248.846 170.731 239.375Z" fill="#FF8C02"/><path fill-rule="evenodd" clip-rule="evenodd" d="M99 117C96.791 117 95 118.791 95 121V148.939C94.339 148.979 93.672 149 93 149C75.327 149 61 134.673 61 117C61 99.327 75.327 85 93 85C110.673 85 125 99.327 125 117H99ZM125 117H155C157.209 117 159 118.791 159 121V177C159 179.209 157.209 181 155 181H99C96.791 181 95 179.209 95 177V148.939C111.741 147.906 125 134.001 125 117Z" fill="#FFC681"/></svg>